<svg width="254" height="122" viewBox="0 0 254 122" fill="none" xmlns="http://www.w3.org/2000/svg">
<path d="M36.4714 82.0651L33.605 81.3766C33.3367 81.1103 33.0112 80.7749 32.6304 80.3725C32.2477 79.972 31.8177 79.4946 31.3403 78.9402C30.8609 78.3859 30.2986 77.7645 29.6496 77.078L19.4544 65.709L32.3424 53.5153L35.6685 52.9413L35.5541 50.6489H24.4889L24.3744 52.8269L27.8721 53.5726L16.0612 65.7839L13.6545 66.4191V62.1146C13.6545 60.2799 13.6643 58.7609 13.6841 57.5575C13.7038 56.3541 13.7413 55.4269 13.7985 54.7779C13.8557 54.1289 13.9228 53.7462 13.9997 53.6317L17.4974 52.8288L17.383 50.6509H5.17163L5 52.8288L8.55491 53.6317C8.63185 53.7856 8.67919 54.2058 8.69892 54.8923C8.71865 55.5808 8.7364 56.5258 8.75613 57.7311C8.77586 58.9345 8.78572 60.3963 8.78572 62.1166V72.8937C8.78572 75.4169 8.76599 77.3857 8.72851 78.7982C8.69103 80.2127 8.63185 81.0531 8.55688 81.3214L5.05918 82.1243L5.23081 84.3022H17.2133L17.385 82.1243L13.8833 81.3194C13.8439 81.0531 13.7965 80.2107 13.7393 78.7962C13.6821 77.3837 13.6525 75.4129 13.6525 72.8918V68.7075H15.43L24.2008 78.6838C24.698 79.2579 25.128 79.7727 25.491 80.2324C25.854 80.6901 26.1697 81.13 26.4379 81.5502L22.9975 82.1243L23.1119 84.3022H36.4694V82.0651H36.4714Z" fill="black"/>
<path d="M59.8837 49.6172L56.5596 51.6235L44.7487 81.3194L41.9395 82.1223L42.0539 84.3002H51.6849L51.7993 82.1223L48.3036 81.3194L51.024 73.671C52.1189 73.6454 53.1546 73.6237 54.1232 73.6079C55.3641 73.5882 56.5596 73.5783 57.7057 73.5783C58.8894 73.5783 60.1224 73.5882 61.4027 73.6079C62.2036 73.6197 63.0164 73.6414 63.8252 73.6611L66.8771 81.3194L63.3794 82.1223L63.4938 84.3002H75.0739L75.2455 82.1223L72.3811 81.3194L59.8837 49.6172ZM57.7057 70.8283C55.8711 70.8283 54.3224 70.8085 53.0619 70.7711C52.7166 70.7612 52.3931 70.7513 52.0893 70.7395L57.1652 56.8296L62.7461 70.7572C62.608 70.7612 62.468 70.7651 62.322 70.7711C61.0397 70.8085 59.5009 70.8283 57.7057 70.8283Z" fill="black"/>
<path d="M86.3366 77.1924C86.3169 78.378 86.2991 79.3131 86.2794 80.0016C86.2597 80.6901 86.2123 81.13 86.1354 81.3194L82.6377 82.1223L82.7521 84.3002H94.9635L95.0779 82.1223L91.5822 81.3194C91.5052 81.1675 91.4382 80.7749 91.381 80.1436C91.3237 79.5123 91.2843 78.6049 91.2665 77.4212C91.2468 76.2376 91.2369 74.7264 91.2369 72.8918V62.1146C91.2369 60.203 91.2468 58.6563 91.2665 57.4707C91.2863 56.2871 91.3237 55.3776 91.381 54.7483C91.4382 54.117 91.5052 53.7442 91.5822 53.6298L95.0799 52.8269L94.9655 50.6489H82.7541L82.6397 52.8269L86.1374 53.6298C86.2143 53.7442 86.2617 54.1565 86.2814 54.8627C86.3011 55.571 86.3189 56.5258 86.3386 57.7292C86.3583 58.9325 86.3682 60.3943 86.3682 62.1146V72.8918C86.3662 74.5745 86.3563 76.0067 86.3366 77.1924Z" fill="black"/>
<path d="M135.149 82.6372C134.154 82.4458 133.237 82.1223 132.397 81.6627C131.556 81.203 130.706 80.5066 129.846 79.5696C128.986 78.6325 128.021 77.3818 126.95 75.8154L121.598 67.9342C122.089 67.7784 122.564 67.5949 123.024 67.3878C124.876 66.5474 126.32 65.3914 127.352 63.9197C128.384 62.448 128.901 60.7771 128.901 58.903C128.901 56.1904 127.956 54.1348 126.064 52.7401C124.172 51.3453 121.43 50.647 117.838 50.647H105.283L105.111 52.8249L108.666 53.6278C108.704 53.7817 108.743 54.192 108.781 54.8608C108.818 55.5295 108.848 56.4666 108.867 57.67C108.887 58.8734 108.897 60.3549 108.897 62.1126V72.8898C108.897 73.7697 108.887 74.6574 108.867 75.555C108.848 76.4526 108.838 77.2851 108.838 78.0486C108.838 78.814 108.828 79.4729 108.808 80.0272C108.789 80.5816 108.781 80.9919 108.781 81.2602L105.283 82.1203L105.397 84.2983H117.208L117.38 82.1203L113.997 81.2602C113.957 80.8795 113.91 80.3527 113.853 79.684C113.795 79.0152 113.756 78.1275 113.738 77.0188C113.718 75.9101 113.709 74.5351 113.709 72.8918V68.6504H116.689C116.792 68.6504 116.891 68.6444 116.991 68.6444L120.359 74.7856C121.811 77.2713 123.138 79.2579 124.344 80.7473C125.547 82.2387 126.8 83.2981 128.1 83.9294C129.398 84.5606 130.889 84.8763 132.572 84.8763C132.992 84.8763 133.422 84.8566 133.862 84.8191C134.302 84.7796 134.713 84.7224 135.095 84.6474L135.149 82.6372ZM113.707 66.07V61.2545C113.707 59.5342 113.707 58.1592 113.707 57.1275C113.707 56.0957 113.707 55.3125 113.707 54.7779C113.707 54.2433 113.717 53.8606 113.736 53.6318C113.756 53.4029 113.784 53.251 113.823 53.1741H117.149C119.29 53.1741 120.933 53.7008 122.079 54.7503C123.225 55.8018 123.799 57.3405 123.799 59.3646C123.799 61.4675 123.14 63.1109 121.821 64.2945C120.503 65.4801 118.658 66.072 116.289 66.072H113.707V66.07Z" fill="black"/>
<path d="M164.115 52.31C161.669 50.8581 158.84 50.1321 155.63 50.1321C152.342 50.1321 149.39 50.8876 146.772 52.3968C144.155 53.9079 142.109 55.9793 140.639 58.6169C139.167 61.2545 138.432 64.255 138.432 67.6186C138.432 70.9821 139.158 73.963 140.61 76.5611C142.062 79.1612 144.078 81.1852 146.658 82.6372C149.238 84.0911 152.19 84.8151 155.516 84.8151C157.731 84.8151 159.824 84.3851 161.793 83.5249C163.762 82.6648 165.51 81.4417 167.039 79.8556C168.567 78.2695 169.771 76.4072 170.651 74.2668C171.529 72.1263 171.969 69.7768 171.969 67.2162C171.969 63.8526 171.27 60.8915 169.875 58.3309C168.481 55.7702 166.559 53.7639 164.115 52.31ZM164.945 75.5589C164.123 77.5278 162.957 79.0468 161.448 80.116C159.939 81.1872 158.132 81.7218 156.031 81.7218C153.776 81.7218 151.769 81.0728 150.012 79.7728C148.254 78.4747 146.877 76.6874 145.885 74.4128C144.89 72.1402 144.393 69.5105 144.393 66.5296C144.393 62.3651 145.34 59.0687 147.232 56.6402C149.124 54.2137 151.694 53.0005 154.944 53.0005C157.198 53.0005 159.157 53.6594 160.82 54.9791C162.483 56.2969 163.791 58.1237 164.748 60.4535C165.703 62.7853 166.18 65.4979 166.18 68.5951C166.178 71.2682 165.766 73.5901 164.945 75.5589Z" fill="black"/>
<path d="M202.035 80.2008C203.104 78.7666 203.641 77.1332 203.641 75.2985C203.641 73.5783 203.23 72.1362 202.408 70.9703C201.585 69.8044 200.536 68.82 199.255 68.0171C197.975 67.2142 196.618 66.4981 195.185 65.8668C193.751 65.2355 192.396 64.5766 191.116 63.8881C189.835 63.1996 188.784 62.3888 187.963 61.4518C187.141 60.5147 186.73 59.3587 186.73 57.9836C186.73 56.4548 187.312 55.2139 188.478 54.2571C189.644 53.3023 191.201 52.8229 193.15 52.8229C195.061 52.8229 196.628 53.2056 197.851 53.9691L199.456 58.7846L201.922 58.5557L201.463 51.3887C200.812 51.1224 200.088 50.8817 199.285 50.6726C198.482 50.4635 197.612 50.3096 196.677 50.2149C195.74 50.1202 194.775 50.0709 193.781 50.0709C191.41 50.0709 189.309 50.4635 187.474 51.2467C185.639 52.0299 184.197 53.1386 183.146 54.5708C182.094 56.003 181.57 57.6384 181.57 59.4731C181.57 61.2703 181.98 62.7696 182.802 63.9729C183.623 65.1763 184.667 66.1903 185.927 67.011C187.188 67.8336 188.535 68.5596 189.97 69.1889C191.404 69.8202 192.759 70.4692 194.039 71.138C195.32 71.8068 196.361 72.5919 197.164 73.4875C197.967 74.3852 198.368 75.5037 198.368 76.8412C198.368 78.4096 197.793 79.6504 196.647 80.5678C195.501 81.4851 193.99 81.9428 192.118 81.9428C190.895 81.9428 189.719 81.781 188.593 81.4555C187.464 81.132 186.442 80.6625 185.525 80.0509L183.919 74.9494L181.453 75.1782L181.739 82.5741C182.885 83.2251 184.337 83.7597 186.097 84.1799C187.855 84.6001 189.575 84.8112 191.256 84.8112C193.664 84.8112 195.793 84.4008 197.647 83.5782C199.502 82.7635 200.964 81.635 202.035 80.2008Z" fill="black"/>
<path d="M249.438 50.5917C248.712 50.5917 247.984 50.6016 247.26 50.6213C246.534 50.6411 245.828 50.6509 245.14 50.6509H232.814C232.088 50.6509 231.409 50.6411 230.778 50.6213C230.147 50.6016 229.535 50.574 228.943 50.5345C228.35 50.497 227.73 50.4576 227.081 50.4201L225.706 59.8223L227.941 60.1083L229.776 55.4644C230.005 55.3875 230.32 55.3402 230.723 55.3204C231.125 55.3007 231.516 55.2908 231.899 55.2908H245.487L232.244 82.58V84.3002H236.716L249.673 52.5961L249.438 50.5917Z" fill="black"/>
<path d="M40.9399 99.1906C40.5966 98.9302 40.135 98.7625 39.5531 98.6895C39.989 98.6027 40.3599 98.4252 40.6578 98.1509C41.0287 97.8116 41.2141 97.3974 41.2141 96.9061C41.2141 96.2985 40.9892 95.833 40.5375 95.5055C40.0857 95.18 39.4465 95.0162 38.616 95.0162H35.722L35.6943 95.4719L36.4972 95.5647C36.515 95.6179 36.5328 95.8152 36.5505 96.1545C36.5683 96.4938 36.5781 96.9633 36.5781 97.5611V100.347C36.5781 100.883 36.5683 101.321 36.5505 101.659C36.5328 101.998 36.515 102.203 36.4972 102.274L35.6943 102.448L35.722 102.876H38.3615C39.3439 102.876 40.1311 102.671 40.7249 102.26C41.3187 101.85 41.6166 101.305 41.6166 100.627C41.6166 100.013 41.3917 99.5338 40.9399 99.1906ZM37.3909 96.1565C37.3949 95.7994 37.4027 95.5903 37.4106 95.5272H38.4957C39.0756 95.5272 39.5294 95.6534 39.8549 95.902C40.1804 96.1525 40.3441 96.5234 40.3441 97.0146C40.3441 97.5059 40.1646 97.8866 39.8075 98.1608C39.4505 98.4331 38.9494 98.5692 38.3063 98.5692C38.1011 98.5692 37.9117 98.5652 37.7361 98.5554C37.6237 98.5494 37.5034 98.5435 37.381 98.5376V97.3224C37.385 96.9022 37.387 96.5136 37.3909 96.1565ZM40.1705 101.956C39.7858 102.215 39.198 102.345 38.4029 102.345C38.2964 102.345 38.1346 102.333 37.9216 102.311C37.7065 102.29 37.5428 102.27 37.4264 102.25C37.4166 102.179 37.4087 101.974 37.3988 101.635C37.3889 101.296 37.385 100.921 37.385 100.51V99.1077C37.4244 99.1058 37.46 99.1038 37.5053 99.1038C37.6395 99.1038 37.9255 99.1038 38.3635 99.1038C39.1486 99.1038 39.7424 99.2419 40.1449 99.5181C40.5473 99.7943 40.7485 100.207 40.7485 100.751C40.7466 101.296 40.5532 101.698 40.1705 101.956Z" fill="black"/>
<path d="M52.2077 95.0182L52.1801 95.4463L53.1172 95.6337C53.1349 95.7146 53.1487 95.8566 53.1566 96.0618C53.1645 96.267 53.1724 96.5175 53.1764 96.8114C53.1803 97.1054 53.1823 97.4368 53.1823 97.8018V99.8238C53.1823 100.431 53.0955 100.915 52.9219 101.278C52.7483 101.639 52.5115 101.899 52.2117 102.055C51.9118 102.211 51.5705 102.29 51.1878 102.29C50.7854 102.29 50.4224 102.217 50.0969 102.069C49.7714 101.921 49.5149 101.676 49.3275 101.333C49.1401 100.99 49.0415 100.526 49.0336 99.9462V97.5611C49.0336 97.0067 49.0355 96.5964 49.0395 96.3281C49.0434 96.0598 49.0513 95.8803 49.0592 95.7856C49.0671 95.6909 49.073 95.6396 49.073 95.6317L49.8759 95.4443L49.8483 95.0162H47.3567L47.3291 95.4443L48.132 95.6317C48.1399 95.6594 48.1478 95.7185 48.1517 95.8132C48.1557 95.906 48.1636 96.0855 48.1715 96.3498C48.1794 96.6142 48.1853 97.0166 48.1853 97.5611V100.08C48.1853 101 48.4457 101.718 48.9685 102.231C49.4912 102.744 50.2034 103 51.105 103C51.6041 103 52.0617 102.895 52.478 102.684C52.8923 102.475 53.2237 102.136 53.4683 101.666C53.7129 101.197 53.8372 100.579 53.8372 99.812V97.8018C53.8372 97.1942 53.8392 96.7424 53.8431 96.4425C53.8471 96.1427 53.851 95.9395 53.857 95.833C53.8609 95.7264 53.8629 95.6594 53.8629 95.6317L54.6658 95.4443L54.6263 95.0162H52.2077V95.0182Z" fill="black"/>
<path d="M62.1367 96.4366C62.1407 96.1683 62.1505 95.973 62.1643 95.8468C62.1782 95.7205 62.188 95.6456 62.1979 95.6199L63.0008 95.4463L62.9732 95.0182H60.4954L60.4678 95.4463L61.2707 95.6199C61.2786 95.6554 61.2865 95.7462 61.2904 95.8941C61.2944 96.0421 61.3003 96.2512 61.3042 96.5234C61.3082 96.7957 61.3101 97.1409 61.3101 97.5611V100.347C61.3101 100.757 61.3082 101.096 61.3042 101.365C61.3003 101.633 61.2944 101.84 61.2904 101.988C61.2865 102.136 61.2786 102.231 61.2707 102.276L60.4678 102.45L60.4954 102.878H62.9732L63.0008 102.45L62.1979 102.276C62.188 102.24 62.1782 102.162 62.1643 102.041C62.1505 101.921 62.1426 101.724 62.1367 101.451C62.1328 101.179 62.1308 100.81 62.1308 100.347V97.5611C62.1288 97.0797 62.1308 96.7049 62.1367 96.4366Z" fill="black"/>
<path d="M73.4841 102.197C73.3223 102.215 73.1724 102.227 73.0283 102.231C72.8863 102.235 72.7166 102.237 72.5194 102.237H71.2331C71.099 102.237 70.9747 102.235 70.8583 102.231C70.7419 102.227 70.6314 102.219 70.5229 102.211C70.5131 102.13 70.5072 101.909 70.5032 101.548C70.4993 101.187 70.4973 100.787 70.4973 100.349V97.5631C70.4973 97.1074 70.4993 96.7444 70.5032 96.4721C70.5072 96.1999 70.5151 95.9987 70.5229 95.8685C70.5308 95.7383 70.5446 95.6613 70.5624 95.6337L71.675 95.4739L71.6474 95.0182H68.8343L68.8066 95.4463L69.6096 95.6337C69.6273 95.6692 69.6411 95.76 69.649 95.902C69.6569 96.046 69.6628 96.2512 69.6628 96.5175C69.6628 96.7858 69.6628 97.133 69.6628 97.5611V100.347C69.6628 100.767 69.6609 101.112 69.6569 101.384C69.653 101.657 69.6451 101.862 69.6372 102C69.6273 102.138 69.6194 102.231 69.6096 102.274L68.8066 102.448L68.8343 102.876H73.2414C73.3479 102.876 73.4584 102.878 73.5689 102.882C73.6813 102.886 73.7879 102.893 73.8904 102.901C73.993 102.911 74.0798 102.919 74.1508 102.929L74.646 101.053L74.1508 100.946L73.4841 102.197Z" fill="black"/>
<path d="M86.1037 96.0283C85.3225 95.3536 84.2355 95.0162 82.8428 95.0162H79.8284L79.8008 95.4443L80.5919 95.6179C80.6096 95.6811 80.6254 95.8902 80.6392 96.2472C80.653 96.6043 80.6589 97.0423 80.6589 97.5591V100.345C80.6589 100.8 80.653 101.211 80.6392 101.578C80.6254 101.945 80.6096 102.175 80.5919 102.274L79.8008 102.448L79.8284 102.876H83.0164C83.8548 102.876 84.5946 102.706 85.2338 102.367C85.8729 102.027 86.372 101.554 86.7331 100.946C87.0941 100.339 87.2756 99.6424 87.2756 98.8572C87.2756 97.6479 86.885 96.7029 86.1037 96.0283ZM85.4606 101.487C84.9201 102.023 84.133 102.29 83.0973 102.29C82.8566 102.29 82.6179 102.278 82.3812 102.256C82.1444 102.235 81.8603 102.205 81.5309 102.169C81.521 102.045 81.5131 101.895 81.5033 101.722C81.4934 101.548 81.4875 101.347 81.4835 101.118C81.4796 100.891 81.4776 100.633 81.4776 100.349V97.5631C81.4776 97.1172 81.4796 96.7759 81.4835 96.5392C81.4875 96.3025 81.4914 96.121 81.4974 95.9967C81.5013 95.8724 81.5033 95.76 81.5033 95.6613C81.7183 95.616 81.9235 95.5883 82.1188 95.5745C82.3141 95.5607 82.5035 95.5548 82.681 95.5548C83.2965 95.5548 83.8311 95.6416 84.2809 95.8172C84.7307 95.9908 85.1055 96.2393 85.3995 96.5609C85.6934 96.8825 85.9124 97.2711 86.0564 97.7268C86.1984 98.1825 86.2714 98.6915 86.2714 99.2537C86.2714 100.207 86.0012 100.952 85.4606 101.487Z" fill="black"/>
<path d="M94.8477 96.4366C94.8516 96.1683 94.8615 95.973 94.8753 95.8468C94.8891 95.7225 94.899 95.6456 94.9088 95.6199L95.7117 95.4463L95.6841 95.0182H93.2063L93.1787 95.4463L93.9816 95.6199C93.9895 95.6554 93.9974 95.7462 94.0013 95.8941C94.0053 96.0421 94.0112 96.2512 94.0152 96.5234C94.0191 96.7957 94.0211 97.1409 94.0211 97.5611V100.347C94.0211 100.757 94.0191 101.096 94.0152 101.365C94.0112 101.633 94.0053 101.84 94.0013 101.988C93.9974 102.136 93.9895 102.231 93.9816 102.276L93.1787 102.45L93.2063 102.878H95.6841L95.7117 102.45L94.9088 102.276C94.899 102.24 94.8891 102.162 94.8753 102.041C94.8615 101.921 94.8536 101.724 94.8477 101.451C94.8437 101.179 94.8417 100.81 94.8417 100.347V97.5611C94.8417 97.0797 94.8437 96.7049 94.8477 96.4366Z" fill="black"/>
<path d="M106.558 95.0182L106.53 95.4463L107.428 95.6199C107.436 95.6377 107.446 95.7087 107.456 95.8349C107.466 95.9612 107.473 96.1723 107.483 96.4702C107.491 96.77 107.497 97.204 107.497 97.7761V101.124L103.238 95.0162H101.537L101.51 95.4443L102.313 95.6179C102.33 95.6889 102.344 95.7896 102.352 95.9198C102.362 96.05 102.368 96.2433 102.372 96.5017C102.376 96.7602 102.378 97.1271 102.378 97.6005V100.145C102.378 100.718 102.374 101.152 102.364 101.451C102.354 101.751 102.346 101.956 102.336 102.067C102.327 102.179 102.319 102.248 102.309 102.274L101.506 102.448L101.533 102.876H103.972L103.999 102.448L103.102 102.274C103.102 102.246 103.096 102.173 103.082 102.053C103.068 101.933 103.054 101.722 103.043 101.424C103.029 101.124 103.023 100.698 103.023 100.145V96.2236L107.657 102.933H108.138C108.128 102.621 108.124 102.321 108.124 102.035C108.124 101.749 108.124 101.495 108.124 101.272V97.7761C108.124 97.2139 108.128 96.7799 108.138 96.4761C108.146 96.1723 108.158 95.9592 108.172 95.833C108.186 95.7087 108.192 95.6377 108.192 95.6179L108.994 95.4443L108.967 95.0162H106.558V95.0182Z" fill="black"/>
<path d="M121.663 99.7726L122.225 99.6384L122.197 99.2103H119.946L119.919 99.666L120.803 99.7864C120.82 99.9028 120.834 100.076 120.842 100.309C120.85 100.542 120.856 100.826 120.856 101.167V102.033C120.663 102.134 120.453 102.215 120.227 102.272C119.852 102.365 119.509 102.412 119.195 102.412C118.562 102.412 117.993 102.276 117.494 102.004C116.993 101.732 116.599 101.325 116.309 100.785C116.019 100.244 115.873 99.5773 115.873 98.7822C115.873 98.22 115.977 97.6854 116.188 97.1823C116.397 96.6773 116.735 96.269 117.2 95.9573C117.664 95.6456 118.281 95.4877 119.049 95.4877C119.335 95.4877 119.637 95.5193 119.952 95.5824C120.27 95.6456 120.509 95.7422 120.668 95.8764L121.043 97.0423L121.525 96.9752L121.418 95.3003C121.097 95.1662 120.726 95.0656 120.305 94.9985C119.885 94.9314 119.503 94.8979 119.153 94.8979C118.439 94.8979 117.812 95.0123 117.271 95.2392C116.731 95.466 116.281 95.7758 115.918 96.1624C115.557 96.5511 115.285 96.987 115.101 97.4684C114.918 97.9497 114.827 98.4508 114.827 98.9677C114.827 99.8692 115.02 100.621 115.409 101.219C115.798 101.816 116.321 102.262 116.975 102.558C117.632 102.852 118.352 103 119.14 103C119.55 103 119.998 102.933 120.479 102.799C120.96 102.665 121.367 102.487 121.698 102.262C121.688 102.067 121.681 101.854 121.671 101.627C121.661 101.4 121.657 101.084 121.657 100.682C121.657 100.424 121.657 100.214 121.657 100.059C121.663 99.9047 121.663 99.8081 121.663 99.7726Z" fill="black"/>
<path d="M140.487 102.049C140.247 102.166 140.014 102.252 139.791 102.31C139.568 102.367 139.3 102.396 138.988 102.396C138.408 102.396 137.877 102.26 137.4 101.988C136.923 101.716 136.542 101.311 136.262 100.777C135.98 100.24 135.84 99.5753 135.84 98.7803C135.84 98.218 135.942 97.6834 136.147 97.1804C136.352 96.6753 136.686 96.267 137.145 95.9553C137.605 95.6436 138.207 95.4858 138.947 95.4858C139.215 95.4858 139.507 95.5173 139.824 95.5805C140.142 95.6436 140.385 95.7402 140.554 95.8744L140.915 97.0797L141.411 97.0265L141.316 95.2983C140.977 95.1642 140.602 95.0636 140.191 94.9965C139.781 94.9294 139.406 94.8959 139.067 94.8959C138.361 94.8959 137.741 95.0103 137.205 95.2372C136.668 95.4641 136.222 95.7718 135.865 96.1545C135.508 96.5392 135.24 96.9732 135.062 97.4605C134.883 97.9478 134.794 98.4488 134.794 98.9677C134.794 99.8692 134.989 100.621 135.376 101.219C135.765 101.816 136.274 102.262 136.903 102.558C137.532 102.852 138.209 103 138.933 103C139.379 103 139.795 102.947 140.178 102.838C140.562 102.732 140.919 102.601 141.249 102.45L141.61 100.816L141.14 100.763L140.487 102.049Z" fill="black"/>
<path d="M152.953 95.4069C152.398 95.0675 151.761 94.8979 151.037 94.8979C150.287 94.8979 149.615 95.0735 149.021 95.4266C148.427 95.7797 147.96 96.2611 147.62 96.8726C147.281 97.4842 147.111 98.1786 147.111 98.9559C147.111 99.7509 147.277 100.455 147.606 101.065C147.936 101.676 148.392 102.152 148.972 102.491C149.552 102.83 150.222 103 150.98 103C151.534 103 152.037 102.893 152.493 102.678C152.949 102.463 153.341 102.168 153.673 101.787C154.004 101.408 154.261 100.972 154.442 100.481C154.626 99.9896 154.716 99.4668 154.716 98.9144C154.716 98.1194 154.56 97.421 154.247 96.8174C153.939 96.2157 153.507 95.7462 152.953 95.4069ZM153.4 100.899C153.182 101.38 152.878 101.755 152.489 102.018C152.1 102.282 151.647 102.412 151.13 102.412C150.558 102.412 150.047 102.256 149.595 101.943C149.143 101.631 148.792 101.199 148.538 100.65C148.283 100.102 148.157 99.4747 148.157 98.7684C148.157 97.7505 148.4 96.9456 148.887 96.3498C149.374 95.756 150.037 95.4601 150.875 95.4601C151.438 95.4601 151.933 95.6199 152.363 95.9415C152.791 96.263 153.126 96.7049 153.367 97.2672C153.608 97.8294 153.728 98.4824 153.728 99.2222C153.73 99.8574 153.619 100.416 153.4 100.899Z" fill="black"/>
<path d="M169.425 101.856C169.415 101.682 169.409 101.445 169.405 101.146C169.401 100.846 169.394 100.455 169.386 99.9738L169.358 97.4822C169.348 97.1429 169.344 96.7858 169.344 96.411C169.344 96.0362 169.348 95.7679 169.358 95.6081L170.161 95.4463L170.133 95.0182H168.271L165.472 101.487L162.726 95.0182H160.662L160.635 95.4463L161.437 95.6199C161.445 95.8073 161.453 96.0815 161.457 96.4445C161.461 96.8055 161.459 97.1468 161.451 97.4684L161.412 100.161C161.412 100.607 161.408 100.974 161.398 101.26C161.388 101.546 161.382 101.769 161.378 101.931C161.374 102.091 161.366 102.207 161.359 102.28L160.461 102.454L160.489 102.882H162.98L163.008 102.454L162.11 102.28C162.1 102.181 162.094 101.956 162.09 101.603C162.086 101.25 162.085 100.686 162.085 99.9087V95.6653L165.166 102.923H165.448L168.504 95.8961L168.528 100.272C168.537 100.727 168.541 101.075 168.541 101.317C168.541 101.56 168.541 101.743 168.541 101.874C168.541 102.004 168.537 102.144 168.528 102.296L167.736 102.456L167.764 102.884H170.216L170.244 102.456L169.441 102.296C169.437 102.175 169.433 102.029 169.425 101.856Z" fill="black"/>
<path d="M180.599 95.6002C180.13 95.2116 179.503 95.0182 178.717 95.0182H176.133L176.105 95.4463L176.908 95.6613C176.918 95.6791 176.924 95.7324 176.928 95.8231C176.932 95.9119 176.94 96.0796 176.948 96.3262C176.958 96.5708 176.962 96.9397 176.962 97.4309L176.948 100.418C176.948 100.927 176.946 101.307 176.942 101.564C176.938 101.818 176.932 101.992 176.928 102.087C176.924 102.181 176.916 102.244 176.908 102.282L176.145 102.456L176.173 102.884H178.905L178.932 102.428L177.808 102.254C177.808 102.209 177.804 102.144 177.794 102.053C177.784 101.964 177.778 101.797 177.774 101.55C177.77 101.305 177.769 100.927 177.769 100.418L177.765 99.5674C177.857 99.5812 177.954 99.595 178.057 99.6069C178.24 99.6286 178.443 99.6404 178.666 99.6404C179.112 99.6404 179.536 99.5457 179.939 99.3583C180.341 99.1709 180.668 98.9006 180.923 98.5475C181.177 98.1944 181.304 97.7682 181.304 97.2691C181.302 96.5451 181.067 95.9888 180.599 95.6002ZM179.956 98.6875C179.631 98.946 179.181 99.0762 178.611 99.0762C178.467 99.0762 178.317 99.0643 178.155 99.0426C178.045 99.0269 177.909 98.9992 177.761 98.9657L177.755 97.4289C177.755 97.1606 177.757 96.8904 177.761 96.6181C177.765 96.3459 177.77 96.1092 177.774 95.9079C177.778 95.7067 177.78 95.5805 177.78 95.5272H178.65C179.149 95.5272 179.576 95.6811 179.923 95.9888C180.27 96.2966 180.446 96.7779 180.446 97.4289C180.444 98.0089 180.282 98.4291 179.956 98.6875Z" fill="black"/>
<path d="M190.044 94.7775L189.429 95.1662L186.669 102.28L186.012 102.454L186.039 102.882H188.128L188.156 102.454L187.353 102.28L188.061 100.305C188.373 100.299 188.655 100.293 188.906 100.291C189.227 100.287 189.503 100.285 189.736 100.285C189.977 100.285 190.263 100.287 190.594 100.291C190.8 100.293 191.015 100.297 191.238 100.303L192.001 102.282L191.198 102.456L191.226 102.884H193.516L193.544 102.456L192.887 102.282L190.044 94.7775ZM189.736 99.7331C189.273 99.7331 188.874 99.7291 188.545 99.7193C188.448 99.7173 188.361 99.7134 188.278 99.7114L189.596 96.1229L191.015 99.7173C190.981 99.7173 190.952 99.7193 190.916 99.7193C190.585 99.7291 190.19 99.7331 189.736 99.7331Z" fill="black"/>
<path d="M203.755 95.0182L203.728 95.4463L204.625 95.6199C204.633 95.6377 204.643 95.7087 204.653 95.8349C204.661 95.9592 204.671 96.1723 204.681 96.4702C204.69 96.77 204.694 97.204 204.694 97.7761V101.124L200.435 95.0162H198.735L198.707 95.4443L199.51 95.6179C199.528 95.6889 199.542 95.7896 199.549 95.9198C199.559 96.05 199.565 96.2433 199.569 96.5017C199.573 96.7602 199.575 97.1271 199.575 97.6005V100.145C199.575 100.718 199.571 101.152 199.561 101.451C199.551 101.751 199.544 101.956 199.534 102.067C199.524 102.179 199.516 102.248 199.506 102.274L198.703 102.448L198.731 102.876H201.169L201.197 102.448L200.299 102.274C200.299 102.246 200.293 102.173 200.279 102.053C200.266 101.933 200.252 101.722 200.24 101.424C200.226 101.124 200.22 100.698 200.22 100.145V96.2236L204.854 102.933H205.338C205.328 102.621 205.324 102.321 205.324 102.035C205.324 101.749 205.324 101.495 205.324 101.272V97.7761C205.324 97.2139 205.328 96.7799 205.338 96.4761C205.345 96.1723 205.357 95.9592 205.371 95.833C205.385 95.7067 205.391 95.6377 205.391 95.6179L206.194 95.4443L206.166 95.0162H203.755V95.0182Z" fill="black"/>
<path d="M215.915 95.0182L215.888 95.4463L216.825 95.6199L214.901 98.8039L212.859 95.6199L213.662 95.4463L213.635 95.0182H211.21L211.196 95.4463L211.865 95.6199L214.317 99.4392V100.268C214.317 100.688 214.315 101.025 214.311 101.28C214.307 101.534 214.301 101.728 214.297 101.862C214.294 101.996 214.286 102.093 214.278 102.15C214.268 102.207 214.264 102.25 214.264 102.276L213.327 102.436L213.354 102.878H216.073L216.101 102.436L215.164 102.276C215.164 102.248 215.162 102.207 215.158 102.15C215.154 102.093 215.148 101.996 215.144 101.862C215.14 101.728 215.134 101.534 215.13 101.28C215.126 101.025 215.124 100.688 215.124 100.268V99.4056L217.602 95.6199L218.273 95.4463L218.259 95.0182H215.915V95.0182Z" fill="black"/>
<path d="M72.362 27.7413C70.7522 27.7413 69.4482 29.0453 69.4482 30.655V37.6425H75.2777V30.655C75.2758 29.0472 73.9718 27.7413 72.362 27.7413Z" fill="black"/>
<path d="M169.483 24.8275C167.068 24.8275 165.111 26.7845 165.111 29.1991V37.6425H173.855V29.1991C173.855 26.7845 171.898 24.8275 169.483 24.8275Z" fill="black"/>
<path d="M135.71 25.804H135.693C135.444 22.0045 132.286 19 128.425 19C124.562 19 121.404 22.0045 121.157 25.804H121.14V37.6445H135.712V25.804H135.71Z" fill="black"/>
<path d="M156.759 27.7413C156.759 24.5218 154.149 21.9118 150.929 21.9118C147.71 21.9118 145.1 24.5218 145.1 27.7413V37.6426H156.757V27.7413H156.759Z" fill="black"/>
<path d="M187.306 30.657C187.306 29.0472 186.002 27.7433 184.392 27.7433C182.783 27.7433 181.479 29.0472 181.479 30.657V37.6445H187.308V30.657H187.306Z" fill="black"/>
<path d="M111.653 27.7413C111.653 24.5218 109.043 21.9118 105.824 21.9118C102.604 21.9118 99.9941 24.5218 99.9941 27.7413V37.6426H111.651V27.7413H111.653Z" fill="black"/>
<path d="M91.6437 29.1991C91.6437 26.7845 89.6867 24.8275 87.272 24.8275C84.8574 24.8275 82.9004 26.7845 82.9004 29.1991V37.6425H91.6437V29.1991Z" fill="black"/>
</svg>
