<svg width="227" height="122" viewBox="0 0 227 122" fill="none" xmlns="http://www.w3.org/2000/svg">
<g clip-path="url(#clip0)">
<path d="M15.606 61.068L9.588 67.188V78H5.508V44.34H9.588V61.68L26.52 44.34H31.875L18.462 58.059L32.028 78H27.132L15.606 61.068ZM43.0568 78H38.9768V44.34H43.0568V78ZM80.4856 78H75.4366L61.3606 55.458L57.7906 48.828H57.7396L57.9436 54.234V78H54.0676V44.34H59.1166L73.1416 66.78L76.7626 73.512H76.8136L76.6096 68.106V44.34H80.4856V78ZM102.384 44.34C107.688 44.34 111.836 45.802 114.828 48.726C117.82 51.65 119.316 55.798 119.316 61.17C119.316 66.542 117.82 70.69 114.828 73.614C111.836 76.538 107.688 78 102.384 78H91.5207V44.34H102.384ZM102.792 74.175C106.634 74.175 109.626 73.036 111.768 70.758C113.944 68.446 115.032 65.25 115.032 61.17C115.032 57.09 113.944 53.911 111.768 51.633C109.626 49.321 106.634 48.165 102.792 48.165H95.6007V74.175H102.792ZM140.415 64.026H132.357V78H128.277V44.34H141.027C144.461 44.34 147.215 45.224 149.289 46.992C151.363 48.76 152.4 51.157 152.4 54.183C152.4 56.563 151.737 58.569 150.411 60.201C149.085 61.833 147.266 62.955 144.954 63.567L154.44 78H149.595L140.415 64.026ZM132.357 60.201H140.976C145.736 60.201 148.116 58.195 148.116 54.183C148.116 50.171 145.736 48.165 140.976 48.165H132.357V60.201ZM186.572 74.175V78H162.194V44.34H185.807V48.165H166.274V59.028H181.472V62.853H166.274V74.175H186.572ZM205.579 44.34C210.883 44.34 215.031 45.802 218.023 48.726C221.015 51.65 222.511 55.798 222.511 61.17C222.511 66.542 221.015 70.69 218.023 73.614C215.031 76.538 210.883 78 205.579 78H194.716V44.34H205.579ZM205.987 74.175C209.829 74.175 212.821 73.036 214.963 70.758C217.139 68.446 218.227 65.25 218.227 61.17C218.227 57.09 217.139 53.911 214.963 51.633C212.821 49.321 209.829 48.165 205.987 48.165H198.796V74.175H205.987Z" fill="#9BAABB"/>
</g>
<defs>
<clipPath id="clip0">
<rect width="227" height="122" fill="white"/>
</clipPath>
</defs>
</svg>
