<svg width="306" height="122" viewBox="0 0 306 122" fill="none" xmlns="http://www.w3.org/2000/svg">
<path d="M119.617 83C119.141 83 118.716 82.847 118.342 82.541C118.002 82.235 117.764 81.844 117.628 81.368L107.173 46.025C106.935 45.209 106.969 44.529 107.275 43.985C107.615 43.441 108.142 43.169 108.856 43.169C109.264 43.169 109.638 43.288 109.978 43.526C110.352 43.73 110.624 44.121 110.794 44.699L120.229 77.543H119.056L127.981 45.566C128.083 45.192 128.304 44.886 128.644 44.648C129.018 44.41 129.426 44.291 129.868 44.291C130.276 44.291 130.667 44.41 131.041 44.648C131.415 44.852 131.653 45.175 131.755 45.617L140.731 77.543H139.558L149.044 44.495C149.282 43.611 149.928 43.169 150.982 43.169C151.696 43.169 152.189 43.458 152.461 44.036C152.733 44.58 152.767 45.243 152.563 46.025L142.159 81.317C141.989 81.861 141.717 82.286 141.343 82.592C141.003 82.864 140.595 83 140.119 83C139.643 83 139.218 82.847 138.844 82.541C138.504 82.235 138.266 81.844 138.13 81.368L129.256 48.983H130.48L121.657 81.317C121.487 81.827 121.215 82.235 120.841 82.541C120.501 82.847 120.093 83 119.617 83ZM167.479 83C167.003 83 166.578 82.847 166.204 82.541C165.864 82.235 165.626 81.844 165.49 81.368L155.035 46.025C154.797 45.209 154.831 44.529 155.137 43.985C155.477 43.441 156.004 43.169 156.718 43.169C157.126 43.169 157.5 43.288 157.84 43.526C158.214 43.73 158.486 44.121 158.656 44.699L168.091 77.543H166.918L175.843 45.566C175.945 45.192 176.166 44.886 176.506 44.648C176.88 44.41 177.288 44.291 177.73 44.291C178.138 44.291 178.529 44.41 178.903 44.648C179.277 44.852 179.515 45.175 179.617 45.617L188.593 77.543H187.42L196.906 44.495C197.144 43.611 197.79 43.169 198.844 43.169C199.558 43.169 200.051 43.458 200.323 44.036C200.595 44.58 200.629 45.243 200.425 46.025L190.021 81.317C189.851 81.861 189.579 82.286 189.205 82.592C188.865 82.864 188.457 83 187.981 83C187.505 83 187.08 82.847 186.706 82.541C186.366 82.235 186.128 81.844 185.992 81.368L177.118 48.983H178.342L169.519 81.317C169.349 81.827 169.077 82.235 168.703 82.541C168.363 82.847 167.955 83 167.479 83ZM205.652 83C205.108 83 204.632 82.813 204.224 82.439C203.85 82.031 203.663 81.555 203.663 81.011V45.158C203.663 44.58 203.85 44.104 204.224 43.73C204.598 43.356 205.074 43.169 205.652 43.169H229.571C230.149 43.169 230.625 43.356 230.999 43.73C231.373 44.07 231.56 44.529 231.56 45.107C231.56 45.617 231.373 46.059 230.999 46.433C230.625 46.807 230.149 46.994 229.571 46.994H207.641V61.07H223.604C224.182 61.07 224.658 61.257 225.032 61.631C225.406 62.005 225.593 62.464 225.593 63.008C225.593 63.552 225.406 64.011 225.032 64.385C224.658 64.759 224.182 64.946 223.604 64.946H207.641V81.011C207.641 81.555 207.454 82.031 207.08 82.439C206.706 82.813 206.23 83 205.652 83ZM237.527 83C236.983 83 236.507 82.813 236.099 82.439C235.725 82.031 235.538 81.555 235.538 81.011V45.158C235.538 44.58 235.725 44.104 236.099 43.73C236.473 43.356 236.949 43.169 237.527 43.169H261.446C262.024 43.169 262.5 43.356 262.874 43.73C263.248 44.07 263.435 44.529 263.435 45.107C263.435 45.617 263.248 46.059 262.874 46.433C262.5 46.807 262.024 46.994 261.446 46.994H239.516V61.07H255.479C256.057 61.07 256.533 61.257 256.907 61.631C257.281 62.005 257.468 62.464 257.468 63.008C257.468 63.552 257.281 64.011 256.907 64.385C256.533 64.759 256.057 64.946 255.479 64.946H239.516V81.011C239.516 81.555 239.329 82.031 238.955 82.439C238.581 82.813 238.105 83 237.527 83ZM272.819 83C272.173 83 271.629 82.83 271.187 82.49C270.779 82.116 270.575 81.623 270.575 81.011V45.158C270.575 44.58 270.762 44.104 271.136 43.73C271.51 43.356 271.986 43.169 272.564 43.169H284.957C286.997 43.169 288.833 43.611 290.465 44.495C292.131 45.345 293.44 46.518 294.392 48.014C295.378 49.51 295.871 51.244 295.871 53.216C295.871 55.052 295.378 56.684 294.392 58.112C293.406 59.54 292.114 60.628 290.516 61.376C292.794 61.988 294.63 63.144 296.024 64.844C297.418 66.51 298.115 68.635 298.115 71.219C298.115 73.531 297.588 75.571 296.534 77.339C295.48 79.107 294.018 80.501 292.148 81.521C290.312 82.507 288.204 83 285.824 83H272.819ZM274.553 79.175H285.824C287.456 79.175 288.901 78.852 290.159 78.206C291.417 77.56 292.403 76.642 293.117 75.452C293.831 74.262 294.188 72.851 294.188 71.219C294.188 69.689 293.831 68.363 293.117 67.241C292.403 66.085 291.417 65.201 290.159 64.589C288.901 63.943 287.456 63.62 285.824 63.62H274.553V79.175ZM274.553 59.795H284.957C286.997 59.795 288.68 59.217 290.006 58.061C291.332 56.905 291.995 55.29 291.995 53.216C291.995 51.176 291.332 49.629 290.006 48.575C288.68 47.521 286.997 46.994 284.957 46.994H274.553V59.795Z" fill="#9BAABB"/>
<path fill-rule="evenodd" clip-rule="evenodd" d="M87.9901 62.4053C87.9967 62.1043 88 61.8025 88 61.5C88 61.0112 87.9913 60.5244 87.9742 60.0398C87.3455 60.6455 86.6048 61.1616 85.752 61.588C86.5619 61.7843 87.3079 62.0568 87.9901 62.4053ZM83.1056 80.8163C82.3358 80.9388 81.5312 81 80.692 81H68.732C68.0573 81 67.49 80.77 67.03 80.31C66.57 79.85 66.34 79.2827 66.34 78.608V47.466C66.34 46.7607 66.57 46.1933 67.03 45.764C67.49 45.304 68.0573 45.074 68.732 45.074H79.726C81.7317 45.074 83.4963 45.457 85.0197 46.223C78.9895 31.428 64.4625 21 47.5 21C30.948 21 16.7152 30.9293 10.433 45.1564C10.6405 45.1015 10.8609 45.074 11.094 45.074H31.886C32.5913 45.074 33.1587 45.2887 33.588 45.718C34.0173 46.1167 34.232 46.6533 34.232 47.328C34.232 47.972 34.0173 48.4933 33.588 48.892C33.1587 49.2907 32.5913 49.49 31.886 49.49H13.486V60.668H26.688C27.3933 60.668 27.9607 60.8827 28.39 61.312C28.8193 61.7107 29.034 62.232 29.034 62.876C29.034 63.52 28.8193 64.0567 28.39 64.486C27.9607 64.8847 27.3933 65.084 26.688 65.084H13.486V78.608C13.486 79.2827 13.256 79.85 12.796 80.31C12.5383 80.5677 12.2469 80.7532 11.9218 80.8666C18.7901 93.4576 32.1474 102 47.5 102C62.873 102 76.2455 93.4348 83.1056 80.8163ZM87.4979 67.8954C87.1027 70.3868 86.4803 72.8026 85.6525 75.1209C84.3335 76.0963 82.6799 76.584 80.692 76.584H71.124V64.256H80.692C82.7773 64.256 84.4947 64.7467 85.844 65.728C86.6163 66.2897 87.1676 67.0122 87.4979 67.8954ZM8.702 73.1546C7.59486 69.4637 7 65.5513 7 61.5C7 57.4487 7.59486 53.5363 8.702 49.8454V73.1546ZM36.762 80.31C37.222 80.77 37.7893 81 38.464 81C39.1387 81 39.706 80.77 40.166 80.31C40.626 79.85 40.856 79.2827 40.856 78.608V65.084H54.058C54.7633 65.084 55.3307 64.8847 55.76 64.486C56.1893 64.0567 56.404 63.52 56.404 62.876C56.404 62.232 56.1893 61.7107 55.76 61.312C55.3307 60.8827 54.7633 60.668 54.058 60.668H40.856V49.49H59.256C59.9613 49.49 60.5287 49.2907 60.958 48.892C61.3873 48.4933 61.602 47.972 61.602 47.328C61.602 46.6533 61.3873 46.1167 60.958 45.718C60.5287 45.2887 59.9613 45.074 59.256 45.074H38.464C37.7893 45.074 37.222 45.304 36.762 45.764C36.302 46.1933 36.072 46.7607 36.072 47.466V78.608C36.072 79.2827 36.302 79.85 36.762 80.31ZM79.726 59.84H71.124V49.49H79.726C81.474 49.49 82.9 49.9193 84.004 50.778C85.1387 51.606 85.706 52.894 85.706 54.642C85.706 56.39 85.1387 57.6933 84.004 58.552C82.9 59.4107 81.474 59.84 79.726 59.84Z" fill="#9BAABB"/>
</svg>
