<svg width="361" height="122" viewBox="0 0 361 122" fill="none" xmlns="http://www.w3.org/2000/svg">
<path fill-rule="evenodd" clip-rule="evenodd" d="M30.5 83.5C29.3014 83.5 28.1309 83.3795 27 83.1499L27 60.5L47.1182 60.5C47.6904 62.2296 48 64.0786 48 66C48 75.665 40.165 83.5 30.5 83.5ZM44.5013 55.5L27 55.5V48.8501C28.1309 48.6205 29.3014 48.5 30.5 48.5C36.2254 48.5 41.3086 51.2494 44.5013 55.5ZM22 55.5V50.6993C19.8458 51.8986 17.9712 53.5397 16.4987 55.5L22 55.5ZM13.8818 60.5C13.3096 62.2296 13 64.0786 13 66C13 72.5801 16.6317 78.312 22 81.3007L22 60.5H13.8818Z" fill="#B51F2C"/>
<path fill-rule="evenodd" clip-rule="evenodd" d="M30.5 92C29.3135 92 28.1452 91.922 27 91.7709V86.7165C28.139 86.903 29.3082 87 30.5 87C42.3741 87 52 77.3741 52 65.5C52 63.7786 51.7977 62.1044 51.4156 60.5H56.529C56.8382 62.1192 57 63.7907 57 65.5C57 80.1355 45.1355 92 30.5 92ZM55.0483 55.5C51.1017 45.8214 41.5974 39 30.5 39C29.3135 39 28.1452 39.078 27 39.2291V44.2835C28.139 44.097 29.3082 44 30.5 44C38.7638 44 45.9387 48.6623 49.5378 55.5H55.0483ZM11.4622 55.5C13.7464 51.1604 17.4709 47.697 22 45.7456V40.3926C14.7089 42.8601 8.841 48.4144 5.95167 55.5L11.4622 55.5ZM9.58444 60.5L4.47101 60.5C4.16183 62.1192 4 63.7907 4 65.5C4 77.1624 11.5337 87.0653 22 90.6074V85.2544C14.3532 81.9597 9 74.355 9 65.5C9 63.7786 9.2023 62.1044 9.58444 60.5Z" fill="#B51F2C"/>
<path d="M95.548 76H88V75.014C88.816 74.6513 89.632 74.3793 90.448 74.198L99.05 51.792H100.036L108.638 74.198C109.091 74.2887 109.533 74.3907 109.964 74.504C110.417 74.6173 110.837 74.7873 111.222 75.014V76H102.518V75.014C102.971 74.8327 103.436 74.674 103.912 74.538C104.388 74.402 104.853 74.2887 105.306 74.198L102.994 67.976H94.868L92.624 74.198C93.576 74.334 94.5507 74.606 95.548 75.014V76ZM95.548 66.208H102.416L99.73 59L99.084 56.076H99.016L98.166 59.068L95.548 66.208ZM119.947 74.198C120.468 74.3113 120.967 74.436 121.443 74.572C121.919 74.6853 122.384 74.8327 122.837 75.014V76H113.895V75.014C114.394 74.7873 114.87 74.6173 115.323 74.504C115.776 74.3907 116.23 74.2887 116.683 74.198V54.036C116.094 53.9227 115.572 53.798 115.119 53.662C114.666 53.5033 114.258 53.3447 113.895 53.186V52.2H116.887C117.794 52.2 118.78 52.1547 119.845 52.064C120.933 51.9733 121.987 51.928 123.007 51.928C124.118 51.928 125.149 52.0527 126.101 52.302C127.076 52.5513 127.914 52.948 128.617 53.492C129.32 54.036 129.864 54.7273 130.249 55.566C130.657 56.4047 130.861 57.4133 130.861 58.592C130.861 60.2467 130.419 61.618 129.535 62.706C128.674 63.794 127.495 64.576 125.999 65.052C126.974 66.5933 127.994 68.1233 129.059 69.642C130.124 71.1607 131.235 72.668 132.391 74.164L134.227 75.15V76H130.113L128.821 75.048C128.186 74.2547 127.608 73.484 127.087 72.736C126.566 71.9653 126.078 71.1947 125.625 70.424C125.172 69.6307 124.741 68.8373 124.333 68.044C123.948 67.228 123.551 66.3667 123.143 65.46H119.947V74.198ZM122.259 53.696C121.715 53.696 121.262 53.7073 120.899 53.73C120.559 53.7527 120.242 53.798 119.947 53.866V64.032H122.395C123.959 64.032 125.194 63.5333 126.101 62.536C127.03 61.5387 127.495 60.224 127.495 58.592C127.495 56.9147 127.008 55.6793 126.033 54.886C125.058 54.0927 123.8 53.696 122.259 53.696ZM155.901 74.368C155.47 74.6173 154.96 74.8667 154.371 75.116C153.804 75.3427 153.192 75.558 152.535 75.762C151.9 75.9433 151.254 76.0907 150.597 76.204C149.962 76.34 149.362 76.408 148.795 76.408C146.982 76.408 145.35 76.17 143.899 75.694C142.448 75.1953 141.213 74.4473 140.193 73.45C139.173 72.43 138.38 71.1493 137.813 69.608C137.269 68.0667 136.997 66.2307 136.997 64.1C136.997 61.8787 137.314 59.986 137.949 58.422C138.606 56.858 139.468 55.5887 140.533 54.614C141.621 53.6167 142.845 52.9027 144.205 52.472C145.588 52.0187 146.993 51.792 148.421 51.792C149.917 51.792 151.175 51.894 152.195 52.098C153.238 52.2793 154.144 52.5627 154.915 52.948C154.915 53.288 154.904 53.7073 154.881 54.206C154.858 54.7047 154.824 55.226 154.779 55.77C154.734 56.314 154.677 56.858 154.609 57.402C154.541 57.9233 154.473 58.388 154.405 58.796H153.521L151.753 53.9C151.504 53.764 151.084 53.6733 150.495 53.628C149.906 53.5827 149.328 53.56 148.761 53.56C147.628 53.56 146.551 53.7753 145.531 54.206C144.511 54.614 143.616 55.26 142.845 56.144C142.097 57.0053 141.496 58.1047 141.043 59.442C140.59 60.7567 140.363 62.3093 140.363 64.1C140.363 65.7093 140.578 67.16 141.009 68.452C141.462 69.744 142.074 70.8547 142.845 71.784C143.638 72.6907 144.556 73.3933 145.599 73.892C146.664 74.3907 147.809 74.64 149.033 74.64C149.486 74.64 149.928 74.5947 150.359 74.504C150.79 74.4133 151.186 74.3113 151.549 74.198C151.912 74.062 152.206 73.926 152.433 73.79C152.682 73.654 152.852 73.5407 152.943 73.45V66.582C152.354 66.5367 151.787 66.4347 151.243 66.276C150.722 66.1173 150.2 65.9473 149.679 65.766V64.78H158.009V65.766C157.782 65.9247 157.51 66.072 157.193 66.208C156.876 66.344 156.445 66.4687 155.901 66.582V74.368ZM177.405 52.2C177.382 53.1067 177.337 54.0247 177.269 54.954C177.224 55.8607 177.144 56.7787 177.031 57.708H176.147L174.753 53.968H167.341V62.978H172.883L174.209 60.462H175.059C175.195 62.706 175.195 64.9953 175.059 67.33H174.209L172.883 64.746H167.341V74.232H175.161L176.827 70.152H177.677C177.836 71.104 177.949 72.0673 178.017 73.042C178.085 74.0167 178.096 75.0027 178.051 76H161.289V75.014C162.082 74.6513 163.012 74.3793 164.077 74.198V54.036C163.624 53.9453 163.159 53.832 162.683 53.696C162.207 53.5373 161.742 53.3673 161.289 53.186V52.2H177.405ZM197.092 76H187.538V75.014C188.037 74.8327 188.536 74.674 189.034 74.538C189.556 74.402 190.111 74.2887 190.7 74.198V53.968H185.498L183.696 58.83H182.846C182.778 58.3767 182.722 57.8667 182.676 57.3C182.631 56.7107 182.586 56.1213 182.54 55.532C182.518 54.92 182.495 54.3307 182.472 53.764C182.45 53.1747 182.438 52.6533 182.438 52.2H202.192C202.192 52.6533 202.181 53.1633 202.158 53.73C202.136 54.2967 202.102 54.886 202.056 55.498C202.034 56.0873 202 56.6767 201.954 57.266C201.932 57.8327 201.886 58.354 201.818 58.83H200.934L199.166 53.968H193.964V74.198C194.554 74.3113 195.098 74.4247 195.596 74.538C196.118 74.6513 196.616 74.81 197.092 75.014V76ZM236.82 45.9C236.791 47.0467 236.734 48.2077 236.648 49.383C236.59 50.5297 236.49 51.6907 236.347 52.866H235.229L233.466 48.136H224.092V59.531H231.101L232.778 56.349H233.853C234.025 59.187 234.025 62.0823 233.853 65.035H232.778L231.101 61.767H224.092V73.764H233.982L236.089 68.604H237.164C237.364 69.808 237.508 71.0263 237.594 72.259C237.68 73.4917 237.694 74.7387 237.637 76H216.438V74.753C217.441 74.2943 218.616 73.9503 219.964 73.721V48.222C219.39 48.1073 218.803 47.964 218.201 47.792C217.599 47.5913 217.011 47.3763 216.438 47.147V45.9H236.82Z" fill="black"/>
<path d="M244.1 73.654C244.372 73.926 244.723 74.164 245.154 74.368C245.585 74.5493 246.231 74.64 247.092 74.64C247.817 74.64 248.497 74.5493 249.132 74.368C249.767 74.164 250.311 73.8807 250.764 73.518C251.24 73.1327 251.614 72.6793 251.886 72.158C252.158 71.614 252.294 71.002 252.294 70.322C252.294 69.4153 252.011 68.656 251.444 68.044C250.9 67.432 250.209 66.888 249.37 66.412C248.554 65.936 247.659 65.4713 246.684 65.018C245.709 64.5647 244.803 64.032 243.964 63.42C243.148 62.7853 242.457 62.0373 241.89 61.176C241.346 60.292 241.074 59.1927 241.074 57.878C241.074 56.926 241.244 56.076 241.584 55.328C241.924 54.58 242.4 53.9453 243.012 53.424C243.647 52.9027 244.395 52.506 245.256 52.234C246.117 51.9393 247.081 51.792 248.146 51.792C249.529 51.792 250.787 51.9053 251.92 52.132C253.076 52.336 253.983 52.5967 254.64 52.914C254.64 53.2993 254.606 53.7527 254.538 54.274C254.493 54.7727 254.425 55.294 254.334 55.838C254.266 56.382 254.187 56.9147 254.096 57.436C254.005 57.9347 253.915 58.3767 253.824 58.762H252.94L251.58 54.104C251.172 53.9227 250.651 53.7867 250.016 53.696C249.404 53.6053 248.747 53.56 248.044 53.56C246.888 53.56 245.959 53.8887 245.256 54.546C244.553 55.1807 244.202 56.076 244.202 57.232C244.202 58.1613 244.474 58.9433 245.018 59.578C245.585 60.2127 246.287 60.7793 247.126 61.278C247.965 61.7767 248.86 62.264 249.812 62.74C250.787 63.1933 251.693 63.726 252.532 64.338C253.371 64.95 254.062 65.6753 254.606 66.514C255.173 67.3527 255.456 68.3953 255.456 69.642C255.456 70.662 255.263 71.5913 254.878 72.43C254.515 73.2687 253.983 73.9827 253.28 74.572C252.577 75.1613 251.716 75.6147 250.696 75.932C249.676 76.2493 248.52 76.408 247.228 76.408C245.8 76.408 244.519 76.238 243.386 75.898C242.253 75.558 241.448 75.1953 240.972 74.81C240.995 74.4247 241.029 73.96 241.074 73.416C241.142 72.872 241.21 72.3167 241.278 71.75C241.369 71.1607 241.459 70.594 241.55 70.05C241.641 69.506 241.731 69.0413 241.822 68.656H242.706L244.1 73.654ZM273.209 76H263.655V75.014C264.153 74.8327 264.652 74.674 265.151 74.538C265.672 74.402 266.227 74.2887 266.817 74.198V53.968H261.615L259.813 58.83H258.963C258.895 58.3767 258.838 57.8667 258.793 57.3C258.747 56.7107 258.702 56.1213 258.657 55.532C258.634 54.92 258.611 54.3307 258.589 53.764C258.566 53.1747 258.555 52.6533 258.555 52.2H278.309C278.309 52.6533 278.297 53.1633 278.275 53.73C278.252 54.2967 278.218 54.886 278.173 55.498C278.15 56.0873 278.116 56.6767 278.071 57.266C278.048 57.8327 278.003 58.354 277.935 58.83H277.051L275.283 53.968H270.081V74.198C270.67 74.3113 271.214 74.4247 271.713 74.538C272.234 74.6513 272.733 74.81 273.209 75.014V76ZM284.431 76H276.883V75.014C277.699 74.6513 278.515 74.3793 279.331 74.198L287.933 51.792H288.919L297.521 74.198C297.975 74.2887 298.417 74.3907 298.847 74.504C299.301 74.6173 299.72 74.7873 300.105 75.014V76H291.401V75.014C291.855 74.8327 292.319 74.674 292.795 74.538C293.271 74.402 293.736 74.2887 294.189 74.198L291.877 67.976H283.751L281.507 74.198C282.459 74.334 283.434 74.606 284.431 75.014V76ZM284.431 66.208H291.299L288.613 59L287.967 56.076H287.899L287.049 59.068L284.431 66.208ZM313.317 76H303.763V75.014C304.261 74.8327 304.76 74.674 305.259 74.538C305.78 74.402 306.335 74.2887 306.925 74.198V53.968H301.723L299.921 58.83H299.071C299.003 58.3767 298.946 57.8667 298.901 57.3C298.855 56.7107 298.81 56.1213 298.765 55.532C298.742 54.92 298.719 54.3307 298.697 53.764C298.674 53.1747 298.663 52.6533 298.663 52.2H318.417C318.417 52.6533 318.405 53.1633 318.383 53.73C318.36 54.2967 318.326 54.886 318.281 55.498C318.258 56.0873 318.224 56.6767 318.179 57.266C318.156 57.8327 318.111 58.354 318.043 58.83H317.159L315.391 53.968H310.189V74.198C310.778 74.3113 311.322 74.4247 311.821 74.538C312.342 74.6513 312.841 74.81 313.317 75.014V76ZM336.849 52.2C336.827 53.1067 336.781 54.0247 336.713 54.954C336.668 55.8607 336.589 56.7787 336.475 57.708H335.591L334.197 53.968H326.785V62.978H332.327L333.653 60.462H334.503C334.639 62.706 334.639 64.9953 334.503 67.33H333.653L332.327 64.746H326.785V74.232H334.605L336.271 70.152H337.121C337.28 71.104 337.393 72.0673 337.461 73.042C337.529 74.0167 337.541 75.0027 337.495 76H320.733V75.014C321.527 74.6513 322.456 74.3793 323.521 74.198V54.036C323.068 53.9453 322.603 53.832 322.127 53.696C321.651 53.5373 321.187 53.3673 320.733 53.186V52.2H336.849ZM345.316 73.654C345.588 73.926 345.94 74.164 346.37 74.368C346.801 74.5493 347.447 74.64 348.308 74.64C349.034 74.64 349.714 74.5493 350.348 74.368C350.983 74.164 351.527 73.8807 351.98 73.518C352.456 73.1327 352.83 72.6793 353.102 72.158C353.374 71.614 353.51 71.002 353.51 70.322C353.51 69.4153 353.227 68.656 352.66 68.044C352.116 67.432 351.425 66.888 350.586 66.412C349.77 65.936 348.875 65.4713 347.9 65.018C346.926 64.5647 346.019 64.032 345.18 63.42C344.364 62.7853 343.673 62.0373 343.106 61.176C342.562 60.292 342.29 59.1927 342.29 57.878C342.29 56.926 342.46 56.076 342.8 55.328C343.14 54.58 343.616 53.9453 344.228 53.424C344.863 52.9027 345.611 52.506 346.472 52.234C347.334 51.9393 348.297 51.792 349.362 51.792C350.745 51.792 352.003 51.9053 353.136 52.132C354.292 52.336 355.199 52.5967 355.856 52.914C355.856 53.2993 355.822 53.7527 355.754 54.274C355.709 54.7727 355.641 55.294 355.55 55.838C355.482 56.382 355.403 56.9147 355.312 57.436C355.222 57.9347 355.131 58.3767 355.04 58.762H354.156L352.796 54.104C352.388 53.9227 351.867 53.7867 351.232 53.696C350.62 53.6053 349.963 53.56 349.26 53.56C348.104 53.56 347.175 53.8887 346.472 54.546C345.77 55.1807 345.418 56.076 345.418 57.232C345.418 58.1613 345.69 58.9433 346.234 59.578C346.801 60.2127 347.504 60.7793 348.342 61.278C349.181 61.7767 350.076 62.264 351.028 62.74C352.003 63.1933 352.91 63.726 353.748 64.338C354.587 64.95 355.278 65.6753 355.822 66.514C356.389 67.3527 356.672 68.3953 356.672 69.642C356.672 70.662 356.48 71.5913 356.094 72.43C355.732 73.2687 355.199 73.9827 354.496 74.572C353.794 75.1613 352.932 75.6147 351.912 75.932C350.892 76.2493 349.736 76.408 348.444 76.408C347.016 76.408 345.736 76.238 344.602 75.898C343.469 75.558 342.664 75.1953 342.188 74.81C342.211 74.4247 342.245 73.96 342.29 73.416C342.358 72.872 342.426 72.3167 342.494 71.75C342.585 71.1607 342.676 70.594 342.766 70.05C342.857 69.506 342.948 69.0413 343.038 68.656H343.922L345.316 73.654Z" fill="black"/>
<line x1="80" y1="42.95" x2="355" y2="42.95" stroke="black" stroke-width="2.5"/>
<mask id="mask0" mask-type="alpha" maskUnits="userSpaceOnUse" x="57" y="41" width="30" height="35">
<path d="M79.05 76H65.281V74.579C65.9997 74.3177 66.7183 74.089 67.437 73.893C68.1883 73.697 68.9887 73.5337 69.838 73.403V44.248H62.341L59.744 51.255H58.519C58.421 50.6017 58.3393 49.8667 58.274 49.05C58.2087 48.2007 58.1433 47.3513 58.078 46.502C58.0453 45.62 58.0127 44.7707 57.98 43.954C57.9473 43.1047 57.931 42.3533 57.931 41.7H86.4C86.4 42.3533 86.3837 43.0883 86.351 43.905C86.3183 44.7217 86.2693 45.571 86.204 46.453C86.1713 47.3023 86.1223 48.1517 86.057 49.001C86.0243 49.8177 85.959 50.569 85.861 51.255H84.587L82.039 44.248H74.542V73.403C75.3913 73.5663 76.1753 73.7297 76.894 73.893C77.6453 74.0563 78.364 74.285 79.05 74.579V76Z" fill="black"/>
</mask>
<g mask="url(#mask0)">
<rect x="53" y="38" width="28" height="41" fill="black"/>
</g>
</svg>
