<svg width="430" height="122" viewBox="0 0 430 122" fill="none" xmlns="http://www.w3.org/2000/svg">
<path fill-rule="evenodd" clip-rule="evenodd" d="M61.4556 9.18337L110.25 39.6732C116.973 43.8748 119.018 52.7316 114.817 59.4556L107.133 71.7477L96.6604 56.9611L109.658 43.8234H100.527L87.5292 57.6133V43.8234H80.215V77.0869H87.5292V66.3718L91.7221 62.1323L101.738 77.0869L103.799 77.0856L84.3268 108.25C80.1252 114.973 71.2684 117.018 64.5444 112.817L15.7505 82.3268C9.02657 78.1252 6.9818 69.2684 11.1834 62.5444L16.2798 54.3909C16.3997 55.3667 16.6617 56.2312 17.0656 56.9844C17.6402 58.0559 18.3933 58.9488 19.3251 59.6632C20.2568 60.3775 21.3128 60.9599 22.493 61.4102C23.6733 61.8606 24.8845 62.241 26.1269 62.5516C27.3381 62.8933 28.5339 63.2038 29.7141 63.4834C30.8943 63.7629 31.9503 64.089 32.8821 64.4617C33.8138 64.8344 34.567 65.3003 35.1415 65.8593C35.7161 66.4184 36.0034 67.1482 36.0034 68.0489C36.0034 68.8875 35.786 69.5786 35.3512 70.1221C34.9164 70.6656 34.3729 71.0927 33.7206 71.4032C33.0684 71.7138 32.3696 71.9235 31.6242 72.0322C30.8788 72.1409 30.18 72.1952 29.5278 72.1952C28.5649 72.1952 27.6332 72.0788 26.7325 71.8458C25.8318 71.6129 25.0476 71.2557 24.3798 70.7743C23.7121 70.2929 23.1763 69.664 22.7726 68.8875C22.3688 68.1111 22.1669 67.1638 22.1669 66.0457H15.0856C15.0546 68.0955 15.4273 69.8658 16.2037 71.3567C16.9802 72.8475 18.0284 74.0743 19.3484 75.0371C20.6684 75.9999 22.1902 76.7065 23.914 77.1568C25.6377 77.6072 27.4158 77.8323 29.2482 77.8323C31.5155 77.8323 33.511 77.5683 35.2347 77.0403C36.9585 76.5123 38.4027 75.7747 39.5674 74.8274C40.7321 73.8801 41.6094 72.7543 42.1996 71.4498C42.7897 70.1454 43.0847 68.7322 43.0847 67.2104C43.0847 65.3469 42.6887 63.8172 41.8967 62.6215C41.1047 61.4257 40.1652 60.4707 39.0782 59.7564C37.9911 59.042 36.8963 58.5218 35.7938 58.1957C34.6912 57.8696 33.8293 57.6444 33.2082 57.5202C31.1272 56.9922 29.4423 56.5573 28.1534 56.2157C26.8645 55.8741 25.8551 55.5324 25.1252 55.1908C24.3954 54.8491 23.9062 54.4764 23.6577 54.0727C23.4093 53.6689 23.285 53.1409 23.285 52.4887C23.285 51.7744 23.4403 51.1843 23.7509 50.7184C24.0615 50.2525 24.4575 49.8643 24.9389 49.5537C25.4203 49.2431 25.956 49.0257 26.5461 48.9015C27.1363 48.7772 27.7264 48.7151 28.3165 48.7151C29.2172 48.7151 30.048 48.7928 30.8089 48.948C31.5698 49.1033 32.2454 49.3673 32.8355 49.74C33.4256 50.1127 33.8992 50.6252 34.2564 51.2774C34.6136 51.9297 34.8232 52.7527 34.8853 53.7466H41.9666C41.9666 51.8209 41.6017 50.1826 40.8718 48.8316C40.1419 47.4805 39.1558 46.3702 37.9135 45.5006C36.6712 44.6309 35.2503 44.002 33.6507 43.6138C32.0512 43.2255 30.3819 43.0314 28.6426 43.0314C27.1518 43.0314 25.661 43.2333 24.1702 43.6371C23.6576 43.7759 23.1634 43.9404 22.6875 44.1307L41.6732 13.7505C45.8748 7.02657 54.7316 4.9818 61.4556 9.18337ZM63.0708 43.8234H47.4174V77.0869H63.5367C65.0275 77.0869 66.4794 76.9006 67.8926 76.5279C69.3057 76.1552 70.5636 75.5806 71.6662 74.8041C72.7688 74.0277 73.6461 73.026 74.2984 71.7992C74.9506 70.5724 75.2767 69.1205 75.2767 67.4433C75.2767 65.3624 74.772 63.5843 73.7626 62.109C72.7532 60.6338 71.2236 59.6011 69.1737 59.011C70.6646 58.2966 71.7904 57.3804 72.5513 56.2623C73.3123 55.1442 73.6927 53.7466 73.6927 52.0694C73.6927 50.5165 73.4365 49.2121 72.924 48.1561C72.4116 47.1001 71.6895 46.2537 70.7577 45.617C69.826 44.9803 68.7079 44.5222 67.4034 44.2427C66.099 43.9632 64.6548 43.8234 63.0708 43.8234ZM62.6981 62.2721C64.2821 62.2721 65.5554 62.637 66.5183 63.3669C67.4811 64.0968 67.9625 65.3158 67.9625 67.024C67.9625 67.8937 67.8149 68.608 67.5199 69.167C67.2248 69.7261 66.8288 70.1687 66.3319 70.4948C65.835 70.8209 65.2604 71.0538 64.6082 71.1936C63.9559 71.3334 63.2727 71.4032 62.5583 71.4032H54.7316V62.2721H62.6981ZM61.58 49.5071C62.2322 49.5071 62.8611 49.5615 63.4668 49.6702C64.0724 49.7789 64.6082 49.973 65.074 50.2525C65.5399 50.532 65.9126 50.9202 66.1921 51.4172C66.4717 51.9141 66.6114 52.5508 66.6114 53.3273C66.6114 54.7249 66.1921 55.7343 65.3536 56.3555C64.515 56.9766 63.4435 57.2872 62.139 57.2872H54.7316V49.5071H61.58Z" fill="#9BAABB"/>
<path d="M161.56 34.04C161.347 31.9867 160.607 30.5 159.34 29.58C158.073 28.66 156.453 28.2 154.48 28.2C153.68 28.2 152.893 28.28 152.12 28.44C151.347 28.6 150.66 28.8667 150.06 29.24C149.46 29.6133 148.98 30.1133 148.62 30.74C148.26 31.3667 148.08 32.1467 148.08 33.08C148.08 33.96 148.34 34.6733 148.86 35.22C149.38 35.7667 150.073 36.2133 150.94 36.56C151.807 36.9067 152.787 37.1933 153.88 37.42C154.973 37.6467 156.087 37.8933 157.22 38.16C158.353 38.4267 159.467 38.74 160.56 39.1C161.653 39.46 162.633 39.9467 163.5 40.56C164.367 41.1733 165.06 41.9467 165.58 42.88C166.1 43.8133 166.36 44.9867 166.36 46.4C166.36 47.92 166.02 49.22 165.34 50.3C164.66 51.38 163.787 52.26 162.72 52.94C161.653 53.62 160.46 54.1133 159.14 54.42C157.82 54.7267 156.507 54.88 155.2 54.88C153.6 54.88 152.087 54.68 150.66 54.28C149.233 53.88 147.98 53.2733 146.9 52.46C145.82 51.6467 144.967 50.6067 144.34 49.34C143.713 48.0733 143.4 46.5733 143.4 44.84H147C147 46.04 147.233 47.0733 147.7 47.94C148.167 48.8067 148.78 49.52 149.54 50.08C150.3 50.64 151.187 51.0533 152.2 51.32C153.213 51.5867 154.253 51.72 155.32 51.72C156.173 51.72 157.033 51.64 157.9 51.48C158.767 51.32 159.547 51.0467 160.24 50.66C160.933 50.2733 161.493 49.7467 161.92 49.08C162.347 48.4133 162.56 47.56 162.56 46.52C162.56 45.5333 162.3 44.7333 161.78 44.12C161.26 43.5067 160.567 43.0067 159.7 42.62C158.833 42.2333 157.853 41.92 156.76 41.68C155.667 41.44 154.553 41.1933 153.42 40.94C152.287 40.6867 151.173 40.3933 150.08 40.06C148.987 39.7267 148.007 39.2867 147.14 38.74C146.273 38.1933 145.58 37.4867 145.06 36.62C144.54 35.7533 144.28 34.6667 144.28 33.36C144.28 31.92 144.573 30.6733 145.16 29.62C145.747 28.5667 146.527 27.7 147.5 27.02C148.473 26.34 149.58 25.8333 150.82 25.5C152.06 25.1667 153.333 25 154.64 25C156.107 25 157.467 25.1733 158.72 25.52C159.973 25.8667 161.073 26.4133 162.02 27.16C162.967 27.9067 163.713 28.8467 164.26 29.98C164.807 31.1133 165.107 32.4667 165.16 34.04H161.56ZM173.16 39.96C173.16 41.4 173.347 42.82 173.72 44.22C174.093 45.62 174.68 46.88 175.48 48C176.28 49.12 177.307 50.02 178.56 50.7C179.813 51.38 181.307 51.72 183.04 51.72C184.773 51.72 186.267 51.38 187.52 50.7C188.773 50.02 189.8 49.12 190.6 48C191.4 46.88 191.987 45.62 192.36 44.22C192.733 42.82 192.92 41.4 192.92 39.96C192.92 38.52 192.733 37.1 192.36 35.7C191.987 34.3 191.4 33.04 190.6 31.92C189.8 30.8 188.773 29.9 187.52 29.22C186.267 28.54 184.773 28.2 183.04 28.2C181.307 28.2 179.813 28.54 178.56 29.22C177.307 29.9 176.28 30.8 175.48 31.92C174.68 33.04 174.093 34.3 173.72 35.7C173.347 37.1 173.16 38.52 173.16 39.96ZM169.36 39.96C169.36 38.0133 169.647 36.14 170.22 34.34C170.793 32.54 171.653 30.9467 172.8 29.56C173.947 28.1733 175.373 27.0667 177.08 26.24C178.787 25.4133 180.773 25 183.04 25C185.307 25 187.293 25.4133 189 26.24C190.707 27.0667 192.133 28.1733 193.28 29.56C194.427 30.9467 195.287 32.54 195.86 34.34C196.433 36.14 196.72 38.0133 196.72 39.96C196.72 41.9067 196.433 43.78 195.86 45.58C195.287 47.38 194.427 48.9733 193.28 50.36C192.133 51.7467 190.707 52.8467 189 53.66C187.293 54.4733 185.307 54.88 183.04 54.88C180.773 54.88 178.787 54.4733 177.08 53.66C175.373 52.8467 173.947 51.7467 172.8 50.36C171.653 48.9733 170.793 47.38 170.22 45.58C169.647 43.78 169.36 41.9067 169.36 39.96ZM224.16 43.92C224.16 47.5734 223.187 50.3133 221.24 52.14C219.293 53.9667 216.52 54.88 212.92 54.88C209.24 54.88 206.367 54.0067 204.3 52.26C202.233 50.5133 201.2 47.7334 201.2 43.92V25.68H205V43.92C205 46.48 205.68 48.42 207.04 49.74C208.4 51.06 210.36 51.72 212.92 51.72C215.347 51.72 217.193 51.06 218.46 49.74C219.727 48.42 220.36 46.48 220.36 43.92V25.68H224.16V43.92ZM236.72 28.88H227.2V25.68H250.04V28.88H240.52V54.24H236.72V28.88ZM253.2 25.68H257V37.96H272.04V25.68H275.84V54.24H272.04V41.16H257V54.24H253.2V25.68ZM285.88 37.96H293.48C295.64 37.96 297.193 37.58 298.14 36.82C299.087 36.06 299.56 34.92 299.56 33.4C299.56 32.3867 299.4 31.5867 299.08 31C298.76 30.4133 298.32 29.96 297.76 29.64C297.2 29.32 296.553 29.1133 295.82 29.02C295.087 28.9267 294.307 28.88 293.48 28.88H285.88V37.96ZM282.08 25.68H292.44C293.053 25.68 293.713 25.6867 294.42 25.7C295.127 25.7133 295.827 25.7533 296.52 25.82C297.213 25.8867 297.86 25.9867 298.46 26.12C299.06 26.2533 299.573 26.4533 300 26.72C300.933 27.28 301.727 28.0533 302.38 29.04C303.033 30.0267 303.36 31.24 303.36 32.68C303.36 34.2 302.993 35.5133 302.26 36.62C301.527 37.7267 300.48 38.5467 299.12 39.08V39.16C300.88 39.5333 302.227 40.3333 303.16 41.56C304.093 42.7867 304.56 44.28 304.56 46.04C304.56 47.08 304.373 48.0933 304 49.08C303.627 50.0667 303.073 50.94 302.34 51.7C301.607 52.46 300.7 53.0733 299.62 53.54C298.54 54.0067 297.293 54.24 295.88 54.24H282.08V25.68ZM285.88 51.04H295.4C297.08 51.04 298.393 50.5867 299.34 49.68C300.287 48.7733 300.76 47.52 300.76 45.92C300.76 44.9867 300.587 44.2133 300.24 43.6C299.893 42.9867 299.433 42.5 298.86 42.14C298.287 41.78 297.627 41.5267 296.88 41.38C296.133 41.2333 295.36 41.16 294.56 41.16H285.88V51.04ZM309.48 25.68H322.92C325.64 25.68 327.767 26.3467 329.3 27.68C330.833 29.0133 331.6 30.84 331.6 33.16C331.6 34.8933 331.207 36.4133 330.42 37.72C329.633 39.0267 328.373 39.92 326.64 40.4V40.48C327.467 40.64 328.14 40.9067 328.66 41.28C329.18 41.6533 329.593 42.1 329.9 42.62C330.207 43.14 330.433 43.72 330.58 44.36C330.727 45 330.84 45.6667 330.92 46.36C330.973 47.0533 331.013 47.76 331.04 48.48C331.067 49.2 331.133 49.9067 331.24 50.6C331.347 51.2933 331.5 51.9533 331.7 52.58C331.9 53.2067 332.2 53.76 332.6 54.24H328.36C328.093 53.9467 327.913 53.5467 327.82 53.04C327.727 52.5333 327.667 51.9667 327.64 51.34C327.613 50.7133 327.587 50.04 327.56 49.32C327.533 48.6 327.453 47.8933 327.32 47.2C327.213 46.5067 327.08 45.8467 326.92 45.22C326.76 44.5933 326.507 44.0467 326.16 43.58C325.813 43.1133 325.36 42.74 324.8 42.46C324.24 42.18 323.493 42.04 322.56 42.04H313.28V54.24H309.48V25.68ZM321.2 38.84C322.08 38.84 322.92 38.7733 323.72 38.64C324.52 38.5067 325.22 38.2467 325.82 37.86C326.42 37.4733 326.9 36.9533 327.26 36.3C327.62 35.6467 327.8 34.8 327.8 33.76C327.8 32.32 327.4 31.1467 326.6 30.24C325.8 29.3333 324.507 28.88 322.72 28.88H313.28V38.84H321.2ZM339.08 39.96C339.08 41.4 339.267 42.82 339.64 44.22C340.013 45.62 340.6 46.88 341.4 48C342.2 49.12 343.227 50.02 344.48 50.7C345.733 51.38 347.227 51.72 348.96 51.72C350.693 51.72 352.187 51.38 353.44 50.7C354.693 50.02 355.72 49.12 356.52 48C357.32 46.88 357.907 45.62 358.28 44.22C358.653 42.82 358.84 41.4 358.84 39.96C358.84 38.52 358.653 37.1 358.28 35.7C357.907 34.3 357.32 33.04 356.52 31.92C355.72 30.8 354.693 29.9 353.44 29.22C352.187 28.54 350.693 28.2 348.96 28.2C347.227 28.2 345.733 28.54 344.48 29.22C343.227 29.9 342.2 30.8 341.4 31.92C340.6 33.04 340.013 34.3 339.64 35.7C339.267 37.1 339.08 38.52 339.08 39.96ZM335.28 39.96C335.28 38.0133 335.567 36.14 336.14 34.34C336.713 32.54 337.573 30.9467 338.72 29.56C339.867 28.1733 341.293 27.0667 343 26.24C344.707 25.4133 346.693 25 348.96 25C351.227 25 353.213 25.4133 354.92 26.24C356.627 27.0667 358.053 28.1733 359.2 29.56C360.347 30.9467 361.207 32.54 361.78 34.34C362.353 36.14 362.64 38.0133 362.64 39.96C362.64 41.9067 362.353 43.78 361.78 45.58C361.207 47.38 360.347 48.9733 359.2 50.36C358.053 51.7467 356.627 52.8467 354.92 53.66C353.213 54.4733 351.227 54.88 348.96 54.88C346.693 54.88 344.707 54.4733 343 53.66C341.293 52.8467 339.867 51.7467 338.72 50.36C337.573 48.9733 336.713 47.38 336.14 45.58C335.567 43.78 335.28 41.9067 335.28 39.96ZM369.48 39.96C369.48 41.4 369.667 42.82 370.04 44.22C370.413 45.62 371 46.88 371.8 48C372.6 49.12 373.627 50.02 374.88 50.7C376.133 51.38 377.627 51.72 379.36 51.72C381.093 51.72 382.587 51.38 383.84 50.7C385.093 50.02 386.12 49.12 386.92 48C387.72 46.88 388.307 45.62 388.68 44.22C389.053 42.82 389.24 41.4 389.24 39.96C389.24 38.52 389.053 37.1 388.68 35.7C388.307 34.3 387.72 33.04 386.92 31.92C386.12 30.8 385.093 29.9 383.84 29.22C382.587 28.54 381.093 28.2 379.36 28.2C377.627 28.2 376.133 28.54 374.88 29.22C373.627 29.9 372.6 30.8 371.8 31.92C371 33.04 370.413 34.3 370.04 35.7C369.667 37.1 369.48 38.52 369.48 39.96ZM365.68 39.96C365.68 38.0133 365.967 36.14 366.54 34.34C367.113 32.54 367.973 30.9467 369.12 29.56C370.267 28.1733 371.693 27.0667 373.4 26.24C375.107 25.4133 377.093 25 379.36 25C381.627 25 383.613 25.4133 385.32 26.24C387.027 27.0667 388.453 28.1733 389.6 29.56C390.747 30.9467 391.607 32.54 392.18 34.34C392.753 36.14 393.04 38.0133 393.04 39.96C393.04 41.9067 392.753 43.78 392.18 45.58C391.607 47.38 390.747 48.9733 389.6 50.36C388.453 51.7467 387.027 52.8467 385.32 53.66C383.613 54.4733 381.627 54.88 379.36 54.88C377.093 54.88 375.107 54.4733 373.4 53.66C371.693 52.8467 370.267 51.7467 369.12 50.36C367.973 48.9733 367.113 47.38 366.54 45.58C365.967 43.78 365.68 41.9067 365.68 39.96ZM397.68 25.68H401.48V39.92L415.96 25.68H420.88L408.84 37.2L421.36 54.24H416.56L406.24 39.8L401.48 44.24V54.24H397.68V25.68ZM151.52 64.88H142V61.68H164.84V64.88H155.32V90.24H151.52V64.88ZM168 61.68H187.72V64.88H171.8V73.96H186.64V77.16H171.8V87.04H187.84V90.24H168V61.68ZM212.52 70.28C212.093 68.2533 211.153 66.7333 209.7 65.72C208.247 64.7067 206.52 64.2 204.52 64.2C202.813 64.2 201.353 64.52 200.14 65.16C198.927 65.8 197.927 66.66 197.14 67.74C196.353 68.82 195.773 70.0533 195.4 71.44C195.027 72.8267 194.84 74.2667 194.84 75.76C194.84 77.3867 195.027 78.9267 195.4 80.38C195.773 81.8333 196.353 83.1 197.14 84.18C197.927 85.26 198.933 86.12 200.16 86.76C201.387 87.4 202.853 87.72 204.56 87.72C205.813 87.72 206.927 87.5133 207.9 87.1C208.873 86.6867 209.713 86.1133 210.42 85.38C211.127 84.6467 211.68 83.7733 212.08 82.76C212.48 81.7467 212.72 80.6533 212.8 79.48H216.6C216.227 83.08 214.987 85.88 212.88 87.88C210.773 89.88 207.893 90.88 204.24 90.88C202.027 90.88 200.093 90.5 198.44 89.74C196.787 88.98 195.413 87.9333 194.32 86.6C193.227 85.2667 192.407 83.6933 191.86 81.88C191.313 80.0667 191.04 78.12 191.04 76.04C191.04 73.96 191.333 72.0067 191.92 70.18C192.507 68.3533 193.367 66.76 194.5 65.4C195.633 64.04 197.047 62.9667 198.74 62.18C200.433 61.3933 202.373 61 204.56 61C206.053 61 207.467 61.2 208.8 61.6C210.133 62 211.32 62.5867 212.36 63.36C213.4 64.1333 214.267 65.1 214.96 66.26C215.653 67.42 216.107 68.76 216.32 70.28H212.52ZM221.32 61.68H225.12V73.96H240.16V61.68H243.96V90.24H240.16V77.16H225.12V90.24H221.32V61.68Z" fill="#9BAABB"/>
<path d="M261.48 61.68H265.28V90.24H261.48V61.68ZM271.64 61.68H275.68L290.72 84.84H290.8V61.68H294.4V90.24H290.24L275.32 67.32H275.24V90.24H271.64V61.68ZM320.64 70.28C320.214 68.2533 319.274 66.7333 317.82 65.72C316.367 64.7067 314.64 64.2 312.64 64.2C310.934 64.2 309.474 64.52 308.26 65.16C307.047 65.8 306.047 66.66 305.26 67.74C304.474 68.82 303.894 70.0533 303.52 71.44C303.147 72.8267 302.96 74.2667 302.96 75.76C302.96 77.3867 303.147 78.9267 303.52 80.38C303.894 81.8333 304.474 83.1 305.26 84.18C306.047 85.26 307.054 86.12 308.28 86.76C309.507 87.4 310.974 87.72 312.68 87.72C313.934 87.72 315.047 87.5133 316.02 87.1C316.994 86.6867 317.834 86.1133 318.54 85.38C319.247 84.6467 319.8 83.7733 320.2 82.76C320.6 81.7467 320.84 80.6533 320.92 79.48H324.72C324.347 83.08 323.107 85.88 321 87.88C318.894 89.88 316.014 90.88 312.36 90.88C310.147 90.88 308.214 90.5 306.56 89.74C304.907 88.98 303.534 87.9333 302.44 86.6C301.347 85.2667 300.527 83.6933 299.98 81.88C299.434 80.0667 299.16 78.12 299.16 76.04C299.16 73.96 299.454 72.0067 300.04 70.18C300.627 68.3533 301.487 66.76 302.62 65.4C303.754 64.04 305.167 62.9667 306.86 62.18C308.554 61.3933 310.494 61 312.68 61C314.174 61 315.587 61.2 316.92 61.6C318.254 62 319.44 62.5867 320.48 63.36C321.52 64.1333 322.387 65.1 323.08 66.26C323.774 67.42 324.227 68.76 324.44 70.28H320.64ZM329.64 85.8H334.08V90.24H329.64V85.8Z" fill="#9BAABB"/>
</svg>
