<svg width="150" height="150" viewBox="0 0 150 150" fill="none" xmlns="http://www.w3.org/2000/svg">
<circle cx="23.5" cy="26.5" r="17.5" fill="#31ACDD"/>
<line x1="29" y1="145" x2="29" y2="91" stroke="#31ACDD" stroke-width="16"/>
<line x1="59" y1="145" x2="59" y2="62" stroke="#31ACDD" stroke-width="16"/>
<line x1="89" y1="145" x2="89" y2="41" stroke="#31ACDD" stroke-width="16"/>
<line x1="119" y1="145" x2="119" y2="22" stroke="#31ACDD" stroke-width="16"/>
<path d="M24.4877 24.625C21.6502 23.8875 20.7377 23.125 20.7377 21.9375C20.7377 20.575 22.0002 19.625 24.1127 19.625C26.3377 19.625 27.1627 20.6875 27.2377 22.25H30.0002C29.9127 20.1 28.6002 18.125 25.9877 17.4875V14.75H22.2377V17.45C19.8127 17.975 17.8627 19.55 17.8627 21.9625C17.8627 24.85 20.2502 26.2875 23.7377 27.125C26.8627 27.875 27.4877 28.975 27.4877 30.1375C27.4877 31 26.8752 32.375 24.1127 32.375C21.5377 32.375 20.5252 31.225 20.3877 29.75H17.6377C17.7877 32.4875 19.8377 34.025 22.2377 34.5375V37.25H25.9877V34.5625C28.4252 34.1 30.3627 32.6875 30.3627 30.125C30.3627 26.575 27.3252 25.3625 24.4877 24.625Z" fill="white"/>
<path d="M11.5 76L89.5395 16.5269L88.1661 26.4025L92.0494 26.948L94.371 10.4232L77.8462 8.10159L77.3006 11.9849L87.1723 13.3859L9 73.5L11.5 76Z" fill="#31ACDD"/>
</svg>
