<svg width="150" height="150" viewBox="0 0 150 150" fill="none" xmlns="http://www.w3.org/2000/svg">
<rect width="150" height="150" />
<path d="M72.6592 15C90.8822 15.3507 106.605 16.5494 121.785 21.5089C126.164 22.9402 130.378 24.7329 134.109 27.4918C137.366 29.9035 139.182 32.8878 138.986 37.0887C138.767 41.7297 138.876 46.3886 138.956 51.0368C139.007 53.9138 137.956 56.254 135.896 58.2184C132.969 61.0095 129.399 62.7736 125.69 64.2729C117.058 67.7617 107.999 69.7262 98.7763 70.6064C89.6848 71.4759 80.5241 72.0342 71.3963 71.9984C57.5006 71.9447 43.7214 70.4239 30.3572 66.3912C24.7269 64.6915 19.2494 62.6126 14.6964 58.7373C12.2142 56.6225 10.9586 54.0211 11.0095 50.747C11.086 45.9199 11.1005 41.0892 11.0023 36.2621C10.9404 33.1633 12.1451 30.7122 14.4161 28.6941C18.365 25.1766 23.1619 23.1764 28.1116 21.5268C37.0393 18.5532 46.2582 16.9036 55.6263 16.1164C62.0791 15.5725 68.5538 15.2612 72.6592 15ZM75.043 26.3252C65.26 26.2608 55.5244 26.8298 45.9597 28.9195C42.6878 29.6352 39.4268 30.748 36.4206 32.1972C33.2215 33.7394 33.3234 36.1798 36.457 37.9332C38.1239 38.8635 39.9582 39.5792 41.8034 40.1123C49.0497 42.2021 56.507 42.9642 64.019 43.3936C76.8919 44.1272 89.7248 43.891 102.405 41.447C106.219 40.7135 110.004 39.4325 113.538 37.833C116.77 36.373 116.664 33.8182 113.502 32.1221C111.504 31.0521 109.32 30.2077 107.114 29.6387C96.6071 26.9228 85.8524 26.3396 75.043 26.3252Z" fill="white"/>
<path d="M11.0188 63C13.9416 68.5524 18.9319 70.9944 24.1006 73.1402C32.5416 76.648 41.4484 78.3603 50.4608 79.5813C60.5762 80.9504 70.7533 81.3623 80.9414 81.0191C95.6358 80.5242 110.184 78.9527 124.085 73.8122C127.019 72.7284 129.829 71.2545 132.555 69.7156C135.216 68.2128 137.433 66.1501 138.94 63.2926C138.94 66.1934 138.94 69.0943 138.94 71.9951C138.94 75.3077 138.791 78.624 138.98 81.9258C139.209 85.9429 137.473 88.8654 134.419 91.2244C130.633 94.1469 126.302 95.9928 121.81 97.4992C112.933 100.469 103.764 102.022 94.4673 102.969C84.0681 104.023 73.6507 104.323 63.226 103.615C49.3543 102.672 35.5845 101.011 22.7247 95.3065C19.5726 93.9084 16.6788 91.7987 13.9234 89.6891C11.7795 88.0454 10.9751 85.5491 11.0006 82.782C11.0625 76.2939 11.0188 69.8132 11.0188 63Z" fill="white"/>
<path d="M11.0342 95C12.7376 98.7128 15.3764 100.783 18.3429 102.501C25.0146 106.365 32.3561 108.363 39.8395 109.923C54.0383 112.881 68.4264 113.647 82.8764 113.093C96.2199 112.583 109.465 111.084 122.142 106.652C126.048 105.29 129.83 103.407 133.371 101.283C135.559 99.9707 137.189 97.7495 138.886 95.5391C138.907 95.9489 138.947 96.355 138.947 96.7647C138.951 102.577 138.831 108.388 138.995 114.193C139.104 118.039 137.517 120.867 134.591 123.164C130.885 126.079 126.616 127.933 122.19 129.425C113.207 132.451 103.922 134.043 94.4983 134.985C84.1612 136.02 73.806 136.311 63.4399 135.636C50.111 134.766 36.8767 133.184 24.4213 128.07C20.8398 126.6 17.5094 124.393 14.3355 122.154C11.9223 120.45 10.9577 117.783 11.0014 114.739C11.0997 108.331 11.0342 101.922 11.0342 95Z" fill="white"/>
</svg>
