<svg width="150" height="150" viewBox="0 0 150 150" fill="none" xmlns="http://www.w3.org/2000/svg">
<path d="M93 50.2105L56.8006 29L15 100.789L51.1994 122L93 50.2105Z" fill="#8CD0EB"/>
<path d="M98.815 121.54C104.614 131.584 117.705 134.928 127.501 129.226C137.526 123.391 140.986 110.584 135.187 100.539L93.1871 29.4605C87.3878 19.4158 74.3356 16.0718 64.5011 21.7743C54.4664 27.593 51.0159 40.4163 56.8152 50.4609L98.815 121.54Z" fill="#31ACDD"/>
<path d="M33 132C44.598 132 54 122.598 54 111C54 99.402 44.598 90 33 90C21.402 90 12 99.402 12 111C12 122.598 21.402 132 33 132Z" fill="#394768"/>
</svg>
