<svg width="150" height="150" viewBox="0 0 150 150" fill="none" xmlns="http://www.w3.org/2000/svg">
<path d="M62.7601 91.8719C62.3572 93.5467 61.6047 94.7254 60.0864 95.2282C59.6735 95.3647 59.2207 95.4346 58.7878 95.4379C55.3749 95.4546 51.962 95.4579 48.5524 95.4446C46.1618 95.4346 44.5435 93.833 44.5169 91.4157C44.4836 88.3657 44.5003 85.3125 44.5003 82.2625C44.5003 74.0516 44.5069 65.8406 44.5069 57.6297C44.5069 55.875 45.1262 54.4665 46.7977 53.734C47.3638 53.4843 48.0297 53.3711 48.6523 53.3611C51.982 53.3245 55.3083 53.3411 58.638 53.3378C60.3161 53.3344 61.5381 54.1302 62.4538 55.6486C62.6902 55.3722 62.8899 55.1924 63.0231 54.976C65.3073 51.2734 67.042 47.3477 68.011 43.0858C68.5504 40.7117 69.4993 38.5208 71.3007 36.7661C73.8312 34.2988 79.7213 34.6051 81.4961 37.9248C82.455 39.7195 82.7014 41.6573 82.728 43.6352C82.7713 47.1646 82.4949 50.6707 81.7291 54.1269C81.7158 54.1802 81.7025 54.2334 81.6925 54.2901C81.3928 55.7784 81.4461 55.8417 82.9511 55.8417C89.5272 55.8417 96.0999 55.825 102.676 55.855C106.625 55.875 110.048 59.2779 109.848 63.0737C109.788 64.1925 109.305 65.3145 108.872 66.3767C108.659 66.9028 108.589 67.2291 108.946 67.7119C111.39 71.0149 110.601 75.3601 107.128 77.6443C106.558 78.0172 106.432 78.3568 106.578 78.9928C107.208 81.6931 106.425 83.9739 104.384 85.8219C104.005 86.1648 103.908 86.4445 104.118 86.9606C105.803 91.1194 103.059 95.8308 98.6038 96.4635C97.8913 96.5634 97.1687 96.6333 96.4529 96.6333C89.101 96.6466 81.7491 96.6366 74.4006 96.6499C70.2485 96.6566 66.6524 95.2515 63.5725 92.4812C63.3528 92.2814 63.1064 92.1283 62.7601 91.8719ZM84.9622 91.196C84.9622 91.1993 84.9622 91.1993 84.9622 91.196C88.818 91.1993 92.6737 91.1993 96.5295 91.196C96.9157 91.196 97.3086 91.2026 97.6915 91.1427C98.4806 91.0228 99.2231 90.3136 99.2598 89.6277C99.3031 88.7953 98.8202 88.2792 98.0911 87.9928C97.7647 87.863 97.3985 87.7997 97.0455 87.7864C96.2431 87.7531 95.4373 87.7764 94.6315 87.7664C93.0067 87.7431 91.8446 86.6377 91.8246 85.0994C91.8047 83.5611 92.9301 82.449 94.5883 82.4223C96.0034 82.399 97.4185 82.4423 98.8302 82.409C99.3197 82.399 99.8325 82.3158 100.289 82.146C100.958 81.8962 101.371 81.3968 101.364 80.6276C101.357 79.8884 100.935 79.419 100.309 79.1792C99.8524 79.0061 99.3397 78.9362 98.8502 78.9129C97.8247 78.8629 96.7958 78.9295 95.7736 78.8463C94.485 78.743 93.6227 77.834 93.4362 76.5288C93.2797 75.4101 93.9323 74.2413 95.0444 73.7952C95.4673 73.6254 95.9534 73.5355 96.4096 73.5321C98.4906 73.5022 100.572 73.5221 102.649 73.5122C104.044 73.5055 104.967 72.7996 104.963 71.7741C104.96 70.7452 104.068 70.0993 102.626 70.0826C102.403 70.0793 102.183 70.0826 101.96 70.0793C100.572 70.0693 99.1865 70.0826 97.798 70.0427C96.1765 69.9994 94.9911 68.8406 94.9878 67.349C94.9845 65.8539 96.1532 64.7019 97.7881 64.6519C99.1466 64.612 100.505 64.642 101.867 64.6286C102.226 64.6253 102.589 64.6087 102.942 64.5421C103.761 64.3922 104.377 63.7962 104.431 63.077C104.491 62.2446 104.041 61.6885 103.299 61.4288C102.816 61.259 102.276 61.1758 101.764 61.1758C93.9956 61.1625 86.2308 61.1325 78.4627 61.2024C76.435 61.2224 75.1397 59.4976 75.5593 57.7829C75.8023 56.7906 75.9156 55.7651 76.132 54.7629C76.9944 50.7639 77.5304 46.7351 77.294 42.6329C77.2641 42.1401 77.2174 41.6174 77.0277 41.1712C76.9078 40.8882 76.5315 40.5752 76.2319 40.5286C75.2463 40.3754 74.4172 40.9281 73.9677 42.2134C73.385 43.8816 72.9954 45.613 72.4694 47.3011C70.8811 52.4021 68.3506 57.0237 65.2939 61.3789C65.0143 61.7784 64.8311 62.3412 64.8278 62.8306C64.7978 70.2358 64.8045 77.6443 64.8178 85.0494C64.8178 85.419 64.8777 85.8652 65.0842 86.1515C67.2984 89.1915 70.1153 91.196 74.0476 91.196C77.6936 91.196 81.3296 91.196 84.9622 91.196ZM57.0564 86.1349C57.0664 84.1671 55.568 82.6487 53.6202 82.6554C51.7123 82.662 50.2073 84.1604 50.1873 86.0749C50.1673 87.9895 51.649 89.5078 53.5636 89.5311C55.5614 89.5511 57.0464 88.1094 57.0564 86.1349Z" fill="#31ACDD"/>
<path d="M30.2866 102.757C16.5884 84.54 14.7937 53.8838 35.8804 32.4309C57.1802 10.7615 91.7453 10.4685 113.518 31.8915C134.854 52.8816 133.806 83.8474 119.671 102.757C119.415 102.284 119.222 101.838 118.955 101.441C118.343 100.526 117.77 99.5734 117.044 98.7543C116.595 98.2482 116.585 97.9418 116.921 97.4058C119.242 93.7032 121.093 89.7842 122.365 85.5955C124.176 79.642 124.915 73.5821 124.436 67.3656C123.79 58.9915 121.249 51.2501 116.664 44.2178C110.415 34.6284 101.877 27.8992 91.0494 24.1234C83.9373 21.6428 76.612 20.7937 69.1669 21.8259C50.3744 24.4297 37.0791 34.5319 29.311 51.7828C25.9047 59.3511 24.8093 67.3823 25.6017 75.6698C26.3442 83.4545 28.8015 90.6399 32.9403 97.2559C33.3365 97.8919 33.3498 98.2581 32.8004 98.8741C31.9847 99.7898 31.402 100.912 30.7261 101.951C30.5829 102.18 30.4664 102.427 30.2866 102.757Z" fill="#31ACDD"/>
<path d="M63.7002 130.656C63.9499 129.221 64.2296 127.609 64.506 126.001C64.6791 124.992 64.9056 123.983 64.9855 122.967C65.0154 122.568 64.8157 122.039 64.5326 121.749C62.8878 120.064 61.1897 118.429 59.4982 116.788C58.6491 115.962 58.133 115.04 58.5293 113.818C58.9521 112.509 59.9577 111.996 61.2296 111.82C63.617 111.487 66.0043 111.164 68.3817 110.761C68.7213 110.704 69.0976 110.275 69.2774 109.925C70.3296 107.884 71.3551 105.826 72.3307 103.745C72.8734 102.59 73.7225 101.961 74.9811 101.961C76.243 101.961 77.0821 102.593 77.6248 103.752C78.5938 105.833 79.6493 107.877 80.6515 109.945C80.9145 110.485 81.2542 110.764 81.9001 110.844C84.2375 111.134 86.5616 111.503 88.8924 111.853C90.141 112.04 91.08 112.642 91.4496 113.911C91.7859 115.066 91.2897 115.959 90.4906 116.738C88.8058 118.386 87.1343 120.044 85.4262 121.669C84.9967 122.078 84.8369 122.495 84.9368 123.067C85.3363 125.332 85.6726 127.606 86.1221 129.86C86.3752 131.118 86.2187 132.201 85.1898 133.003C84.1809 133.789 83.0955 133.702 81.9933 133.113C79.9156 132.004 77.818 130.939 75.7436 129.827C75.1942 129.534 74.7347 129.534 74.1886 129.827C72.0443 130.982 69.8934 132.131 67.7191 133.233C65.8146 134.202 63.6802 132.903 63.7002 130.656ZM79.9123 125.898C79.7392 124.809 79.6593 123.966 79.4661 123.147C79.0533 121.403 79.1798 119.861 80.7481 118.679C81.2974 118.266 81.7536 117.73 82.2431 117.237C82.4262 117.054 82.5794 116.841 82.8724 116.488C81.4406 116.252 80.1987 116.025 78.95 115.849C77.8513 115.692 77.162 115.063 76.6992 114.101C76.283 113.228 75.8468 112.363 75.4006 111.503C75.3074 111.327 75.1276 111.194 74.9877 111.041C74.8446 111.187 74.6581 111.31 74.5649 111.484C74.1154 112.343 73.6825 113.208 73.263 114.081C72.8002 115.036 72.1242 115.702 71.0221 115.845C70.4461 115.919 69.8734 116.015 69.3007 116.112C68.6081 116.225 67.9189 116.348 66.9833 116.508C67.809 117.33 68.3884 118.046 69.0976 118.589C70.7291 119.838 70.9489 121.413 70.4494 123.264C70.2397 124.04 70.193 124.859 70.0299 125.928C71.2852 125.268 72.3074 124.742 73.3163 124.203C74.2985 123.677 75.2874 123.504 76.3196 124.066C76.8057 124.329 77.3019 124.576 77.7946 124.825C78.4273 125.142 79.0533 125.458 79.9123 125.898Z" fill="#31ACDD"/>
<path d="M55.5058 114.7C55.1029 115.363 54.8066 116.128 54.2838 116.671C52.629 118.386 50.9042 120.037 49.1728 121.676C48.71 122.115 48.5835 122.558 48.6933 123.154C49.1029 125.388 49.4825 127.629 49.8953 129.863C50.2516 131.801 49.4359 133.283 47.7277 133.499C47.1151 133.576 46.3925 133.406 45.8265 133.13C43.7388 132.107 41.6811 131.019 39.6433 129.893C38.9807 129.527 38.458 129.547 37.8054 129.91C35.7909 131.019 33.7399 132.054 31.7088 133.133C30.6067 133.719 29.5145 133.782 28.5123 132.99C27.55 132.231 27.3403 131.225 27.58 130.01C28.0328 127.729 28.3392 125.418 28.7587 123.131C28.8819 122.465 28.6688 122.042 28.2093 121.602C26.5445 120.014 24.9229 118.379 23.2614 116.791C22.3591 115.929 21.9429 114.963 22.3424 113.731C22.7353 112.512 23.691 112.03 24.8497 111.853C27.1771 111.5 29.5079 111.141 31.842 110.851C32.4513 110.774 32.7842 110.528 33.034 110.008C34.0329 107.937 35.0784 105.89 36.0506 103.809C36.5834 102.667 37.3892 101.974 38.6644 101.964C39.9563 101.954 40.832 102.577 41.3881 103.772C42.337 105.803 43.3726 107.794 44.3448 109.815C44.6411 110.435 44.9974 110.784 45.7533 110.871C48.064 111.141 50.3615 111.513 52.6623 111.86C54.2738 112.103 55.296 113.168 55.2994 114.577C55.366 114.617 55.4359 114.66 55.5058 114.7ZM38.9108 111.001C38.8109 110.974 38.711 110.947 38.6111 110.921C38.2016 111.713 37.6788 112.469 37.4025 113.305C36.7399 115.309 35.2682 115.979 33.3303 116.092C32.5445 116.138 31.7687 116.332 30.7998 116.488C31.0961 116.838 31.2493 117.054 31.4357 117.237C32.1283 117.916 32.8309 118.586 33.5268 119.262C34.2793 119.991 34.5823 120.866 34.3925 121.905C34.2859 122.505 34.1794 123.104 34.0928 123.707C34.0029 124.346 33.933 124.989 33.8264 125.881C35.0085 125.272 35.9774 124.825 36.8964 124.286C38.115 123.57 39.2871 123.544 40.5057 124.263C41.2216 124.682 41.9674 125.052 42.7066 125.431C42.9597 125.561 43.2327 125.651 43.609 125.804C43.609 125.491 43.6323 125.332 43.6056 125.178C43.4591 124.359 43.3159 123.54 43.1361 122.731C42.8065 121.239 43.0096 119.941 44.2815 118.915C44.9042 118.413 45.4436 117.807 46.013 117.237C46.1961 117.054 46.3459 116.838 46.6389 116.485C45.6733 116.328 44.8942 116.125 44.1084 116.092C42.1839 116.009 40.7654 115.286 40.0662 113.371C39.7665 112.549 39.3004 111.79 38.9108 111.001Z" fill="#31ACDD"/>
<path d="M99.9738 130.586C100.22 129.104 100.493 127.466 100.766 125.828C100.856 125.282 100.85 124.699 101.049 124.193C101.589 122.814 101.123 121.882 100.057 120.953C98.4721 119.571 96.9938 118.06 95.5187 116.555C94.2002 115.213 94.3933 113.282 95.9183 112.346C96.3312 112.093 96.8373 111.94 97.3167 111.863C99.6442 111.497 101.972 111.131 104.309 110.858C105.018 110.774 105.315 110.408 105.581 109.865C106.587 107.798 107.625 105.75 108.604 103.669C109.12 102.57 109.949 101.977 111.131 101.957C112.343 101.937 113.236 102.48 113.782 103.612C114.801 105.733 115.873 107.831 116.895 109.952C117.161 110.505 117.494 110.771 118.137 110.851C120.474 111.141 122.802 111.5 125.129 111.856C126.295 112.033 127.23 112.532 127.617 113.754C127.996 114.963 127.593 115.912 126.724 116.751C125.029 118.389 123.361 120.054 121.657 121.682C121.23 122.088 121.08 122.491 121.187 123.077C121.62 125.448 121.989 127.829 122.419 130.2C122.629 131.352 122.322 132.304 121.417 133.01C120.498 133.726 119.466 133.759 118.443 133.23C116.306 132.121 114.168 131.005 112.054 129.853C111.448 129.524 110.962 129.54 110.359 129.867C108.268 131.005 106.157 132.107 104.039 133.196C102.032 134.228 99.9272 132.946 99.9738 130.586ZM106.26 125.894C107.426 125.302 108.404 124.869 109.317 124.326C110.622 123.547 111.847 123.56 113.143 124.349C114.025 124.885 114.977 125.305 116.023 125.838C116.023 125.445 116.049 125.232 116.019 125.029C115.87 123.986 115.716 122.948 115.54 121.909C115.363 120.866 115.656 119.997 116.412 119.268C117.092 118.616 117.771 117.96 118.437 117.294C118.64 117.094 118.806 116.854 119.123 116.475C118.114 116.322 117.311 116.142 116.496 116.088C114.658 115.969 113.249 115.296 112.593 113.431C112.357 112.759 111.984 112.129 111.644 111.497C111.531 111.287 111.325 111.131 111.088 110.868C110.515 112.03 110.016 113.045 109.517 114.061C109.124 114.856 108.604 115.536 107.692 115.749C107.046 115.899 106.383 115.975 105.727 116.085C104.978 116.212 104.229 116.341 103.194 116.515C104.086 117.387 104.739 118.136 105.501 118.749C106.899 119.871 107.183 121.243 106.75 122.908C106.513 123.797 106.443 124.732 106.26 125.894Z" fill="#31ACDD"/>
</svg>
