<svg width="150" height="150" viewBox="0 0 150 150" fill="none" xmlns="http://www.w3.org/2000/svg">
<g clip-path="url(#clip0)">
<path d="M74.5 8C40.0391 8 12 36.0391 12 70.5C12 104.961 40.0391 133.004 74.5 133.004C108.961 133.004 137 104.961 137 70.5C137 36.0391 108.961 8 74.5 8ZM18.3086 70.5C18.3086 62.3516 20.0547 54.6211 23.1758 47.6328L49.9766 121.07C31.2344 111.965 18.3086 92.7422 18.3086 70.5ZM74.5 126.695C68.9844 126.695 63.6602 125.891 58.6289 124.41L75.4883 75.418L92.7617 122.738C92.875 123.012 93.0117 123.27 93.1641 123.508C87.3203 125.57 81.0469 126.695 74.5 126.695ZM82.2422 44.1523C85.625 43.9766 88.6719 43.6211 88.6719 43.6211C91.6992 43.2617 91.3437 38.8125 88.3125 38.9883C88.3125 38.9883 79.2148 39.7031 73.3359 39.7031C67.8125 39.7031 58.5352 38.9883 58.5352 38.9883C55.5078 38.8086 55.1523 43.4375 58.1797 43.6211C58.1797 43.6211 61.0469 43.9766 64.0742 44.1523L72.8281 68.1445L60.5312 105.023L40.0742 44.1523C43.4609 43.9766 46.5039 43.6211 46.5039 43.6211C49.5234 43.2617 49.1758 38.8125 46.1445 38.9883C46.1445 38.9883 37.043 39.7031 31.1641 39.7031C30.1094 39.7031 28.8672 39.6797 27.5469 39.6328C37.6016 24.3789 54.8711 14.3086 74.5 14.3086C89.1289 14.3086 102.449 19.8984 112.449 29.0625C112.207 29.043 111.969 29.0117 111.719 29.0117C106.199 29.0117 102.281 33.8203 102.281 38.9883C102.281 43.6211 104.953 47.5352 107.801 52.168C109.937 55.9063 112.437 60.7148 112.437 67.668C112.437 72.4727 110.586 78.0547 108.16 85.832L102.551 104.555L82.2422 44.1523ZM123.809 43.543C128.195 51.5508 130.691 60.7305 130.691 70.5C130.691 91.2344 119.457 109.328 102.754 119.074L119.918 69.4492C123.121 61.4336 124.191 55.0234 124.191 49.3281C124.188 47.2539 124.055 45.3359 123.809 43.543Z" fill="#31ACDD"/>
</g>
<defs>
<clipPath id="clip0">
<rect width="125" height="125" fill="white" transform="translate(12 8)"/>
</clipPath>
</defs>
</svg>
