<svg width="150" height="150" viewBox="0 0 150 150" fill="none" xmlns="http://www.w3.org/2000/svg">
<rect width="150" height="150" fill="white"/>
<circle cx="75" cy="75" r="62" fill="#31ACDD"/>
<path d="M49.966 64C49.7047 64 49.504 63.888 49.364 63.664C49.224 63.44 49.21 63.202 49.322 62.95L53.256 53.556C53.396 53.2293 53.6247 53.066 53.942 53.066C54.278 53.066 54.5067 53.2293 54.628 53.556L58.576 62.978C58.6787 63.2393 58.66 63.4773 58.52 63.692C58.3893 63.8973 58.1887 64 57.918 64C57.778 64 57.6427 63.9627 57.512 63.888C57.3907 63.804 57.302 63.692 57.246 63.552L56.462 61.592H51.436L50.638 63.552C50.5727 63.7013 50.4747 63.8133 50.344 63.888C50.2227 63.9627 50.0967 64 49.966 64ZM51.926 60.388H55.972L53.97 55.404L51.926 60.388ZM63.3023 64.056C62.5743 64.056 61.9163 63.888 61.3283 63.552C60.7496 63.2067 60.2876 62.74 59.9423 62.152C59.6063 61.564 59.4383 60.9013 59.4383 60.164C59.4383 59.4267 59.5923 58.7687 59.9003 58.19C60.2176 57.602 60.647 57.14 61.1883 56.804C61.7296 56.4587 62.341 56.286 63.0223 56.286C63.573 56.286 64.0816 56.4027 64.5483 56.636C65.015 56.86 65.407 57.168 65.7243 57.56V53.78C65.7243 53.5653 65.7896 53.3927 65.9203 53.262C66.0603 53.1313 66.233 53.066 66.4383 53.066C66.653 53.066 66.8256 53.1313 66.9563 53.262C67.087 53.3927 67.1523 53.5653 67.1523 53.78V60.164C67.1523 60.9013 66.9796 61.564 66.6343 62.152C66.2983 62.74 65.841 63.2067 65.2623 63.552C64.6836 63.888 64.0303 64.056 63.3023 64.056ZM63.3023 62.796C63.7783 62.796 64.203 62.684 64.5763 62.46C64.9496 62.2267 65.2436 61.9093 65.4583 61.508C65.673 61.1067 65.7803 60.6587 65.7803 60.164C65.7803 59.66 65.673 59.212 65.4583 58.82C65.2436 58.428 64.9496 58.12 64.5763 57.896C64.203 57.6627 63.7783 57.546 63.3023 57.546C62.8356 57.546 62.411 57.6627 62.0283 57.896C61.655 58.12 61.3563 58.428 61.1323 58.82C60.9176 59.212 60.8103 59.66 60.8103 60.164C60.8103 60.6587 60.9176 61.1067 61.1323 61.508C61.3563 61.9093 61.655 62.2267 62.0283 62.46C62.411 62.684 62.8356 62.796 63.3023 62.796ZM72.4601 64.056C71.8067 64.056 71.2001 63.958 70.6401 63.762C70.0894 63.5567 69.6601 63.3 69.3521 62.992C69.2121 62.8427 69.1514 62.6747 69.1701 62.488C69.1981 62.292 69.2914 62.1333 69.4501 62.012C69.6367 61.8627 69.8187 61.802 69.9961 61.83C70.1827 61.8487 70.3414 61.928 70.4721 62.068C70.6307 62.2453 70.8827 62.4133 71.2281 62.572C71.5827 62.7213 71.9747 62.796 72.4041 62.796C72.9454 62.796 73.3561 62.7073 73.6361 62.53C73.9254 62.3527 74.0747 62.124 74.0841 61.844C74.0934 61.564 73.9581 61.3213 73.6781 61.116C73.4074 60.9107 72.9081 60.7427 72.1801 60.612C71.2374 60.4253 70.5514 60.1453 70.1221 59.772C69.7021 59.3987 69.4921 58.9413 69.4921 58.4C69.4921 57.924 69.6321 57.532 69.9121 57.224C70.1921 56.9067 70.5514 56.6733 70.9901 56.524C71.4287 56.3653 71.8861 56.286 72.3621 56.286C72.9781 56.286 73.5241 56.384 74.0001 56.58C74.4761 56.776 74.8541 57.0467 75.1341 57.392C75.2647 57.5413 75.3254 57.7 75.3161 57.868C75.3067 58.0267 75.2274 58.162 75.0781 58.274C74.9287 58.3767 74.7514 58.4093 74.5461 58.372C74.3407 58.3347 74.1681 58.2507 74.0281 58.12C73.7947 57.896 73.5427 57.742 73.2721 57.658C73.0014 57.574 72.6887 57.532 72.3341 57.532C71.9234 57.532 71.5734 57.602 71.2841 57.742C71.0041 57.882 70.8641 58.0873 70.8641 58.358C70.8641 58.526 70.9061 58.68 70.9901 58.82C71.0834 58.9507 71.2607 59.072 71.5221 59.184C71.7834 59.2867 72.1661 59.3893 72.6701 59.492C73.7247 59.6973 74.4527 59.9913 74.8541 60.374C75.2647 60.7473 75.4701 61.2093 75.4701 61.76C75.4701 62.1893 75.3534 62.5767 75.1201 62.922C74.8961 63.2673 74.5601 63.5427 74.1121 63.748C73.6734 63.9533 73.1227 64.056 72.4601 64.056Z" fill="#31ACDD"/>
<path fill-rule="evenodd" clip-rule="evenodd" d="M82.1985 106.053H100.77C100.77 106.053 100.77 106.051 100.768 106.049C102.331 106.049 103.893 106.049 105.455 106.05C110.143 106.05 114.831 106.05 119.519 106.048C120.955 106.048 121.623 105.393 121.625 103.977C121.626 102.783 121.63 101.589 121.634 100.395C121.647 96.6755 121.659 92.9566 121.589 89.2387C121.56 87.7645 121.3 86.2364 120.824 84.8432C118.827 79.0023 113.604 74.9448 106.287 75.0006C104.85 75.0117 103.413 75.0087 101.975 75.0057C99.9435 75.0014 97.9118 74.9971 95.8813 75.0329C94.3379 75.0617 92.7567 75.1084 91.2635 75.4554C84.467 77.0356 80.0358 82.6913 80.0089 89.6863C79.996 93.0944 79.9998 96.5015 80.0037 99.9091C80.0051 101.234 80.0066 102.559 80.0071 103.885C80.0071 105.418 80.6514 106.053 82.1985 106.053ZM83.5858 89.4346C83.6217 84.0108 87.5413 79.5021 92.9308 78.7866L99.5795 78.7813C99.569 78.7717 99.5585 78.7621 99.5479 78.7524H102.121C102.112 78.7614 102.102 78.7704 102.092 78.7793L108.697 78.774C111.199 79.103 113.247 80.1511 114.946 81.8715C116.779 83.7286 117.922 85.9902 117.988 88.5915C118.071 91.8126 118.053 95.0355 118.036 98.2827C118.028 99.6514 118.021 101.024 118.021 102.404H113.886V101.472C113.886 100.829 113.887 100.186 113.888 99.5426C113.89 98.1483 113.893 96.7537 113.884 95.36C113.875 94.0386 113.179 93.2692 112.053 93.2872C110.957 93.3052 110.322 94.0386 110.316 95.3384C110.308 96.9999 110.31 98.6624 110.311 100.349C110.312 101.03 110.313 101.714 110.313 102.404H91.3156V101.478C91.3156 100.887 91.3162 100.296 91.3167 99.7055C91.3182 98.2288 91.3197 96.7521 91.312 95.2755C91.3066 94.0045 90.6318 93.271 89.5155 93.2854C88.4602 93.298 87.7603 94.044 87.7513 95.2413C87.7386 96.9131 87.7412 98.584 87.7438 100.279C87.7448 100.982 87.7459 101.69 87.7459 102.404H83.6306C83.6256 102.332 83.6188 102.257 83.6118 102.181C83.5965 102.013 83.5804 101.836 83.5804 101.659C83.5799 100.527 83.578 99.395 83.5761 98.2629C83.5712 95.3197 83.5663 92.3767 83.5858 89.4346Z" fill="white"/>
<path d="M82.092 59.9087C81.8767 61.6489 81.6649 63.2507 81.4854 64.8543C81.279 66.6988 79.9635 67.328 78.4578 66.2601C75.676 64.288 72.9193 62.2817 70.1232 60.333C69.7158 60.0489 69.1468 59.8674 68.6515 59.8638C63 59.8314 57.3484 59.8458 51.6951 59.8422C47.5691 59.8386 45.0475 57.2912 45.0547 53.1726C45.0637 47.1825 45.0457 41.1906 45.0619 35.2006C45.0709 32.0725 47.1276 29.642 50.1947 29.0865C50.6326 29.0074 51.0867 29.0038 51.5336 29.0038C62.3287 29.0002 73.1239 28.9984 83.9191 29.002C87.6251 29.0038 90.2633 31.6285 90.2669 35.3246C90.2741 41.4351 90.2759 47.5456 90.2669 53.6562C90.2615 57.2427 87.609 59.8889 84.0303 59.9087C83.4094 59.9105 82.7866 59.9087 82.092 59.9087ZM78.2227 61.7298C78.4129 60.351 78.5601 59.1375 78.7521 57.9294C78.9244 56.849 79.5669 56.3006 80.6473 56.2845C81.6936 56.2665 82.7399 56.2845 83.7862 56.2791C85.6043 56.2701 86.6452 55.2562 86.647 53.4602C86.6542 47.4414 86.6542 41.4243 86.647 35.4055C86.6452 33.6869 85.6151 32.6424 83.9244 32.6406C73.1347 32.6352 62.3431 32.6352 51.5533 32.6406C49.6653 32.6424 48.6962 33.6239 48.6944 35.5331C48.6872 41.4315 48.6908 47.3299 48.6926 53.2283C48.6944 55.3478 49.633 56.2773 51.7633 56.2791C57.562 56.2809 63.3607 56.2988 69.1594 56.2611C70.1142 56.2557 70.8805 56.5146 71.6397 57.0647C73.761 58.6089 75.9201 60.1047 78.2227 61.7298Z" fill="white"/>
<path d="M55.8033 115.998C49.6133 115.998 43.4252 115.998 37.2352 115.998C35.6254 115.998 35.0062 115.378 35.0062 113.778C35.0062 110.123 34.9901 106.47 35.0098 102.815C35.0475 95.8851 39.5055 90.2258 46.2303 88.6438C47.3807 88.3723 48.5957 88.2968 49.7838 88.286C53.8506 88.2447 57.9156 88.2609 61.9824 88.2771C70.3799 88.3112 76.6219 94.6033 76.6308 103.031C76.6344 106.625 76.6344 110.218 76.6308 113.814C76.629 115.369 76.0063 115.998 74.461 116C68.2424 116 62.0237 115.998 55.8033 115.998ZM46.3218 112.369C52.6877 112.369 58.9494 112.369 65.3188 112.369C65.3188 110.982 65.3009 109.643 65.3242 108.306C65.3439 107.178 66.0492 106.472 67.0938 106.467C68.149 106.463 68.8651 107.209 68.8885 108.394C68.9136 109.703 68.8939 111.011 68.8939 112.367C70.3188 112.367 71.6451 112.367 73.0001 112.367C73.0001 108.701 73.2819 105.057 72.9355 101.476C72.3899 95.8276 68.0934 92.0127 62.4491 91.8797C57.8474 91.7701 53.2368 91.7844 48.637 91.9085C43.7231 92.0415 39.3656 95.9822 38.7913 100.874C38.4897 103.446 38.6315 106.073 38.5885 108.674C38.5687 109.893 38.5849 111.112 38.5849 112.367C40.0081 112.367 41.3361 112.367 42.7522 112.367C42.7522 111.009 42.7342 109.699 42.7576 108.388C42.7791 107.202 43.4934 106.463 44.5559 106.467C45.6309 106.47 46.3057 107.195 46.32 108.399C46.3326 109.686 46.3218 110.974 46.3218 112.369Z" fill="white"/>
<path d="M65.8927 74.7491C65.986 77.3181 65.8819 79.4754 64.8572 81.5068C62.7897 85.6056 58.2096 87.8187 53.6582 86.8569C49.2091 85.9167 45.8799 81.9868 45.7633 77.4026C45.713 75.4035 45.6341 73.363 45.9589 71.4071C46.8042 66.3177 51.4687 62.8876 56.6966 63.2885C61.7039 63.6714 65.6845 67.817 65.8891 72.8758C65.9196 73.6237 65.8927 74.3716 65.8927 74.7491ZM62.4415 75.2399C62.3984 75.2363 62.3535 75.2345 62.3105 75.2309C62.3105 74.3931 62.3715 73.55 62.2997 72.7176C62.0143 69.3774 59.089 66.7491 55.758 66.7977C52.3983 66.8462 49.5322 69.4997 49.3312 72.8399C49.2396 74.3608 49.2396 75.8961 49.3276 77.4169C49.5142 80.6061 52.0555 83.1967 55.164 83.4681C58.3998 83.7504 61.3467 81.7441 62.1041 78.6142C62.3679 77.5284 62.3374 76.3689 62.4415 75.2399Z" fill="white"/>
<path d="M111.125 61.9024C111.263 64.3635 111.023 66.7383 109.693 68.9082C107.353 72.723 102.859 74.5711 98.5424 73.4529C94.1795 72.3221 91.1213 68.5954 90.9903 64.101C90.9329 62.1325 90.8521 60.1208 91.1662 58.1937C92.0151 53.0036 96.658 49.5843 102.01 49.9924C106.961 50.3699 110.933 54.5802 111.12 59.6588C111.148 60.4085 111.125 61.1581 111.125 61.9024ZM107.669 61.9042C107.627 61.9024 107.584 61.8988 107.543 61.897C107.543 61.0898 107.597 60.2772 107.534 59.4736C107.268 56.1245 104.393 53.4944 101.044 53.4962C97.7025 53.498 94.7825 56.1532 94.5654 59.4826C94.4649 61.0323 94.4649 62.5981 94.5582 64.1496C94.7484 67.2956 97.2736 69.8718 100.335 70.1612C103.609 70.4704 106.579 68.4552 107.338 65.2821C107.6 64.1927 107.566 63.0332 107.669 61.9042Z" fill="white"/>
<path d="M67.6783 41.3255C65.9697 41.3291 64.5878 42.7007 64.5824 44.3978C64.577 46.0481 66.0451 47.4935 67.6998 47.4683C69.3509 47.4432 70.7239 46.0679 70.7418 44.4212C70.7634 42.7313 69.3671 41.3219 67.6783 41.3255ZM54.1301 44.3475C54.1121 46.0517 55.4815 47.4576 57.1703 47.4701C58.8304 47.4827 60.2697 46.0481 60.2644 44.3816C60.259 42.7277 58.9058 41.3542 57.2475 41.3255C55.5353 41.2949 54.148 42.6378 54.1301 44.3475ZM81.1942 44.3762C81.1906 42.6917 79.8661 41.3416 78.2042 41.3273C76.4562 41.3129 75.0348 42.7223 75.0635 44.4391C75.0922 46.0625 76.5046 47.4576 78.1324 47.4683C79.8159 47.4809 81.1978 46.0859 81.1942 44.3762Z" fill="white"/>
<path d="M67.679 41.3254C69.3697 41.3219 70.7641 42.7313 70.7444 44.4212C70.7247 46.0679 69.3517 47.4432 67.7024 47.4683C66.0477 47.4935 64.5796 46.0481 64.585 44.3978C64.5886 42.7007 65.9705 41.329 67.679 41.3254Z" fill="white"/>
<path d="M54.1301 44.3475C54.148 42.6396 55.5353 41.2949 57.2475 41.3255C58.9058 41.356 60.2608 42.7277 60.2644 44.3816C60.2697 46.0481 58.8304 47.4827 57.1703 47.4701C55.4815 47.4576 54.1121 46.0499 54.1301 44.3475Z" fill="white"/>
<path d="M81.1947 44.3762C81.1983 46.0841 79.8163 47.4791 78.1329 47.4683C76.5051 47.4576 75.0927 46.0643 75.064 44.4391C75.0334 42.7223 76.4566 41.3129 78.2047 41.3273C79.8666 41.3416 81.1911 42.6917 81.1947 44.3762Z" fill="white"/>
</svg>
