<svg width="150" height="150" viewBox="0 0 150 150" fill="none" xmlns="http://www.w3.org/2000/svg">
<path d="M74.5239 118.353C60.7425 118.353 46.9611 118.34 33.1771 118.358C27.9549 118.366 23.1475 116.983 18.8453 114.029C14.3011 110.909 11.1157 106.692 9.33953 101.431C7.89571 97.1555 7.61386 92.7967 8.56577 88.387C9.74369 82.9257 12.4239 78.3394 16.6384 74.6736C19.4117 72.2627 22.5679 70.5636 26.0936 69.5736C27.0934 69.2926 28.1171 69.092 29.1435 68.9287C30.2948 68.7468 30.324 68.7735 30.0262 67.6711C29.2551 64.808 28.9174 61.8914 29.0531 58.9374C29.3828 51.7503 31.829 45.3953 36.5779 39.9715C39.7181 36.3833 43.4566 33.6272 47.8652 31.8425C52.521 29.9587 57.3417 29.2175 62.3672 29.7661C70.6099 30.6651 77.3398 34.3631 82.671 40.6913C84.4232 42.773 85.8245 45.0956 86.928 47.5921C87.2949 48.4189 87.3029 48.4216 88.0633 47.9774C93.1154 45.0234 98.5476 43.9664 104.302 44.8575C108.949 45.5772 113.081 47.5145 116.655 50.6291C119.516 53.1229 121.691 56.1171 123.194 59.6037C124.401 62.4079 125.071 65.3512 125.19 68.4043C125.214 69.009 125.456 69.2391 125.967 69.4559C132.782 72.3564 137.539 77.2691 140.147 84.2529C141.665 88.3228 142.085 92.5291 141.413 96.813C140.668 101.554 138.751 105.788 135.627 109.443C133.042 112.469 129.931 114.767 126.283 116.33C123.38 117.574 120.348 118.307 117.198 118.324C107.471 118.372 97.7446 118.35 88.0155 118.353C83.5165 118.356 79.0202 118.353 74.5213 118.353C74.5239 118.353 74.5239 118.353 74.5239 118.353ZM84.2211 58.2122C83.5059 56.4757 82.8252 54.8863 82.195 53.2754C80.8416 49.8157 79.225 46.5245 76.6511 43.7818C73.3194 40.2284 69.2991 37.8737 64.5794 36.7953C60.8356 35.9391 57.0811 35.9819 53.34 36.9907C49.8807 37.9245 46.7644 39.5005 44.0549 41.8365C39.431 45.8207 36.6763 50.8592 35.8307 56.9439C35.3628 60.3101 35.6685 63.6093 36.6045 66.8577C37.2932 69.2498 37.9951 71.6393 38.7131 74.0234C38.8327 74.4221 38.6971 74.5586 38.3381 74.6014C38.0297 74.6388 37.7239 74.687 37.4155 74.7218C34.9294 74.9894 32.4379 75.2141 29.9571 75.5325C26.1867 76.0169 22.9614 77.6973 20.2359 80.3249C17.2313 83.2227 15.4152 86.7467 14.8117 90.9183C14.4421 93.479 14.6149 95.9808 15.3116 98.4532C16.3113 102.001 18.2258 104.974 21.0124 107.358C24.0569 109.964 27.588 111.498 31.5844 111.65C35.3894 111.797 39.205 111.712 43.0153 111.712C67.3394 111.714 91.6636 111.725 115.99 111.693C117.591 111.69 119.224 111.508 120.787 111.163C124.978 110.235 128.432 107.995 131.056 104.599C134.704 99.8794 135.951 94.5466 134.595 88.684C133.452 83.7445 130.681 79.9315 126.493 77.1407C124.27 75.661 121.723 74.9332 119.272 73.9859C118.817 73.8093 118.647 73.5739 118.649 73.1083C118.657 71.8373 118.636 70.5663 118.628 69.2953C118.612 66.8122 118.152 64.412 117.11 62.167C114.313 56.1519 109.694 52.4995 103.137 51.4131C99.7176 50.8458 96.3965 51.2633 93.2882 52.7483C91.2621 53.7169 89.3822 55.004 87.4491 56.1706C86.3935 56.8075 85.3618 57.4871 84.2211 58.2122Z" fill="#31ACDD"/>
<path d="M52.484 99.33C51.076 99.33 49.734 99.11 48.458 98.67C47.182 98.23 46.071 97.614 45.125 96.822C44.179 96.03 43.486 95.117 43.046 94.083C42.826 93.621 42.826 93.192 43.046 92.796C43.288 92.4 43.684 92.147 44.234 92.037C44.63 91.949 45.015 92.015 45.389 92.235C45.785 92.433 46.082 92.741 46.28 93.159C46.544 93.709 46.973 94.215 47.567 94.677C48.183 95.139 48.92 95.513 49.778 95.799C50.636 96.085 51.538 96.228 52.484 96.228C53.54 96.228 54.508 96.063 55.388 95.733C56.29 95.403 57.016 94.93 57.566 94.314C58.116 93.676 58.391 92.895 58.391 91.971C58.391 90.805 57.929 89.76 57.005 88.836C56.103 87.912 54.607 87.34 52.517 87.12C49.789 86.856 47.644 86.053 46.082 84.711C44.52 83.369 43.739 81.708 43.739 79.728C43.739 78.276 44.146 77.044 44.96 76.032C45.774 75.02 46.874 74.25 48.26 73.722C49.668 73.194 51.23 72.93 52.946 72.93C54.948 72.93 56.587 73.337 57.863 74.151C59.139 74.965 60.195 76.043 61.031 77.385C61.339 77.869 61.46 78.331 61.394 78.771C61.35 79.189 61.141 79.519 60.767 79.761C60.349 80.025 59.898 80.08 59.414 79.926C58.93 79.772 58.567 79.486 58.325 79.068C57.775 78.122 57.06 77.385 56.18 76.857C55.322 76.329 54.211 76.054 52.847 76.032C51.219 76.01 49.855 76.318 48.755 76.956C47.655 77.572 47.105 78.529 47.105 79.827C47.105 80.487 47.27 81.125 47.6 81.741C47.952 82.335 48.579 82.852 49.481 83.292C50.405 83.732 51.725 84.04 53.441 84.216C56.059 84.48 58.094 85.283 59.546 86.625C61.02 87.945 61.757 89.694 61.757 91.872C61.757 93.126 61.493 94.215 60.965 95.139C60.459 96.063 59.766 96.844 58.886 97.482C58.028 98.098 57.038 98.56 55.916 98.868C54.816 99.176 53.672 99.33 52.484 99.33ZM68.7357 99C68.2517 99 67.8447 98.835 67.5147 98.505C67.1847 98.175 67.0197 97.768 67.0197 97.284V74.943C67.0197 74.437 67.1847 74.03 67.5147 73.722C67.8447 73.392 68.2517 73.227 68.7357 73.227H83.6517C84.1577 73.227 84.5647 73.381 84.8727 73.689C85.1807 73.975 85.3347 74.36 85.3347 74.844C85.3347 75.306 85.1807 75.68 84.8727 75.966C84.5647 76.252 84.1577 76.395 83.6517 76.395H70.4517V84.414H79.9227C80.4287 84.414 80.8357 84.568 81.1437 84.876C81.4517 85.162 81.6057 85.536 81.6057 85.998C81.6057 86.46 81.4517 86.845 81.1437 87.153C80.8357 87.439 80.4287 87.582 79.9227 87.582H70.4517V95.832H83.6517C84.1577 95.832 84.5647 95.975 84.8727 96.261C85.1807 96.547 85.3347 96.921 85.3347 97.383C85.3347 97.867 85.1807 98.263 84.8727 98.571C84.5647 98.857 84.1577 99 83.6517 99H68.7357ZM102.039 99.33C100.103 99.33 98.3322 99.011 96.7262 98.373C95.1202 97.713 93.7342 96.8 92.5682 95.634C91.4242 94.446 90.5332 93.049 89.8952 91.443C89.2572 89.815 88.9382 88.033 88.9382 86.097C88.9382 84.161 89.2572 82.39 89.8952 80.784C90.5332 79.178 91.4242 77.792 92.5682 76.626C93.7342 75.438 95.1202 74.525 96.7262 73.887C98.3322 73.227 100.103 72.897 102.039 72.897C103.975 72.897 105.735 73.227 107.319 73.887C108.925 74.525 110.311 75.438 111.477 76.626C112.643 77.792 113.545 79.178 114.183 80.784C114.821 82.39 115.14 84.161 115.14 86.097C115.14 88.033 114.821 89.815 114.183 91.443C113.545 93.049 112.643 94.446 111.477 95.634C110.311 96.8 108.925 97.713 107.319 98.373C105.735 99.011 103.975 99.33 102.039 99.33ZM102.039 96.228C103.953 96.228 105.647 95.788 107.121 94.908C108.595 94.006 109.75 92.796 110.586 91.278C111.422 89.738 111.84 88.011 111.84 86.097C111.84 84.183 111.422 82.467 110.586 80.949C109.75 79.409 108.595 78.199 107.121 77.319C105.647 76.439 103.953 75.999 102.039 75.999C100.125 75.999 98.4312 76.439 96.9572 77.319C95.4832 78.199 94.3282 79.409 93.4922 80.949C92.6562 82.467 92.2382 84.183 92.2382 86.097C92.2382 88.011 92.6562 89.738 93.4922 91.278C94.3282 92.796 95.4832 94.006 96.9572 94.908C98.4312 95.788 100.125 96.228 102.039 96.228Z" fill="#31ACDD"/>
</svg>
