<svg width="150" height="150" viewBox="0 0 150 150" fill="none" xmlns="http://www.w3.org/2000/svg">
<rect width="150" height="150" />
<circle cx="75" cy="75" r="62" fill="#31ACDD"/>
<path d="M75.481 105.611C62.635 105.611 49.7891 105.613 36.9449 105.607C36.3784 105.607 35.8048 105.595 35.2455 105.514C32.0869 105.06 30.5022 103.417 30.1383 100.228C30.063 99.5771 30.0074 98.9186 30.0056 98.2637C29.9984 80.2948 29.9967 62.3241 30.0092 44.3552C30.0092 43.5227 30.0684 42.6758 30.2136 41.8577C30.7496 38.8398 32.7089 37.1569 36.0055 37.069C39.797 36.9685 43.5919 37.008 47.3851 37.0062C69.4022 37.0008 91.4193 37.0008 113.436 37.0044C114.241 37.0044 115.06 36.9882 115.849 37.1174C119.108 37.6521 120.741 39.5898 120.98 43.1316C121.003 43.4886 120.999 43.8492 120.999 44.2081C120.999 62.238 121.003 80.2679 120.992 98.296C120.992 99.159 120.94 100.036 120.784 100.883C120.252 103.784 118.293 105.475 115.182 105.55C111.391 105.643 107.596 105.6 103.801 105.602C94.361 105.607 84.921 105.604 75.481 105.604C75.481 105.607 75.481 105.609 75.481 105.611ZM75.5545 41.2979C62.5884 41.2979 49.6223 41.2961 36.6581 41.2997C33.9655 41.3015 33.806 41.4486 33.8042 44.1273C33.7934 59.0784 33.7916 74.0277 33.7952 88.9788C33.7952 91.6754 33.9225 91.7813 36.6437 91.7831C62.4253 91.7938 88.2087 91.8028 113.99 91.8136C116.806 91.8154 117.244 91.374 117.24 88.5302C117.221 73.7298 117.199 58.9277 117.178 44.1273C117.174 41.4091 117.07 41.2979 114.363 41.2979C101.426 41.2943 88.4901 41.2961 75.5545 41.2979ZM78.0373 98.5203C78.0445 97.1047 76.9133 95.9438 75.5115 95.9313C74.1132 95.9187 72.9588 97.0706 72.9516 98.4844C72.9444 99.8965 74.081 101.063 75.4756 101.075C76.8649 101.088 78.0283 99.927 78.0373 98.5203Z" fill="white"/>
<path d="M68.0571 109.556C73.0513 109.556 77.9345 109.556 82.9413 109.556C82.9413 110.654 82.9969 111.727 82.9287 112.791C82.8248 114.39 83.4683 115.658 84.7608 116.441C86.2003 117.313 87.785 117.946 89.3105 118.676C89.4682 118.752 89.6565 118.764 89.8286 118.813C90.7034 119.057 91.1479 119.604 91.0135 120.325C90.8611 121.14 90.3269 121.42 89.5238 121.416C85.6141 121.398 81.7026 121.409 77.7929 121.409C72.51 121.409 67.2271 121.409 61.9424 121.407C60.5531 121.407 60.0584 121.116 59.9723 120.257C59.8917 119.45 60.3846 119.128 61.5696 118.671C63.1417 118.064 64.6995 117.361 66.1479 116.505C67.5139 115.7 68.1844 114.39 68.0696 112.721C67.9997 111.686 68.0571 110.644 68.0571 109.556Z" fill="white"/>
<line x1="37" y1="44.5" x2="66" y2="44.5" stroke="white"/>
<line x1="37" y1="48.5" x2="54" y2="48.5" stroke="white"/>
<line x1="37" y1="52.5" x2="58" y2="52.5" stroke="white"/>
<line x1="37" y1="56.5" x2="49" y2="56.5" stroke="white"/>
<line x1="37" y1="60.5" x2="66" y2="60.5" stroke="white"/>
<line x1="37" y1="64.5" x2="55" y2="64.5" stroke="white"/>
<line x1="37" y1="68.5" x2="45" y2="68.5" stroke="white"/>
<line x1="37" y1="72.5" x2="54" y2="72.5" stroke="white"/>
<line x1="37" y1="76.5" x2="60" y2="76.5" stroke="white"/>
<line x1="37" y1="80.5" x2="51" y2="80.5" stroke="white"/>
<line x1="37" y1="84.5" x2="71" y2="84.5" stroke="white"/>
<line x1="37" y1="88.5" x2="61" y2="88.5" stroke="white"/>
<path d="M105.634 75.1292L103.144 76.0832C102.114 76.4777 100.955 75.9608 100.561 74.9311L99.6728 72.6127C98.7877 72.6877 97.8988 72.6634 97.017 72.54L96.0057 74.8087C95.5702 75.7851 94.3402 76.2549 93.3642 75.8206L90.9286 74.7348C90.4406 74.5177 90.0665 74.1227 89.8755 73.624C89.6845 73.1254 89.6989 72.5816 89.9168 72.094L90.9286 69.8245C90.2489 69.2524 89.637 68.6073 89.1017 67.8979L86.784 68.7858C85.7543 69.1803 84.5953 68.6634 84.2008 67.6337L83.2468 65.1435C83.0556 64.6442 83.0702 64.1011 83.2876 63.6137C83.5056 63.1261 83.8997 62.7517 84.399 62.5604L86.7173 61.6722C86.6428 60.7883 86.6663 59.8991 86.7899 59.0179L84.5216 58.0057C83.5142 57.5564 83.0606 56.3723 83.5099 55.3649L84.5957 52.9292C85.0311 51.9543 86.2607 51.4817 87.2372 51.9172L89.506 52.9292C90.0793 52.2491 90.7244 51.6371 91.432 51.1026L90.5438 48.7842C90.1494 47.7546 90.6663 46.5956 91.696 46.2011L94.1861 45.2471C95.2158 44.8526 96.3748 45.3695 96.7693 46.3992L97.6575 48.7176C98.5426 48.6426 99.4314 48.6669 100.311 48.7897L101.323 46.5209C101.759 45.5457 102.988 45.0734 103.964 45.5089L106.4 46.5947C106.888 46.8119 107.262 47.2068 107.453 47.7055C107.644 48.2042 107.63 48.748 107.412 49.2356L106.4 51.5042C107.081 52.0772 107.693 52.7223 108.228 53.4312L110.546 52.5432C111.575 52.1488 112.734 52.6657 113.129 53.6954L114.083 56.1855C114.274 56.6848 114.26 57.228 114.042 57.7154C113.825 58.2027 113.43 58.5774 112.931 58.7687L110.612 59.6569C110.687 60.542 110.663 61.4314 110.54 62.3118L112.808 63.324C113.816 63.7733 114.269 64.9574 113.82 65.9648L112.734 68.4005C112.299 69.3763 111.069 69.8473 110.093 69.4124L107.825 68.4C107.252 69.0807 106.606 69.6923 105.899 70.2275L106.787 72.5458C107.181 73.5757 106.665 74.7345 105.634 75.1292ZM96.3793 71.1773C96.4907 71.1346 96.6149 71.1213 96.7385 71.144C97.8265 71.3454 98.9326 71.3757 100.026 71.2343C100.332 71.1951 100.624 71.3694 100.734 71.657L101.806 74.4541C101.938 74.7977 102.324 74.9695 102.667 74.8381L105.157 73.8841C105.5 73.7527 105.673 73.3667 105.541 73.0231L104.47 70.226C104.36 69.9384 104.461 69.6133 104.714 69.4384C105.621 68.8132 106.424 68.0529 107.1 67.1752C107.289 66.9307 107.618 66.848 107.9 66.9729L110.636 68.194C110.959 68.3374 111.373 68.1803 111.517 67.8566L112.603 65.4209C112.753 65.0851 112.602 64.6904 112.266 64.5406L109.528 63.3198C109.247 63.1948 109.088 62.8922 109.144 62.5895C109.346 61.5029 109.375 60.3971 109.234 59.3026C109.194 58.9973 109.369 58.7041 109.656 58.5939L112.453 57.5223C112.62 57.4587 112.752 57.3338 112.824 57.1711C112.897 57.0104 112.902 56.8294 112.838 56.6625L111.884 54.1724C111.752 53.8287 111.366 53.6569 111.023 53.7883L108.226 54.8599C107.938 54.9701 107.612 54.8693 107.438 54.6149C106.813 53.707 106.052 52.9041 105.175 52.2291C104.931 52.0413 104.848 51.7114 104.973 51.4292L106.194 48.6919C106.265 48.5311 106.27 48.3456 106.208 48.1819C106.145 48.0182 106.017 47.8831 105.857 47.8116L103.421 46.7258C103.096 46.5813 102.686 46.7384 102.54 47.0633L101.319 49.8006C101.195 50.0825 100.893 50.2414 100.589 50.1846C99.5033 49.9837 98.3978 49.9531 97.3034 50.0947C96.999 50.135 96.706 49.9609 96.5958 49.6733L95.5242 46.8762C95.3925 46.5326 95.0062 46.3608 94.6631 46.4922L92.173 47.4462C91.8299 47.5776 91.6573 47.9636 91.7889 48.3072L92.8605 51.1043C92.9707 51.3919 92.8696 51.717 92.6161 51.8919C91.7088 52.5165 90.9059 53.2774 90.2303 54.1545C90.0419 54.3987 89.712 54.4823 89.431 54.3565L86.6938 53.1356C86.3685 52.9911 85.9583 53.1483 85.8129 53.4731L84.7274 55.9079C84.5776 56.2437 84.7288 56.6384 85.0647 56.7882L87.8019 58.0091C88.0832 58.134 88.242 58.4366 88.1859 58.7393C87.9845 59.8274 87.9548 60.9332 88.0963 62.0256C88.1362 62.3308 87.9615 62.6241 87.6739 62.7343L84.8762 63.8061C84.71 63.8698 84.5779 63.9946 84.5053 64.1574C84.4329 64.3186 84.428 64.4997 84.4919 64.6665L85.4459 67.1567C85.5776 67.5003 85.964 67.6721 86.307 67.5407L89.1041 66.4691C89.3917 66.3589 89.7173 66.4598 89.8919 66.7142C90.5176 67.6224 91.2785 68.4254 92.1542 69.0993C92.3982 69.2871 92.4818 69.6171 92.3565 69.8993L91.1359 72.6371C91.0647 72.7979 91.0593 72.9834 91.1221 73.1472C91.1848 73.3109 91.3129 73.446 91.4731 73.5174L93.9088 74.6033C94.2334 74.748 94.6443 74.5906 94.7897 74.2658L96.0099 71.5287C96.0832 71.3622 96.2181 71.2391 96.3793 71.1773Z" fill="white"/>
<path d="M101.05 66.8906C97.6175 68.2057 93.7548 66.4829 92.4397 63.0502C91.1246 59.6175 92.8474 55.7548 96.2801 54.4397C99.7128 53.1246 103.575 54.8474 104.891 58.2801C106.206 61.7128 104.484 65.5753 101.05 66.8906ZM96.7571 55.6848C94.0111 56.7369 92.6328 59.8272 93.6848 62.5732C94.7368 65.3192 97.8271 66.6976 100.573 65.6455C103.319 64.5935 104.698 61.5032 103.646 58.7571C102.593 56.0111 99.5038 54.6325 96.7571 55.6848Z" fill="white"/>
<mask id="mask0" mask-type="alpha" maskUnits="userSpaceOnUse" x="91" y="70" width="33" height="33">
<path d="M115.506 94.8601L114.037 96.0484C113.429 96.5398 112.535 96.4454 112.044 95.8381L110.938 94.4706C110.358 94.715 109.753 94.8933 109.132 95.0034L108.948 96.7535C108.868 97.5068 108.142 98.0928 107.39 98.014L105.511 97.816C105.134 97.7766 104.796 97.5924 104.558 97.2983C104.32 97.0042 104.21 96.6346 104.251 96.2583L104.435 94.5076C103.852 94.271 103.298 93.9704 102.782 93.6096L101.415 94.7157C100.808 95.2071 99.9134 95.1127 99.4221 94.5053L98.2337 93.0365C97.9955 92.742 97.8864 92.3728 97.926 91.9968C97.9661 91.6205 98.1496 91.2819 98.4441 91.0436L99.8116 89.9373C99.5678 89.3581 99.3888 88.7538 99.279 88.133L97.529 87.9479C96.7517 87.8658 96.1867 87.1674 96.2687 86.3902L96.4668 84.5112C96.5465 83.7589 97.2715 83.1712 98.0248 83.2507L99.7752 83.4355C100.013 82.8516 100.313 82.298 100.673 81.7828L99.5664 80.4153C99.0751 79.808 99.1695 78.9138 99.7768 78.4225L101.246 77.2341C101.853 76.7427 102.747 76.8371 103.239 77.4445L104.345 78.812C104.925 78.5676 105.529 78.3892 106.149 78.2793L106.333 76.5289C106.413 75.7763 107.138 75.1889 107.891 75.2684L109.77 75.4664C110.147 75.5058 110.485 75.69 110.723 75.9841C110.961 76.2783 111.071 76.6478 111.031 77.0241L110.846 78.7742C111.43 79.0112 111.984 79.3118 112.5 79.6722L113.867 78.5662C114.474 78.0748 115.368 78.1692 115.86 78.7765L117.048 80.2454C117.286 80.5399 117.395 80.9091 117.356 81.2851C117.316 81.661 117.132 82 116.838 82.2382L115.47 83.3446C115.715 83.9245 115.893 84.5291 116.003 85.1492L117.753 85.3343C118.53 85.4164 119.095 86.1148 119.013 86.892L118.815 88.771C118.736 89.5239 118.01 90.1107 117.257 90.0315L115.508 89.8461C115.271 90.4304 114.969 90.9839 114.61 91.4995L115.716 92.867C116.207 93.4746 116.113 94.3684 115.506 94.8601ZM108.404 94.225C108.47 94.1718 108.55 94.1356 108.639 94.1238C109.416 94.0211 110.168 93.7992 110.874 93.4644C111.071 93.371 111.306 93.4244 111.444 93.594L112.778 95.2439C112.942 95.4466 113.24 95.4777 113.443 95.314L114.911 94.1257C115.114 93.962 115.146 93.6641 114.982 93.4614L113.647 91.8115C113.51 91.6419 113.506 91.4008 113.639 91.2274C114.113 90.6074 114.488 89.9192 114.75 89.1798C114.824 88.9737 115.028 88.8458 115.245 88.8683L117.357 89.0916C117.605 89.1175 117.85 88.921 117.876 88.6712L118.074 86.7922C118.101 86.5331 117.913 86.3003 117.654 86.273L115.542 86.05C115.325 86.0275 115.152 85.8584 115.124 85.6421C115.021 84.8659 114.799 84.1143 114.464 83.4079C114.37 83.211 114.423 82.9751 114.593 82.8379L116.243 81.5031C116.341 81.4238 116.403 81.3107 116.416 81.1852C116.43 81.061 116.393 80.9379 116.314 80.8395L115.125 79.3707C114.961 79.168 114.663 79.1369 114.461 79.3006L112.811 80.6354C112.642 80.7726 112.4 80.776 112.227 80.6428C111.607 80.168 110.918 79.7937 110.18 79.531C109.974 79.4579 109.845 79.2539 109.868 79.0364L110.091 76.9246C110.104 76.8007 110.067 76.6745 109.989 76.5779C109.91 76.4813 109.794 76.4184 109.671 76.4053L107.792 76.2073C107.541 76.1812 107.299 76.377 107.272 76.6277L107.049 78.7395C107.027 78.9568 106.859 79.1298 106.641 79.1582C105.866 79.2607 105.114 79.4823 104.408 79.8175C104.212 79.9113 103.976 79.8582 103.839 79.6885L102.504 78.0387C102.34 77.836 102.042 77.8048 101.84 77.9685L100.371 79.1569C100.169 79.3206 100.137 79.6185 100.301 79.8212L101.636 81.471C101.773 81.6407 101.776 81.8818 101.643 82.0552C101.169 82.6748 100.795 83.3634 100.532 84.1024C100.458 84.3082 100.254 84.4368 100.037 84.4136L97.9256 84.1907C97.6748 84.1645 97.4328 84.3603 97.406 84.611L97.2081 86.4893C97.1807 86.7484 97.3691 86.9812 97.6281 87.0086L99.7399 87.2315C99.9568 87.2541 100.13 87.4232 100.159 87.6394C100.261 88.4167 100.484 89.1682 100.818 89.8732C100.912 90.0702 100.858 90.306 100.689 90.4433L99.0386 91.7784C98.9405 91.8577 98.8789 91.9708 98.8656 92.0963C98.8522 92.2208 98.8885 92.3439 98.9682 92.4423L100.156 93.9111C100.32 94.1138 100.618 94.145 100.821 93.9813L102.471 92.6465C102.64 92.5092 102.882 92.5058 103.055 92.639C103.676 93.1139 104.364 93.4882 105.102 93.7504C105.308 93.8235 105.436 94.0275 105.414 94.2451L105.191 96.3573C105.178 96.4812 105.215 96.6073 105.293 96.7039C105.371 96.8005 105.487 96.8634 105.611 96.8765L107.49 97.0745C107.74 97.1009 107.983 96.9049 108.01 96.6541L108.232 94.5427C108.245 94.4144 108.309 94.3019 108.404 94.225Z" fill="white"/>
<path d="M110.612 90.3133C108.587 91.9515 105.607 91.6369 103.969 89.6121C102.331 87.5873 102.645 84.6073 104.67 82.9692C106.695 81.3311 109.675 81.6457 111.313 83.6704C112.951 85.6952 112.637 88.6749 110.612 90.3133ZM105.264 83.7036C103.645 85.014 103.393 87.3982 104.703 89.0179C106.014 90.6377 108.398 90.8894 110.018 89.5789C111.637 88.2685 111.889 85.8844 110.579 84.2646C109.268 82.6449 106.884 82.3929 105.264 83.7036Z" fill="white"/>
</mask>
<g mask="url(#mask0)">
<rect x="86.2998" y="60.8" width="31" height="31" rx="1" fill="white"/>
</g>
</svg>
