<svg width="150" height="150" viewBox="0 0 150 150" fill="none" xmlns="http://www.w3.org/2000/svg">
<path d="M76.8768 112.871C58.5525 112.871 40.2283 112.873 21.9066 112.866C21.0985 112.866 20.2803 112.848 19.4824 112.733C14.9768 112.085 12.7163 109.741 12.1972 105.193C12.0898 104.264 12.0106 103.324 12.008 102.39C11.9978 76.7583 11.9952 51.1238 12.0131 25.4919C12.0131 24.3044 12.0975 23.0964 12.3046 21.9293C13.0692 17.6245 15.8641 15.2238 20.5667 15.0984C25.975 14.9551 31.3884 15.0114 36.7992 15.0088C68.2056 15.0011 99.6121 15.0011 131.019 15.0062C132.167 15.0062 133.335 14.9832 134.46 15.1675C139.109 15.9302 141.439 18.6943 141.779 23.7464C141.812 24.2557 141.807 24.7702 141.807 25.282C141.807 51.001 141.812 76.7199 141.797 102.436C141.797 103.667 141.723 104.919 141.5 106.127C140.741 110.265 137.946 112.676 133.509 112.784C128.101 112.917 122.687 112.855 117.274 112.858C103.808 112.866 90.3425 112.861 76.8768 112.861C76.8768 112.866 76.8768 112.868 76.8768 112.871ZM76.9816 21.1308C58.4861 21.1308 39.9905 21.1282 21.4974 21.1333C17.6567 21.1359 17.4291 21.3458 17.4265 25.1669C17.4112 46.4939 17.4086 67.8185 17.4137 89.1456C17.4137 92.9923 17.5953 93.1433 21.477 93.1458C58.2534 93.1612 95.0323 93.174 131.809 93.1893C135.826 93.1919 136.45 92.5623 136.445 88.5057C136.417 67.3936 136.386 46.279 136.355 25.1669C136.35 21.2894 136.202 21.1308 132.341 21.1308C113.886 21.1257 95.4337 21.1282 76.9816 21.1308ZM80.5232 102.756C80.5335 100.737 78.9199 99.081 76.9203 99.063C74.9257 99.0451 73.2789 100.688 73.2687 102.705C73.2585 104.719 74.8797 106.383 76.8691 106.401C78.8509 106.419 80.5105 104.763 80.5232 102.756Z" fill="#31ACDD"/>
<path d="M66.2868 118.499C73.4109 118.499 80.3765 118.499 87.5185 118.499C87.5185 120.065 87.5978 121.596 87.5006 123.113C87.3523 125.394 88.2703 127.203 90.114 128.319C92.1673 129.563 94.4278 130.466 96.6039 131.508C96.829 131.615 97.0975 131.633 97.3429 131.702C98.5908 132.05 99.225 132.831 99.0332 133.86C98.8158 135.022 98.0538 135.421 96.9082 135.416C91.3312 135.39 85.7516 135.406 80.1745 135.406C72.6387 135.406 65.1029 135.406 57.5645 135.403C55.5828 135.403 54.877 134.989 54.7543 133.763C54.6392 132.611 55.3424 132.153 57.0327 131.5C59.2752 130.635 61.4974 129.632 63.5635 128.411C65.512 127.262 66.4684 125.394 66.3047 123.013C66.205 121.537 66.2868 120.05 66.2868 118.499Z" fill="#31ACDD"/>
<path d="M43 44.2318L46.9845 48L56 37" stroke="#31ACDD" stroke-width="2"/>
<rect x="40" y="33" width="19" height="20" rx="1" stroke="#31ACDD" stroke-width="2"/>
<line x1="65" y1="35" x2="112" y2="35" stroke="#31ACDD" stroke-width="4" stroke-linecap="round"/>
<line x1="65" y1="43" x2="103" y2="43" stroke="#31ACDD" stroke-width="4" stroke-linecap="round"/>
<path d="M43 74.2318L46.9845 78L56 67" stroke="#31ACDD" stroke-width="2"/>
<rect x="40" y="63" width="19" height="20" rx="1" stroke="#31ACDD" stroke-width="2"/>
<line x1="65" y1="65" x2="95" y2="65" stroke="#31ACDD" stroke-width="4" stroke-linecap="round"/>
<line x1="65" y1="73" x2="110" y2="73" stroke="#31ACDD" stroke-width="4" stroke-linecap="round"/>
</svg>
