<svg width="150" height="150" viewBox="0 0 150 150" fill="none" xmlns="http://www.w3.org/2000/svg">
<path fill-rule="evenodd" clip-rule="evenodd" d="M112.857 44.8571V52.4286C121.186 52.4286 128 59.2428 128 67.5714V128.143C128 136.471 121.186 143.286 112.857 143.286H37.1429C28.8143 143.286 22 136.471 22 128.143V67.5714C22 59.2428 28.8143 52.4286 37.1429 52.4286V44.8571C37.1429 23.96 54.1029 7 75 7C95.8971 7 112.857 23.96 112.857 44.8571ZM52.2856 52.4285H97.7141V44.8571C97.7141 32.2885 87.5684 22.1428 74.9999 22.1428C62.4313 22.1428 52.2856 32.2885 52.2856 44.8571V52.4285Z" fill="white"/>
<circle cx="75" cy="91" r="11" fill="#394768"/>
<rect x="69.5" y="95" width="11" height="23" rx="5.5" fill="#394768"/>
</svg>
