<svg width="150" height="150" viewBox="0 0 150 150" fill="none" xmlns="http://www.w3.org/2000/svg">
<rect width="150" height="150" />
<circle cx="75" cy="75" r="62" fill="#31ACDD"/>
<path d="M75.481 105.611C62.635 105.611 49.7891 105.613 36.9449 105.607C36.3784 105.607 35.8048 105.595 35.2455 105.514C32.0869 105.06 30.5022 103.417 30.1383 100.228C30.063 99.5771 30.0074 98.9186 30.0056 98.2637C29.9984 80.2948 29.9967 62.3241 30.0092 44.3552C30.0092 43.5227 30.0684 42.6758 30.2136 41.8577C30.7496 38.8398 32.7089 37.1569 36.0055 37.069C39.797 36.9685 43.5919 37.008 47.3851 37.0062C69.4022 37.0008 91.4193 37.0008 113.436 37.0044C114.241 37.0044 115.06 36.9882 115.849 37.1174C119.108 37.6521 120.741 39.5898 120.98 43.1316C121.003 43.4886 120.999 43.8492 120.999 44.2081C120.999 62.238 121.003 80.2679 120.992 98.296C120.992 99.159 120.94 100.036 120.784 100.883C120.252 103.784 118.293 105.475 115.182 105.55C111.391 105.643 107.596 105.6 103.801 105.602C94.361 105.607 84.921 105.604 75.481 105.604C75.481 105.607 75.481 105.609 75.481 105.611ZM75.5545 41.2979C62.5884 41.2979 49.6223 41.2961 36.6581 41.2997C33.9655 41.3015 33.806 41.4486 33.8042 44.1273C33.7934 59.0784 33.7916 74.0277 33.7952 88.9788C33.7952 91.6754 33.9225 91.7813 36.6437 91.7831C62.4253 91.7938 88.2087 91.8028 113.99 91.8136C116.806 91.8154 117.244 91.374 117.24 88.5302C117.221 73.7298 117.199 58.9277 117.178 44.1273C117.174 41.4091 117.07 41.2979 114.363 41.2979C101.426 41.2943 88.4901 41.2961 75.5545 41.2979ZM78.0373 98.5203C78.0445 97.1047 76.9133 95.9438 75.5115 95.9313C74.1132 95.9187 72.9588 97.0706 72.9516 98.4844C72.9444 99.8965 74.081 101.063 75.4756 101.075C76.8649 101.088 78.0283 99.927 78.0373 98.5203Z" fill="white"/>
<path d="M68.0571 109.556C73.0513 109.556 77.9345 109.556 82.9413 109.556C82.9413 110.654 82.9969 111.727 82.9287 112.791C82.8248 114.39 83.4683 115.658 84.7608 116.441C86.2003 117.313 87.785 117.946 89.3105 118.676C89.4682 118.752 89.6565 118.764 89.8286 118.813C90.7034 119.057 91.1479 119.604 91.0135 120.325C90.8611 121.14 90.3269 121.42 89.5238 121.416C85.6141 121.398 81.7026 121.409 77.7929 121.409C72.51 121.409 67.2271 121.409 61.9424 121.407C60.5531 121.407 60.0584 121.116 59.9723 120.257C59.8917 119.45 60.3846 119.128 61.5696 118.671C63.1417 118.064 64.6995 117.361 66.1479 116.505C67.5139 115.7 68.1844 114.39 68.0696 112.721C67.9997 111.686 68.0571 110.644 68.0571 109.556Z" fill="white"/>
<rect x="46" y="57" width="58" height="16" rx="2" fill="#E4F3FA"/>
<path d="M100.404 70.8064C96.2912 69.2296 92.2165 67.6672 88.111 66.093C89.6924 70.192 91.2586 74.2511 92.8394 78.3477C93.4256 77.1618 93.9921 76.0156 94.5727 74.8405C95.9216 76.1868 97.2473 77.5101 98.5572 78.8179C99.3314 78.0465 100.104 77.276 100.887 76.495C99.5712 75.1842 98.2445 73.8632 96.9022 72.5264C98.0681 71.9539 99.2185 71.3888 100.404 70.8064ZM92.2066 63.1004C91.6864 63.6193 91.1678 64.1366 90.6615 64.6413C90.9019 64.8823 91.1572 65.1378 91.3908 65.3719C91.9047 64.8606 92.4236 64.344 92.9395 63.8304C92.6993 63.5913 92.447 63.3401 92.2066 63.1004ZM85.1411 70.1265C85.3855 70.3714 85.6402 70.6263 85.8806 70.8673C86.3959 70.354 86.9141 69.8374 87.4217 69.3313C87.179 69.0883 86.9247 68.8338 86.6809 68.5898C86.1729 69.0965 85.6577 69.6108 85.1411 70.1265ZM87.4359 64.638C86.9217 64.1247 86.4022 63.6065 85.8902 63.0951C85.6425 63.3421 85.3865 63.5972 85.1391 63.8442C85.6508 64.3555 86.1696 64.8748 86.6822 65.3874C86.9326 65.1385 87.1886 64.884 87.4359 64.638ZM89.5415 64.1972C89.5415 63.4507 89.5415 62.7247 89.5415 62C89.1716 62 88.8165 62 88.4582 62C88.4582 62.7366 88.4582 63.4632 88.4582 64.1972C88.8238 64.1972 89.1788 64.1972 89.5415 64.1972ZM84 67.522C84.7438 67.522 85.4724 67.522 86.2033 67.522C86.2033 67.1526 86.2033 66.795 86.2033 66.442C85.4602 66.442 84.7316 66.442 84 66.442C84 66.8059 84 67.1559 84 67.522Z" fill="white"/>
<path d="M100.404 70.8064C99.2191 71.3885 98.0687 71.9535 96.9025 72.5264C98.2448 73.8632 99.5715 75.1842 100.888 76.495C100.104 77.276 99.3314 78.0461 98.5575 78.8179C97.2476 77.5104 95.9219 76.1871 94.573 74.8405C93.9924 76.0156 93.4259 77.1617 92.8397 78.3477C91.2589 74.2511 89.6931 70.192 88.1113 66.093C92.2168 67.6672 96.2915 69.2295 100.404 70.8064ZM90.0032 67.9793C90.9947 70.5337 91.9664 73.0381 92.951 75.5744C93.4068 74.6857 93.8417 73.8372 94.2949 72.9535C95.7481 74.4058 97.1869 75.8437 98.6051 77.2612C98.8488 77.0188 99.081 76.7877 99.3337 76.5361C97.9062 75.1154 96.4668 73.6831 95.0209 72.2436C95.8829 71.804 96.736 71.3691 97.6222 70.9173C95.0757 69.9355 92.5645 68.9671 90.0032 67.9793Z" fill="white"/>
<path d="M92.2068 63.1004C92.4473 63.3401 92.6996 63.5913 92.9401 63.8304C92.4242 64.3437 91.905 64.8606 91.3914 65.372C91.1579 65.1379 90.9026 64.8824 90.6621 64.6413C91.1678 64.1366 91.6866 63.6193 92.2068 63.1004Z" fill="#31ACDD"/>
<path d="M85.1416 70.1264C85.6582 69.6108 86.1734 69.0965 86.6814 68.5898C86.9255 68.8341 87.1795 69.0883 87.4222 69.3313C86.9146 69.837 86.396 70.354 85.8811 70.8673C85.6407 70.6263 85.386 70.3714 85.1416 70.1264Z" fill="#31ACDD"/>
<path d="M87.4355 64.638C87.1881 64.8843 86.9321 65.1385 86.6818 65.3874C86.1692 64.8747 85.6503 64.3558 85.1387 63.8442C85.3864 63.5972 85.642 63.342 85.8897 63.0951C86.402 63.6061 86.9212 64.1247 87.4355 64.638Z" fill="#31ACDD"/>
<path d="M89.5413 64.1971C89.1787 64.1971 88.8236 64.1971 88.458 64.1971C88.458 63.4632 88.458 62.7366 88.458 62C88.8164 62 89.1714 62 89.5413 62C89.5413 62.7247 89.5413 63.4507 89.5413 64.1971Z" fill="#31ACDD"/>
<path d="M84 67.522C84 67.1559 84 66.8058 84 66.442C84.7316 66.442 85.4599 66.442 86.2033 66.442C86.2033 66.7947 86.2033 67.1526 86.2033 67.522C85.4724 67.522 84.7438 67.522 84 67.522Z" fill="#31ACDD"/>
<path d="M90.0029 67.9794C92.5639 68.9671 95.0754 69.9355 97.6216 70.9177C96.7354 71.3694 95.8823 71.8044 95.0203 72.2439C96.4666 73.6835 97.9056 75.1157 99.3331 76.5365C99.0804 76.7881 98.8483 77.0189 98.6045 77.2615C97.1863 75.8441 95.7476 74.4062 94.2943 72.9538C93.8412 73.8376 93.4062 74.6857 92.9504 75.5747C91.9665 73.0381 90.9944 70.5338 90.0029 67.9794Z" fill="#31ACDD"/>
<path d="M49.966 70C49.7047 70 49.504 69.888 49.364 69.664C49.224 69.44 49.21 69.202 49.322 68.95L53.256 59.556C53.396 59.2293 53.6247 59.066 53.942 59.066C54.278 59.066 54.5067 59.2293 54.628 59.556L58.576 68.978C58.6787 69.2393 58.66 69.4773 58.52 69.692C58.3893 69.8973 58.1887 70 57.918 70C57.778 70 57.6427 69.9627 57.512 69.888C57.3907 69.804 57.302 69.692 57.246 69.552L56.462 67.592H51.436L50.638 69.552C50.5727 69.7013 50.4747 69.8133 50.344 69.888C50.2227 69.9627 50.0967 70 49.966 70ZM51.926 66.388H55.972L53.97 61.404L51.926 66.388ZM63.3023 70.056C62.5743 70.056 61.9163 69.888 61.3283 69.552C60.7496 69.2067 60.2876 68.74 59.9423 68.152C59.6063 67.564 59.4383 66.9013 59.4383 66.164C59.4383 65.4267 59.5923 64.7687 59.9003 64.19C60.2176 63.602 60.647 63.14 61.1883 62.804C61.7296 62.4587 62.341 62.286 63.0223 62.286C63.573 62.286 64.0816 62.4027 64.5483 62.636C65.015 62.86 65.407 63.168 65.7243 63.56V59.78C65.7243 59.5653 65.7896 59.3927 65.9203 59.262C66.0603 59.1313 66.233 59.066 66.4383 59.066C66.653 59.066 66.8256 59.1313 66.9563 59.262C67.087 59.3927 67.1523 59.5653 67.1523 59.78V66.164C67.1523 66.9013 66.9796 67.564 66.6343 68.152C66.2983 68.74 65.841 69.2067 65.2623 69.552C64.6836 69.888 64.0303 70.056 63.3023 70.056ZM63.3023 68.796C63.7783 68.796 64.203 68.684 64.5763 68.46C64.9496 68.2267 65.2436 67.9093 65.4583 67.508C65.673 67.1067 65.7803 66.6587 65.7803 66.164C65.7803 65.66 65.673 65.212 65.4583 64.82C65.2436 64.428 64.9496 64.12 64.5763 63.896C64.203 63.6627 63.7783 63.546 63.3023 63.546C62.8356 63.546 62.411 63.6627 62.0283 63.896C61.655 64.12 61.3563 64.428 61.1323 64.82C60.9176 65.212 60.8103 65.66 60.8103 66.164C60.8103 66.6587 60.9176 67.1067 61.1323 67.508C61.3563 67.9093 61.655 68.2267 62.0283 68.46C62.411 68.684 62.8356 68.796 63.3023 68.796ZM72.4601 70.056C71.8067 70.056 71.2001 69.958 70.6401 69.762C70.0894 69.5567 69.6601 69.3 69.3521 68.992C69.2121 68.8427 69.1514 68.6747 69.1701 68.488C69.1981 68.292 69.2914 68.1333 69.4501 68.012C69.6367 67.8627 69.8187 67.802 69.9961 67.83C70.1827 67.8487 70.3414 67.928 70.4721 68.068C70.6307 68.2453 70.8827 68.4133 71.2281 68.572C71.5827 68.7213 71.9747 68.796 72.4041 68.796C72.9454 68.796 73.3561 68.7073 73.6361 68.53C73.9254 68.3527 74.0747 68.124 74.0841 67.844C74.0934 67.564 73.9581 67.3213 73.6781 67.116C73.4074 66.9107 72.9081 66.7427 72.1801 66.612C71.2374 66.4253 70.5514 66.1453 70.1221 65.772C69.7021 65.3987 69.4921 64.9413 69.4921 64.4C69.4921 63.924 69.6321 63.532 69.9121 63.224C70.1921 62.9067 70.5514 62.6733 70.9901 62.524C71.4287 62.3653 71.8861 62.286 72.3621 62.286C72.9781 62.286 73.5241 62.384 74.0001 62.58C74.4761 62.776 74.8541 63.0467 75.1341 63.392C75.2647 63.5413 75.3254 63.7 75.3161 63.868C75.3067 64.0267 75.2274 64.162 75.0781 64.274C74.9287 64.3767 74.7514 64.4093 74.5461 64.372C74.3407 64.3347 74.1681 64.2507 74.0281 64.12C73.7947 63.896 73.5427 63.742 73.2721 63.658C73.0014 63.574 72.6887 63.532 72.3341 63.532C71.9234 63.532 71.5734 63.602 71.2841 63.742C71.0041 63.882 70.8641 64.0873 70.8641 64.358C70.8641 64.526 70.9061 64.68 70.9901 64.82C71.0834 64.9507 71.2607 65.072 71.5221 65.184C71.7834 65.2867 72.1661 65.3893 72.6701 65.492C73.7247 65.6973 74.4527 65.9913 74.8541 66.374C75.2647 66.7473 75.4701 67.2093 75.4701 67.76C75.4701 68.1893 75.3534 68.5767 75.1201 68.922C74.8961 69.2673 74.5601 69.5427 74.1121 69.748C73.6734 69.9533 73.1227 70.056 72.4601 70.056Z" fill="#31ACDD"/>
</svg>
