<svg width="150" height="150" viewBox="0 0 150 150" fill="none" xmlns="http://www.w3.org/2000/svg">
<path d="M49.517 62.938C46.2563 62.938 43.4423 62.4913 41.075 61.598C38.7077 60.66 36.7423 59.387 35.179 57.779C33.6603 56.1263 32.5213 54.1833 31.762 51.95C31.0473 49.672 30.69 47.1707 30.69 44.446V15.569H41.142V43.575C41.142 45.451 41.343 47.059 41.745 48.399C42.1917 49.6943 42.7723 50.7663 43.487 51.615C44.2463 52.419 45.1397 52.9997 46.167 53.357C47.239 53.7143 48.4003 53.893 49.651 53.893C52.197 53.893 54.2517 53.1113 55.815 51.548C57.423 49.9847 58.227 47.327 58.227 43.575V15.569H68.679V44.446C68.679 47.1707 68.2993 49.672 67.54 51.95C66.7807 54.228 65.6193 56.1933 64.056 57.846C62.4927 59.454 60.505 60.7047 58.093 61.598C55.681 62.4913 52.8223 62.938 49.517 62.938ZM94.8268 15.569H105.279V62H94.8268V15.569Z" fill="#31ACDD"/>
<path d="M49.517 131.938C46.2563 131.938 43.4423 131.491 41.075 130.598C38.7077 129.66 36.7423 128.387 35.179 126.779C33.6603 125.126 32.5213 123.183 31.762 120.95C31.0473 118.672 30.69 116.171 30.69 113.446V84.569H41.142V112.575C41.142 114.451 41.343 116.059 41.745 117.399C42.1917 118.694 42.7723 119.766 43.487 120.615C44.2463 121.419 45.1397 122 46.167 122.357C47.239 122.714 48.4003 122.893 49.651 122.893C52.197 122.893 54.2517 122.111 55.815 120.548C57.423 118.985 58.227 116.327 58.227 112.575V84.569H68.679V113.446C68.679 116.171 68.2993 118.672 67.54 120.95C66.7807 123.228 65.6193 125.193 64.056 126.846C62.4927 128.454 60.505 129.705 58.093 130.598C55.681 131.491 52.8223 131.938 49.517 131.938ZM105.397 131C104.102 128.409 102.672 125.796 101.109 123.161C99.5904 120.481 97.8261 117.756 95.8161 114.987C95.1908 115.791 94.3868 116.908 93.4041 118.337C92.4661 119.766 91.5058 121.285 90.5231 122.893C89.5851 124.501 88.6918 126.042 87.8431 127.516C86.9944 128.99 86.3691 130.151 85.9671 131H74.0411C76.0064 127.382 78.2844 123.585 80.8751 119.61C83.5104 115.635 86.4361 111.414 89.6521 106.947L74.7111 84.569H87.3741L96.4191 99.041L105.263 84.569H117.189L102.449 107.081C106.201 111.95 109.35 116.461 111.896 120.615C114.442 124.724 116.452 128.186 117.926 131H105.397Z" fill="#31ACDD"/>
<line x1="30" y1="73" x2="116" y2="73" stroke="white" stroke-width="4"/>
</svg>
