<svg width="150" height="150" viewBox="0 0 150 150" fill="none" xmlns="http://www.w3.org/2000/svg">
<rect width="150" height="150" />
<circle cx="75" cy="75" r="58" fill="#31ACDD" stroke="#31ACDD" stroke-width="4"/>
<path d="M76 17C81.8988 18.2377 97.6213 25.6549 103.179 54M75 134C79.5937 134 96.8775 123.925 102.908 95.5" stroke="white" stroke-width="2"/>
<path d="M75 134C69.0666 132.755 52.1825 124.246 46.7246 95.5M75.5 17C70.9334 17 53.3256 25.9569 47.1994 54" stroke="white" stroke-width="2"/>
<path d="M128.5 54H21C21 54 17 65.5 17 75C17 84.5 21 95.5 21 95.5H128.5C128.5 95.5 133.5 88.5 133.5 75C133.5 61.5 128.5 54 128.5 54Z" fill="white" stroke="#31ACDD" stroke-width="3"/>
<path d="M33.232 90C32.6307 90 32.125 89.795 31.715 89.385C31.305 88.975 31.1 88.4693 31.1 87.868V60.111C31.1 59.4823 31.305 58.9767 31.715 58.594C32.125 58.184 32.6307 57.979 33.232 57.979H40.653C43.0037 57.979 45.1357 58.3753 47.049 59.168C48.9897 59.9333 50.6707 61.0403 52.092 62.489C53.5133 63.9103 54.6067 65.5913 55.372 67.532C56.1373 69.4727 56.52 71.6183 56.52 73.969C56.52 76.3197 56.1373 78.479 55.372 80.447C54.6067 82.3877 53.5133 84.0823 52.092 85.531C50.6707 86.9523 48.9897 88.0593 47.049 88.852C45.1357 89.6173 43.0037 90 40.653 90H33.232ZM35.364 86.228H40.653C42.949 86.228 44.9717 85.7087 46.721 84.67C48.4977 83.604 49.8917 82.1553 50.903 80.324C51.9143 78.4653 52.42 76.347 52.42 73.969C52.42 71.5637 51.9143 69.4453 50.903 67.614C49.8917 65.7827 48.4977 64.3477 46.721 63.309C44.9717 62.2703 42.949 61.751 40.653 61.751H35.364V86.228ZM65.3023 90C64.701 90 64.1953 89.795 63.7853 89.385C63.4027 88.975 63.2113 88.4693 63.2113 87.868V60.111C63.2113 59.4823 63.4027 58.9767 63.7853 58.594C64.1953 58.184 64.701 57.979 65.3023 57.979C65.9583 57.979 66.505 58.2387 66.9423 58.758L84.8183 82.538V60.111C84.8183 59.4823 85.0233 58.9767 85.4333 58.594C85.8433 58.184 86.349 57.979 86.9503 57.979C87.579 57.979 88.0847 58.184 88.4673 58.594C88.85 58.9767 89.0413 59.4823 89.0413 60.111V87.868C89.0413 88.4693 88.85 88.975 88.4673 89.385C88.0847 89.795 87.579 90 86.9503 90C86.677 90 86.3763 89.9453 86.0483 89.836C85.7477 89.6993 85.5017 89.508 85.3103 89.262L67.4343 65.482V87.868C67.4343 88.4693 67.2293 88.975 66.8193 89.385C66.4367 89.795 65.931 90 65.3023 90ZM107.413 90.41C105.663 90.41 103.996 90.1367 102.411 89.59C100.825 89.0433 99.4449 88.278 98.2695 87.294C97.0942 86.31 96.2332 85.1757 95.6865 83.891C95.4132 83.317 95.4132 82.784 95.6865 82.292C95.9872 81.8 96.4792 81.4857 97.1625 81.349C97.6545 81.2397 98.1329 81.3217 98.5975 81.595C99.0895 81.841 99.4585 82.2237 99.7045 82.743C100.033 83.4263 100.566 84.055 101.304 84.629C102.069 85.203 102.985 85.6677 104.051 86.023C105.117 86.3783 106.237 86.556 107.413 86.556C108.725 86.556 109.927 86.351 111.021 85.941C112.141 85.531 113.043 84.9433 113.727 84.178C114.41 83.3853 114.752 82.415 114.752 81.267C114.752 79.8183 114.178 78.52 113.03 77.372C111.909 76.224 110.05 75.5133 107.454 75.24C104.064 74.912 101.399 73.9143 99.4585 72.247C97.5179 70.5797 96.5475 68.516 96.5475 66.056C96.5475 64.252 97.0532 62.7213 98.0645 61.464C99.0759 60.2067 100.443 59.25 102.165 58.594C103.914 57.938 105.855 57.61 107.987 57.61C110.474 57.61 112.51 58.1157 114.096 59.127C115.681 60.1383 116.993 61.4777 118.032 63.145C118.414 63.7463 118.565 64.3203 118.483 64.867C118.428 65.3863 118.168 65.7963 117.704 66.097C117.184 66.425 116.624 66.4933 116.023 66.302C115.421 66.1107 114.97 65.7553 114.67 65.236C113.986 64.0607 113.098 63.145 112.005 62.489C110.939 61.833 109.558 61.4913 107.864 61.464C105.841 61.4367 104.146 61.8193 102.78 62.612C101.413 63.3773 100.73 64.5663 100.73 66.179C100.73 66.999 100.935 67.7917 101.345 68.557C101.782 69.295 102.561 69.9373 103.682 70.484C104.83 71.0307 106.47 71.4133 108.602 71.632C111.854 71.96 114.383 72.9577 116.187 74.625C118.018 76.265 118.934 78.438 118.934 81.144C118.934 82.702 118.606 84.055 117.95 85.203C117.321 86.351 116.46 87.3213 115.367 88.114C114.301 88.8793 113.071 89.4533 111.677 89.836C110.31 90.2187 108.889 90.41 107.413 90.41Z" fill="#31ACDD"/>
<circle cx="75" cy="75" r="58" stroke="white" stroke-width="4"/>
</svg>
