<svg width="150" height="150" viewBox="0 0 150 150" fill="none" xmlns="http://www.w3.org/2000/svg">
<rect width="150" height="150" />
<path d="M76.8768 112.871C58.5525 112.871 40.2283 112.873 21.9066 112.866C21.0985 112.866 20.2803 112.848 19.4824 112.733C14.9768 112.085 12.7163 109.741 12.1972 105.193C12.0898 104.264 12.0106 103.324 12.008 102.39C11.9978 76.7583 11.9952 51.1238 12.0131 25.4919C12.0131 24.3044 12.0975 23.0964 12.3046 21.9293C13.0692 17.6245 15.8641 15.2238 20.5667 15.0984C25.975 14.9551 31.3884 15.0114 36.7992 15.0088C68.2056 15.0011 99.6121 15.0011 131.019 15.0062C132.167 15.0062 133.335 14.9832 134.46 15.1675C139.109 15.9302 141.439 18.6943 141.779 23.7464C141.812 24.2557 141.807 24.7702 141.807 25.282C141.807 51.001 141.812 76.7199 141.797 102.436C141.797 103.667 141.723 104.919 141.5 106.127C140.741 110.265 137.946 112.676 133.509 112.784C128.101 112.917 122.687 112.855 117.274 112.858C103.808 112.866 90.3425 112.861 76.8768 112.861C76.8768 112.866 76.8768 112.868 76.8768 112.871ZM76.9816 21.1308C58.4861 21.1308 39.9905 21.1282 21.4974 21.1333C17.6567 21.1359 17.4291 21.3458 17.4265 25.1669C17.4112 46.4939 17.4086 67.8185 17.4137 89.1456C17.4137 92.9923 17.5953 93.1433 21.477 93.1458C58.2534 93.1612 95.0323 93.174 131.809 93.1893C135.826 93.1919 136.45 92.5623 136.445 88.5057C136.417 67.3936 136.386 46.279 136.355 25.1669C136.35 21.2894 136.202 21.1308 132.341 21.1308C113.886 21.1257 95.4337 21.1282 76.9816 21.1308ZM80.5232 102.756C80.5335 100.737 78.9199 99.081 76.9203 99.063C74.9257 99.0451 73.2789 100.688 73.2687 102.705C73.2585 104.719 74.8797 106.383 76.8691 106.401C78.8509 106.419 80.5105 104.763 80.5232 102.756Z" fill="#31ACDD"/>
<path d="M66.2868 118.499C73.4109 118.499 80.3765 118.499 87.5185 118.499C87.5185 120.065 87.5978 121.596 87.5006 123.113C87.3523 125.394 88.2703 127.203 90.114 128.319C92.1673 129.563 94.4278 130.466 96.6039 131.508C96.829 131.615 97.0975 131.633 97.3429 131.702C98.5908 132.05 99.225 132.831 99.0332 133.86C98.8158 135.022 98.0538 135.421 96.9082 135.416C91.3312 135.39 85.7516 135.406 80.1745 135.406C72.6387 135.406 65.1029 135.406 57.5645 135.403C55.5828 135.403 54.877 134.989 54.7543 133.763C54.6392 132.611 55.3424 132.153 57.0327 131.5C59.2752 130.635 61.4974 129.632 63.5635 128.411C65.512 127.262 66.4684 125.394 66.3047 123.013C66.205 121.537 66.2868 120.05 66.2868 118.499Z" fill="#31ACDD"/>
<path d="M40.961 65.021C40.653 65.021 40.394 64.923 40.184 64.727C39.988 64.517 39.89 64.258 39.89 63.95V54.584C39.89 54.262 39.988 54.003 40.184 53.807C40.394 53.611 40.653 53.513 40.961 53.513C41.283 53.513 41.542 53.611 41.738 53.807C41.934 54.003 42.032 54.262 42.032 54.584V54.815C42.466 54.381 42.991 54.038 43.607 53.786C44.223 53.534 44.888 53.408 45.602 53.408C46.568 53.408 47.429 53.618 48.185 54.038C48.955 54.444 49.557 55.046 49.991 55.844C50.439 56.642 50.663 57.622 50.663 58.784V63.95C50.663 64.258 50.558 64.517 50.348 64.727C50.152 64.923 49.9 65.021 49.592 65.021C49.284 65.021 49.025 64.923 48.815 64.727C48.619 64.517 48.521 64.258 48.521 63.95V58.784C48.521 57.594 48.199 56.726 47.555 56.18C46.925 55.62 46.134 55.34 45.182 55.34C44.594 55.34 44.062 55.459 43.586 55.697C43.11 55.935 42.732 56.257 42.452 56.663C42.172 57.055 42.032 57.51 42.032 58.028V63.95C42.032 64.258 41.934 64.517 41.738 64.727C41.542 64.923 41.283 65.021 40.961 65.021ZM40.961 60.821C40.653 60.821 40.394 60.723 40.184 60.527C39.988 60.317 39.89 60.058 39.89 59.75V49.67C39.89 49.348 39.988 49.089 40.184 48.893C40.394 48.697 40.653 48.599 40.961 48.599C41.283 48.599 41.542 48.697 41.738 48.893C41.934 49.089 42.032 49.348 42.032 49.67V59.75C42.032 60.058 41.934 60.317 41.738 60.527C41.542 60.723 41.283 60.821 40.961 60.821ZM58.404 65C57.704 65 57.074 64.825 56.514 64.475C55.954 64.111 55.513 63.621 55.191 63.005C54.869 62.389 54.708 61.696 54.708 60.926V55.739H53.742C53.448 55.739 53.21 55.655 53.028 55.487C52.846 55.319 52.755 55.109 52.755 54.857C52.755 54.577 52.846 54.353 53.028 54.185C53.21 54.017 53.448 53.933 53.742 53.933H54.708V50.909C54.708 50.601 54.806 50.349 55.002 50.153C55.198 49.957 55.45 49.859 55.758 49.859C56.066 49.859 56.318 49.957 56.514 50.153C56.71 50.349 56.808 50.601 56.808 50.909V53.933H58.593C58.887 53.933 59.125 54.017 59.307 54.185C59.489 54.353 59.58 54.577 59.58 54.857C59.58 55.109 59.489 55.319 59.307 55.487C59.125 55.655 58.887 55.739 58.593 55.739H56.808V60.926C56.808 61.486 56.962 61.955 57.27 62.333C57.578 62.711 57.956 62.9 58.404 62.9H59.118C59.37 62.9 59.58 62.998 59.748 63.194C59.93 63.39 60.021 63.642 60.021 63.95C60.021 64.258 59.902 64.51 59.664 64.706C59.44 64.902 59.146 65 58.782 65H58.404ZM66.8327 65C66.1327 65 65.5027 64.825 64.9427 64.475C64.3827 64.111 63.9417 63.621 63.6197 63.005C63.2977 62.389 63.1367 61.696 63.1367 60.926V55.739H62.1707C61.8767 55.739 61.6387 55.655 61.4567 55.487C61.2747 55.319 61.1837 55.109 61.1837 54.857C61.1837 54.577 61.2747 54.353 61.4567 54.185C61.6387 54.017 61.8767 53.933 62.1707 53.933H63.1367V50.909C63.1367 50.601 63.2347 50.349 63.4307 50.153C63.6267 49.957 63.8787 49.859 64.1867 49.859C64.4947 49.859 64.7467 49.957 64.9427 50.153C65.1387 50.349 65.2367 50.601 65.2367 50.909V53.933H67.0217C67.3157 53.933 67.5537 54.017 67.7357 54.185C67.9177 54.353 68.0087 54.577 68.0087 54.857C68.0087 55.109 67.9177 55.319 67.7357 55.487C67.5537 55.655 67.3157 55.739 67.0217 55.739H65.2367V60.926C65.2367 61.486 65.3907 61.955 65.6987 62.333C66.0067 62.711 66.3847 62.9 66.8327 62.9H67.5467C67.7987 62.9 68.0087 62.998 68.1767 63.194C68.3587 63.39 68.4497 63.642 68.4497 63.95C68.4497 64.258 68.3307 64.51 68.0927 64.706C67.8687 64.902 67.5747 65 67.2107 65H66.8327ZM72.1534 69.914C71.8454 69.914 71.5864 69.809 71.3764 69.599C71.1804 69.403 71.0824 69.151 71.0824 68.843V59.267C71.0964 58.161 71.3554 57.167 71.8594 56.285C72.3634 55.403 73.0494 54.71 73.9174 54.206C74.7854 53.688 75.7654 53.429 76.8574 53.429C77.9634 53.429 78.9504 53.688 79.8184 54.206C80.6864 54.71 81.3724 55.403 81.8764 56.285C82.3944 57.167 82.6534 58.161 82.6534 59.267C82.6534 60.373 82.4154 61.367 81.9394 62.249C81.4774 63.117 80.8404 63.81 80.0284 64.328C79.2164 64.832 78.2994 65.084 77.2774 65.084C76.4514 65.084 75.6884 64.916 74.9884 64.58C74.3024 64.23 73.7144 63.761 73.2244 63.173V68.843C73.2244 69.151 73.1264 69.403 72.9304 69.599C72.7344 69.809 72.4754 69.914 72.1534 69.914ZM76.8574 63.194C77.5714 63.194 78.2084 63.026 78.7684 62.69C79.3284 62.34 79.7694 61.871 80.0914 61.283C80.4274 60.681 80.5954 60.009 80.5954 59.267C80.5954 58.511 80.4274 57.839 80.0914 57.251C79.7694 56.649 79.3284 56.18 78.7684 55.844C78.2084 55.494 77.5714 55.319 76.8574 55.319C76.1574 55.319 75.5204 55.494 74.9464 55.844C74.3864 56.18 73.9454 56.649 73.6234 57.251C73.3014 57.839 73.1404 58.511 73.1404 59.267C73.1404 60.009 73.3014 60.681 73.6234 61.283C73.9454 61.871 74.3864 62.34 74.9464 62.69C75.5204 63.026 76.1574 63.194 76.8574 63.194ZM90.027 65.084C89.047 65.084 88.137 64.937 87.297 64.643C86.471 64.335 85.827 63.95 85.365 63.488C85.155 63.264 85.064 63.012 85.092 62.732C85.134 62.438 85.274 62.2 85.512 62.018C85.792 61.794 86.065 61.703 86.331 61.745C86.611 61.773 86.849 61.892 87.045 62.102C87.283 62.368 87.661 62.62 88.179 62.858C88.711 63.082 89.299 63.194 89.943 63.194C90.755 63.194 91.371 63.061 91.791 62.795C92.225 62.529 92.449 62.186 92.463 61.766C92.477 61.346 92.274 60.982 91.854 60.674C91.448 60.366 90.699 60.114 89.607 59.918C88.193 59.638 87.164 59.218 86.52 58.658C85.89 58.098 85.575 57.412 85.575 56.6C85.575 55.886 85.785 55.298 86.205 54.836C86.625 54.36 87.164 54.01 87.822 53.786C88.48 53.548 89.166 53.429 89.88 53.429C90.804 53.429 91.623 53.576 92.337 53.87C93.051 54.164 93.618 54.57 94.038 55.088C94.234 55.312 94.325 55.55 94.311 55.802C94.297 56.04 94.178 56.243 93.954 56.411C93.73 56.565 93.464 56.614 93.156 56.558C92.848 56.502 92.589 56.376 92.379 56.18C92.029 55.844 91.651 55.613 91.245 55.487C90.839 55.361 90.37 55.298 89.838 55.298C89.222 55.298 88.697 55.403 88.263 55.613C87.843 55.823 87.633 56.131 87.633 56.537C87.633 56.789 87.696 57.02 87.822 57.23C87.962 57.426 88.228 57.608 88.62 57.776C89.012 57.93 89.586 58.084 90.342 58.238C91.924 58.546 93.016 58.987 93.618 59.561C94.234 60.121 94.542 60.814 94.542 61.64C94.542 62.284 94.367 62.865 94.017 63.383C93.681 63.901 93.177 64.314 92.505 64.622C91.847 64.93 91.021 65.084 90.027 65.084ZM97.2924 56.432C96.9004 56.432 96.5574 56.292 96.2634 56.012C95.9834 55.718 95.8434 55.375 95.8434 54.983C95.8434 54.577 95.9834 54.234 96.2634 53.954C96.5574 53.66 96.9004 53.513 97.2924 53.513C97.6984 53.513 98.0414 53.66 98.3214 53.954C98.6014 54.234 98.7414 54.577 98.7414 54.983C98.7414 55.375 98.6014 55.718 98.3214 56.012C98.0414 56.292 97.6984 56.432 97.2924 56.432ZM97.5234 65.336C97.1314 65.336 96.7884 65.196 96.4944 64.916C96.2144 64.622 96.0744 64.279 96.0744 63.887C96.0744 63.481 96.2144 63.138 96.4944 62.858C96.7884 62.564 97.1314 62.417 97.5234 62.417C97.9294 62.417 98.2724 62.564 98.5524 62.858C98.8324 63.138 98.9724 63.481 98.9724 63.887C98.9724 64.279 98.8324 64.622 98.5524 64.916C98.2724 65.196 97.9294 65.336 97.5234 65.336ZM101.31 66.554C100.918 66.554 100.617 66.393 100.407 66.071C100.211 65.763 100.19 65.42 100.344 65.042L106.665 49.229C106.749 49.033 106.882 48.879 107.064 48.767C107.246 48.655 107.442 48.599 107.652 48.599C108.016 48.599 108.303 48.753 108.513 49.061C108.737 49.355 108.772 49.705 108.618 50.111L102.297 65.924C102.213 66.148 102.073 66.309 101.877 66.407C101.695 66.505 101.506 66.554 101.31 66.554ZM111.154 66.554C110.762 66.554 110.461 66.393 110.251 66.071C110.055 65.763 110.034 65.42 110.188 65.042L116.509 49.229C116.593 49.033 116.726 48.879 116.908 48.767C117.09 48.655 117.286 48.599 117.496 48.599C117.86 48.599 118.147 48.753 118.357 49.061C118.581 49.355 118.616 49.705 118.462 50.111L112.141 65.924C112.057 66.148 111.917 66.309 111.721 66.407C111.539 66.505 111.35 66.554 111.154 66.554Z" fill="#31ACDD"/>
</svg>
