<svg width="150" height="150" viewBox="0 0 150 150" fill="none" xmlns="http://www.w3.org/2000/svg">
<path fill-rule="evenodd" clip-rule="evenodd" d="M73.4556 23.1834L122.25 53.6732C128.973 57.8748 131.018 66.7316 126.817 73.4556L119.133 85.7477L108.66 70.9611L121.658 57.8234H112.527L99.5292 71.6133V57.8234H92.215V91.0869H99.5292V80.3718L103.722 76.1323L113.738 91.0869L115.799 91.0856L96.3268 122.25C92.1252 128.973 83.2684 131.018 76.5444 126.817L27.7505 96.3268C21.0266 92.1252 18.9818 83.2684 23.1834 76.5444L28.2798 68.3909C28.3997 69.3667 28.6617 70.2312 29.0656 70.9844C29.6402 72.0559 30.3933 72.9488 31.3251 73.6632C32.2568 74.3775 33.3128 74.9599 34.493 75.4102C35.6733 75.8606 36.8845 76.241 38.1269 76.5516C39.3381 76.8933 40.5339 77.2038 41.7141 77.4834C42.8943 77.7629 43.9503 78.089 44.8821 78.4617C45.8138 78.8344 46.567 79.3003 47.1415 79.8593C47.7161 80.4184 48.0034 81.1482 48.0034 82.0489C48.0034 82.8875 47.786 83.5786 47.3512 84.1221C46.9164 84.6656 46.3729 85.0927 45.7206 85.4032C45.0684 85.7138 44.3696 85.9235 43.6242 86.0322C42.8788 86.1409 42.18 86.1952 41.5277 86.1952C40.5649 86.1952 39.6332 86.0788 38.7325 85.8458C37.8318 85.6129 37.0476 85.2557 36.3798 84.7743C35.7121 84.2929 35.1763 83.664 34.7726 82.8875C34.3688 82.1111 34.1669 81.1638 34.1669 80.0457H27.0856C27.0546 82.0955 27.4273 83.8658 28.2037 85.3567C28.9802 86.8475 30.0284 88.0743 31.3484 89.0371C32.6684 89.9999 34.1902 90.7065 35.914 91.1568C37.6377 91.6072 39.4158 91.8323 41.2482 91.8323C43.5155 91.8323 45.511 91.5683 47.2347 91.0403C48.9585 90.5123 50.4027 89.7747 51.5674 88.8274C52.7321 87.8801 53.6094 86.7543 54.1996 85.4498C54.7897 84.1454 55.0847 82.7322 55.0847 81.2104C55.0847 79.3469 54.6887 77.8172 53.8967 76.6215C53.1047 75.4257 52.1652 74.4707 51.0782 73.7564C49.9911 73.042 48.8963 72.5218 47.7938 72.1957C46.6912 71.8696 45.8293 71.6444 45.2082 71.5202C43.1272 70.9922 41.4423 70.5573 40.1534 70.2157C38.8645 69.8741 37.8551 69.5324 37.1252 69.1908C36.3954 68.8491 35.9062 68.4764 35.6577 68.0727C35.4093 67.6689 35.285 67.1409 35.285 66.4887C35.285 65.7744 35.4403 65.1843 35.7509 64.7184C36.0615 64.2525 36.4575 63.8643 36.9389 63.5537C37.4203 63.2431 37.956 63.0257 38.5461 62.9015C39.1363 62.7772 39.7264 62.7151 40.3165 62.7151C41.2172 62.7151 42.048 62.7928 42.8089 62.948C43.5698 63.1033 44.2454 63.3673 44.8355 63.74C45.4256 64.1127 45.8992 64.6252 46.2564 65.2774C46.6136 65.9297 46.8232 66.7527 46.8853 67.7466H53.9666C53.9666 65.8209 53.6017 64.1826 52.8718 62.8316C52.1419 61.4805 51.1558 60.3702 49.9135 59.5006C48.6712 58.6309 47.2503 58.002 45.6507 57.6138C44.0512 57.2255 42.3819 57.0314 40.6426 57.0314C39.1518 57.0314 37.661 57.2333 36.1702 57.6371C35.6576 57.7759 35.1634 57.9404 34.6875 58.1307L53.6732 27.7505C57.8748 21.0266 66.7316 18.9818 73.4556 23.1834ZM75.0708 57.8234H59.4174V91.0869H75.5367C77.0275 91.0869 78.4794 90.9006 79.8926 90.5279C81.3057 90.1552 82.5636 89.5806 83.6662 88.8041C84.7688 88.0277 85.6461 87.026 86.2984 85.7992C86.9506 84.5724 87.2767 83.1205 87.2767 81.4433C87.2767 79.3624 86.772 77.5843 85.7626 76.109C84.7532 74.6338 83.2236 73.6011 81.1737 73.011C82.6645 72.2966 83.7904 71.3804 84.5513 70.2623C85.3123 69.1442 85.6927 67.7466 85.6927 66.0694C85.6927 64.5165 85.4365 63.2121 84.924 62.1561C84.4116 61.1001 83.6895 60.2537 82.7577 59.617C81.826 58.9803 80.7079 58.5222 79.4034 58.2427C78.099 57.9632 76.6548 57.8234 75.0708 57.8234ZM74.6981 76.2721C76.2821 76.2721 77.5554 76.637 78.5183 77.3669C79.4811 78.0968 79.9625 79.3158 79.9625 81.024C79.9625 81.8937 79.8149 82.608 79.5199 83.167C79.2248 83.7261 78.8288 84.1687 78.3319 84.4948C77.835 84.8209 77.2604 85.0538 76.6082 85.1936C75.9559 85.3334 75.2727 85.4032 74.5583 85.4032H66.7316V76.2721H74.6981ZM73.58 63.5071C74.2322 63.5071 74.8611 63.5615 75.4668 63.6702C76.0724 63.7789 76.6082 63.973 77.074 64.2525C77.5399 64.532 77.9126 64.9203 78.1921 65.4172C78.4717 65.9141 78.6114 66.5508 78.6114 67.3273C78.6114 68.7249 78.1921 69.7343 77.3536 70.3555C76.515 70.9766 75.4435 71.2872 74.139 71.2872H66.7316V63.5071H73.58Z" fill="#B3BDC7"/>
</svg>
