<svg width="150" height="150" viewBox="0 0 150 150" fill="none" xmlns="http://www.w3.org/2000/svg">
<rect width="150" height="150" />
<path d="M75.478 142.143C70.3452 142.018 65.7516 141.498 61.2157 140.42C55.8828 139.151 50.8469 137.159 46.0413 134.546C44.3233 133.611 43.9142 131.858 45.1535 130.641C45.905 129.899 46.9473 129.811 48.026 130.308C51.0439 131.694 54.0315 133.166 57.1161 134.389C60.234 135.624 63.5215 136.299 66.8455 136.808C70.4542 137.362 74.0782 137.513 77.7112 137.35C82.5168 137.135 87.2164 136.281 91.7978 134.798C95.3338 133.653 98.6941 132.112 101.954 130.341C103.206 129.663 104.56 129.99 105.218 131.068C105.936 132.248 105.59 133.705 104.269 134.346C101.303 135.782 98.3366 137.241 95.2793 138.461C90.7645 140.259 86.0104 141.204 81.1927 141.767C79.1383 142.009 77.0627 142.043 75.478 142.143Z" fill="#31ACDD"/>
<path d="M134.319 81.3598C134.319 81.7776 134.38 82.4376 134.307 83.0855C134.168 84.2935 133.056 85.2321 131.91 85.1897C130.692 85.1413 129.683 84.0937 129.613 82.8009C129.51 80.9419 129.52 79.0648 129.283 77.224C128.947 74.5839 128.568 71.9317 127.962 69.3431C126.826 64.4898 124.935 59.9059 122.432 55.5885C118.415 48.6582 113.112 42.8936 106.549 38.2946C105.21 37.3561 103.786 36.5325 102.449 35.5849C100.919 34.504 101.122 32.3574 102.804 31.5793C103.622 31.2009 104.416 31.3522 105.179 31.8155C108.291 33.7047 111.255 35.7998 113.976 38.2159C119.869 43.4446 124.605 49.5756 128.108 56.6391C130.253 60.9626 131.835 65.4858 132.904 70.1999C133.716 73.7997 134.101 77.448 134.319 81.3598Z" fill="#31ACDD"/>
<path d="M15.6873 81.057C15.9115 74.9956 17.0387 69.0978 19.0536 63.3846C21.4049 56.7238 24.8349 50.6504 29.3284 45.1825C33.728 39.8326 38.9033 35.3911 44.8361 31.8185C45.7027 31.2977 46.5875 31.1645 47.4753 31.7125C48.2661 32.203 48.6631 32.9417 48.5873 33.8803C48.5116 34.7856 47.9571 35.3729 47.2177 35.8483C45.7573 36.7899 44.2756 37.7103 42.8696 38.7276C34.9492 44.4498 28.983 51.7706 24.9985 60.6931C23.3593 64.3626 22.1715 68.1865 21.411 72.1224C20.7474 75.5618 20.3384 79.0436 20.408 82.5617C20.4293 83.5699 20.0444 84.3995 19.1294 84.8839C17.5901 85.6984 15.7933 84.6417 15.6933 82.8736C15.66 82.268 15.6873 81.6625 15.6873 81.057Z" fill="#31ACDD"/>
<path d="M91.1926 26.0962C91.1926 35.2609 83.757 42.6924 74.5821 42.6924C65.4073 42.6924 57.9717 35.2609 57.9717 26.0962C57.9717 16.9315 65.4073 9.5 74.5821 9.5C83.757 9.5 91.1926 16.9315 91.1926 26.0962Z" stroke="#31ACDD" stroke-width="3"/>
<path d="M140.5 111.146C140.5 120.31 133.065 127.742 123.89 127.742C114.715 127.742 107.279 120.31 107.279 111.146C107.279 101.981 114.715 94.5494 123.89 94.5494C133.065 94.5494 140.5 101.981 140.5 111.146Z" stroke="#31ACDD" stroke-width="3"/>
<path d="M41.7209 111.146C41.7209 120.31 34.2853 127.742 25.1105 127.742C15.9356 127.742 8.5 120.31 8.5 111.146C8.5 101.981 15.9356 94.5494 25.1105 94.5494C34.2853 94.5494 41.7209 101.981 41.7209 111.146Z" stroke="#31ACDD" stroke-width="3"/>
<line x1="65.8398" y1="23.9731" x2="83.9445" y2="23.9731" stroke="#31ACDD" stroke-width="2"/>
<line x1="68.1035" y1="28.4993" x2="80.5505" y2="28.4993" stroke="black" stroke-width="2"/>
<line x1="68.1035" y1="28.4993" x2="80.5505" y2="28.4993" stroke="#31ACDD" stroke-width="2"/>
<line x1="114.497" y1="108.839" x2="132.602" y2="108.839" stroke="#31ACDD" stroke-width="2"/>
<line x1="116.76" y1="113.365" x2="129.207" y2="113.365" stroke="#31ACDD" stroke-width="2"/>
<line x1="16.0527" y1="108.839" x2="34.1574" y2="108.839" stroke="#31ACDD" stroke-width="2"/>
<line x1="18.3154" y1="113.365" x2="30.7624" y2="113.365" stroke="#31ACDD" stroke-width="2"/>
</svg>
