<svg width="150" height="150" viewBox="0 0 150 150" fill="none" xmlns="http://www.w3.org/2000/svg">
<rect width="150" height="150" />
<path fill-rule="evenodd" clip-rule="evenodd" d="M24.6662 75C25.2185 75 25.6653 74.5485 25.675 73.9963C26.2106 43.5348 51.077 19 81.6662 19C112.591 19 137.666 44.0756 137.666 75C137.666 105.924 112.591 131 81.6662 131C66.533 131 52.8838 125.004 42.8062 115.274C42.4088 114.891 42.4094 114.257 42.8 113.866L50.2185 106.448C50.6101 106.056 51.2447 106.058 51.6437 106.442C59.4241 113.931 70.0183 118.556 81.6662 118.556C105.746 118.556 125.222 99.08 125.222 75C125.222 50.92 105.746 31.4444 81.6662 31.4444C57.9215 31.4444 38.6539 50.3814 38.1219 73.9968C38.1095 74.549 38.5584 75 39.1106 75H54.3588C55.2503 75 55.6962 76.0784 55.065 76.708L32.5946 99.1222C32.2043 99.5116 31.5725 99.5116 31.1822 99.1222L8.7118 76.708C8.08062 76.0784 8.52651 75 9.41802 75H24.6662ZM75.4437 54.7778C75.4437 52.2004 77.533 50.1111 80.1104 50.1111C82.6877 50.1111 84.777 52.2004 84.777 54.7778V73.0871C84.777 74.8517 85.7071 76.4855 87.2243 77.3864L102.659 86.5508C104.876 87.8668 105.598 90.7352 104.269 92.9441C102.952 95.1341 100.113 95.8499 97.915 94.5463L77.8936 82.6748C76.3749 81.7743 75.4437 80.1396 75.4437 78.374V54.7778Z" fill="#31ACDD"/>
</svg>
