<svg width="150" height="150" viewBox="0 0 150 150" fill="none" xmlns="http://www.w3.org/2000/svg">
<rect width="150" height="150" />
<path fill-rule="evenodd" clip-rule="evenodd" d="M80.7824 127.451H109.814C109.814 127.451 109.814 127.448 109.811 127.445C112.253 127.445 114.696 127.445 117.138 127.445C124.466 127.446 131.794 127.446 139.123 127.442C141.368 127.442 142.411 126.419 142.414 124.205C142.416 122.338 142.422 120.472 142.429 118.606C142.449 112.792 142.468 106.978 142.358 101.166C142.313 98.8618 141.906 96.4731 141.163 94.2951C138.04 85.1646 129.876 78.8218 118.438 78.9089C116.192 78.9264 113.945 78.9217 111.697 78.9169C108.522 78.9103 105.346 78.9036 102.172 78.9595C99.7589 79.0045 97.2872 79.0776 94.9531 79.6199C84.3286 82.0902 77.4017 90.9312 77.3597 101.866C77.3395 107.194 77.3454 112.52 77.3514 117.846C77.3537 119.918 77.3561 121.99 77.3569 124.061C77.3569 126.459 78.364 127.451 80.7824 127.451ZM82.9511 101.473C83.0072 92.994 89.1344 85.9458 97.5594 84.8273L107.953 84.8191C107.936 84.8041 107.92 84.7891 107.903 84.7739H111.926C111.911 84.788 111.895 84.802 111.88 84.8159L122.206 84.8077C126.117 85.322 129.318 86.9603 131.975 89.6498C134.839 92.5527 136.626 96.0881 136.73 100.155C136.858 105.19 136.831 110.228 136.804 115.304C136.792 117.444 136.781 119.59 136.781 121.746H130.317V120.29C130.317 119.285 130.318 118.279 130.32 117.273C130.324 115.094 130.327 112.914 130.314 110.735C130.3 108.67 129.211 107.467 127.452 107.495C125.738 107.523 124.745 108.67 124.736 110.701C124.724 113.299 124.727 115.898 124.729 118.534C124.73 119.598 124.731 120.668 124.731 121.746H95.0344V120.298C95.0344 119.375 95.0353 118.452 95.0363 117.528C95.0385 115.22 95.0408 112.911 95.0288 110.603C95.0204 108.616 93.9655 107.47 92.2205 107.492C90.5708 107.512 89.4767 108.678 89.4627 110.55C89.4428 113.163 89.4468 115.775 89.4509 118.424C89.4526 119.524 89.4542 120.63 89.4542 121.746H83.0212C83.0133 121.633 83.0027 121.517 82.9918 121.398C82.9678 121.135 82.9426 120.859 82.9426 120.582C82.9419 118.813 82.9389 117.043 82.936 115.273C82.9283 110.672 82.9207 106.072 82.9511 101.473Z" fill="white"/>
<path d="M80.6143 55.3171C80.2776 58.0374 79.9466 60.5413 79.666 63.0481C79.3434 65.9314 77.2869 66.915 74.9331 65.2457C70.5846 62.1629 66.2753 59.0266 61.9043 55.9803C61.2674 55.5363 60.3781 55.2524 59.6038 55.2468C50.7692 55.1962 41.9346 55.2187 33.0972 55.2131C26.6474 55.2075 22.7056 51.2253 22.7168 44.787C22.7308 35.4232 22.7028 26.0566 22.728 16.6928C22.7421 11.803 25.9572 8.00352 30.7518 7.13515C31.4364 7.01149 32.1462 7.00587 32.8447 7.00587C49.7199 7.00025 66.5951 6.99744 83.4703 7.00306C89.2637 7.00587 93.3878 11.1089 93.3934 16.8868C93.4046 26.4388 93.4074 35.9909 93.3934 45.543C93.385 51.1494 89.2384 55.2862 83.6442 55.3171C82.6735 55.3199 81.7 55.3171 80.6143 55.3171ZM74.5656 58.1639C74.863 56.0084 75.093 54.1115 75.3932 52.223C75.6625 50.534 76.6669 49.6769 78.3558 49.6516C79.9915 49.6235 81.6271 49.6516 83.2627 49.6431C86.1047 49.6291 87.7319 48.0441 87.7347 45.2367C87.7459 35.8279 87.7459 26.422 87.7347 17.0132C87.7319 14.3266 86.1215 12.6938 83.4787 12.691C66.6119 12.6826 49.7424 12.6826 32.8756 12.691C29.9242 12.6938 28.4092 14.2282 28.4064 17.2127C28.3952 26.4332 28.4008 35.6537 28.4036 44.8741C28.4064 48.1874 29.8737 49.6403 33.2038 49.6431C42.2685 49.646 51.3331 49.6741 60.3977 49.615C61.8903 49.6066 63.0882 50.0113 64.2749 50.8712C67.5911 53.2852 70.9661 55.6234 74.5656 58.1639Z" fill="white"/>
<path d="M39.5201 142.997C29.8438 142.997 20.1704 142.997 10.4942 142.997C7.97763 142.997 7.00973 142.028 7.00973 139.527C7.00973 133.813 6.98448 128.103 7.01534 122.39C7.07425 111.556 14.0432 102.709 24.5554 100.236C26.3538 99.8119 28.2531 99.6939 30.1104 99.677C36.4677 99.6124 42.8222 99.6377 49.1795 99.663C62.3065 99.7164 72.0641 109.552 72.0781 122.727C72.0837 128.345 72.0837 133.962 72.0781 139.583C72.0753 142.014 71.1018 142.997 68.6862 143C58.9651 143 49.244 142.997 39.5201 142.997ZM24.6985 137.323C34.6497 137.323 44.4381 137.323 54.3949 137.323C54.3949 135.157 54.3669 133.063 54.4033 130.972C54.4342 129.21 55.5368 128.106 57.1696 128.097C58.8192 128.092 59.9386 129.258 59.9751 131.11C60.0144 133.156 59.9835 135.202 59.9835 137.32C62.2111 137.32 64.2844 137.32 66.4025 137.32C66.4025 131.59 66.843 125.894 66.3015 120.296C65.4486 111.466 58.7322 105.503 49.9089 105.295C42.7155 105.123 35.5082 105.146 28.3176 105.34C20.6361 105.548 13.8243 111.708 12.9266 119.354C12.4552 123.376 12.6769 127.482 12.6095 131.548C12.5787 133.454 12.6039 135.359 12.6039 137.32C14.8287 137.32 16.9048 137.32 19.1183 137.32C19.1183 135.199 19.0903 133.15 19.1268 131.101C19.1604 129.247 20.277 128.092 21.9379 128.097C23.6184 128.103 24.6733 129.235 24.6957 131.118C24.7153 133.13 24.6985 135.143 24.6985 137.323Z" fill="white"/>
<path d="M55.2923 78.5158C55.4382 82.5317 55.2754 85.904 53.6735 89.0796C50.4415 95.487 43.2819 98.9464 36.1671 97.4429C29.2122 95.9732 24.008 89.8299 23.8256 82.6638C23.747 79.5388 23.6236 76.3491 24.1314 73.2915C25.4528 65.3357 32.7443 59.9737 40.9168 60.6004C48.7442 61.199 54.9668 67.6795 55.2867 75.5875C55.3344 76.7566 55.2923 77.9257 55.2923 78.5158ZM49.8973 79.283C49.8299 79.2774 49.7598 79.2746 49.6925 79.269C49.6925 77.9594 49.7879 76.6414 49.6756 75.3402C49.2296 70.1188 44.6566 66.0102 39.4495 66.086C34.1976 66.1619 29.7172 70.3099 29.403 75.5313C29.2599 77.9088 29.2599 80.3088 29.3974 82.6863C29.6891 87.6717 33.6617 91.7212 38.5209 92.1456C43.5792 92.5868 48.1859 89.4506 49.3698 84.5579C49.7822 82.8605 49.7345 81.0479 49.8973 79.283Z" fill="white"/>
<path d="M126.001 58.4337C126.217 62.2809 125.841 65.9933 123.762 69.3853C120.103 75.3486 113.078 78.2376 106.331 76.4896C99.5109 74.722 94.7303 68.8963 94.5255 61.8706C94.4357 58.7934 94.3095 55.6487 94.8004 52.6361C96.1274 44.5229 103.385 39.1778 111.751 39.8157C119.492 40.4059 125.7 46.9875 125.992 54.9265C126.037 56.0984 126.001 57.2702 126.001 58.4337ZM120.597 58.4365C120.533 58.4337 120.465 58.4281 120.401 58.4253C120.401 57.1634 120.485 55.8932 120.387 54.637C119.972 49.4015 115.477 45.2901 110.242 45.2929C105.018 45.2957 100.454 49.4465 100.114 54.6511C99.957 57.0735 99.957 59.5213 100.103 61.9465C100.4 66.8645 104.348 70.8916 109.134 71.344C114.251 71.8274 118.894 68.6771 120.081 63.717C120.491 62.014 120.437 60.2013 120.597 58.4365Z" fill="white"/>
<path d="M58.0834 26.2674C55.4126 26.273 53.2523 28.4173 53.2439 31.0701C53.2355 33.65 55.5304 35.9094 58.1171 35.8701C60.6982 35.8307 62.8444 33.6809 62.8724 31.1067C62.9061 28.465 60.7234 26.2618 58.0834 26.2674ZM36.9046 30.9914C36.8765 33.6556 39.0171 35.8532 41.6571 35.8729C44.2522 35.8925 46.5022 33.65 46.4938 31.0448C46.4854 28.4594 44.37 26.3124 41.7777 26.2674C39.1013 26.2196 36.9326 28.3189 36.9046 30.9914ZM79.2118 31.0364C79.2061 28.4032 77.1357 26.2927 74.5378 26.2702C71.8052 26.2477 69.5832 28.451 69.6281 31.1348C69.673 33.6724 71.8809 35.8532 74.4255 35.8701C77.0571 35.8897 79.2174 33.709 79.2118 31.0364Z" fill="white"/>
<path d="M58.0848 26.2673C60.7276 26.2617 62.9075 28.465 62.8766 31.1066C62.8457 33.6808 60.6995 35.8307 58.1213 35.87C55.5346 35.9094 53.2397 33.6499 53.2481 31.0701C53.2537 28.4172 55.4139 26.273 58.0848 26.2673Z" fill="white"/>
<path d="M36.9046 30.9914C36.9326 28.3217 39.1013 26.2196 41.7778 26.2674C44.37 26.3152 46.4882 28.4594 46.4938 31.0448C46.5022 33.65 44.2522 35.8925 41.6571 35.8729C39.0171 35.8532 36.8765 33.6528 36.9046 30.9914Z" fill="white"/>
<path d="M79.2123 31.0364C79.2179 33.7061 77.0577 35.8869 74.4261 35.87C71.8815 35.8532 69.6736 33.6752 69.6287 31.1348C69.581 28.451 71.8058 26.2477 74.5383 26.2702C77.1362 26.2927 79.2067 28.4032 79.2123 31.0364Z" fill="white"/>
</svg>
