<svg width="150" height="150" viewBox="0 0 150 150" fill="none" xmlns="http://www.w3.org/2000/svg">
<path fill-rule="evenodd" clip-rule="evenodd" d="M81.2196 31.4151C81.2196 30.9825 81.2235 30.5579 81.2235 30.0935C81.2235 26.0454 80.6787 22.7831 79.807 20.1994C83.3112 20.6519 85.6448 24.7754 87.1452 29.5181C85.3883 30.0816 83.3883 30.7206 81.2196 31.4151ZM73.4822 71.7773C73.4822 71.7773 69.383 69.5151 64.3591 69.5151C56.99 69.5151 56.6178 74.2975 56.6178 75.5C56.6178 82.0762 73.191 84.5964 73.191 99.9951C73.191 112.108 65.7602 119.91 55.7394 119.91C43.7147 119.91 37.5664 112.171 37.5664 112.171L40.7862 101.174C40.7862 101.174 47.1071 106.786 52.4425 106.786C55.9235 106.786 57.3439 103.948 57.3439 101.876C57.3439 93.2998 43.7456 92.9149 43.7456 78.8218C43.7456 66.9632 51.9786 55.4856 68.5971 55.4856C74.999 55.4856 78.1657 57.3827 78.1657 57.3827L73.4822 71.7773ZM70.7533 16.3934C71.4399 16.3934 72.1274 16.6355 72.7879 17.1038C67.71 19.5724 62.2714 25.7954 59.9726 38.2176C56.614 39.2931 53.3325 40.3448 50.2969 41.3172C52.9863 31.8398 59.3766 16.3934 70.7533 16.3934ZM77.0703 32.0342C77.0703 32.2843 77.0665 32.5145 77.0665 32.7447C73.2093 33.9789 69.0214 35.3204 64.8229 36.6658C67.1796 27.2598 71.598 22.7156 75.4629 21.0011C76.4339 23.5252 77.0703 27.1487 77.0703 32.0342ZM95.3059 26.9791C95.0552 27.0128 94.8383 27.0634 94.6869 27.109C94.6059 27.1328 93.2549 27.5654 91.0178 28.2798C88.8269 21.7631 84.962 15.7743 78.1648 15.7743C77.9767 15.7743 77.781 15.7822 77.5891 15.7941C75.6547 13.1509 73.2595 12 71.1911 12C55.3507 12 47.7821 32.4788 45.4099 42.8808C39.2539 44.8533 34.8819 46.2543 34.3255 46.4368C30.8868 47.5521 30.7788 47.6632 30.3304 51.0088C29.9891 53.5449 21 125.431 21 125.431L91.0448 139L91.119 138.983L95.3059 26.9791ZM100.321 30.5063C102.343 32.5829 104.636 34.9354 104.636 34.9354C104.636 34.9354 114.074 35.6577 114.519 35.6974C114.969 35.7371 115.51 36.0903 115.594 36.7293C115.678 37.3682 129 130.511 129 130.511L96.3098 137.822L100.321 30.5063Z" fill="#31ACDD"/>
</svg>
