<svg width="150" height="150" viewBox="0 0 150 150" fill="none" xmlns="http://www.w3.org/2000/svg">
<path d="M10 113H7.5L7.5 115.5H10H140.5H142.919L142.999 113.082L140.5 113C142.999 113.082 142.999 113.081 142.999 113.079L142.999 113.074L142.999 113.06L143.001 113.01C143.001 112.981 143.002 112.943 143.003 112.898C143.004 112.876 143.004 112.854 143.005 112.829C143.008 112.673 143.011 112.447 143.012 112.156C143.014 111.573 143.008 110.729 142.976 109.66C142.913 107.524 142.747 104.485 142.336 100.844C141.515 93.5763 139.71 83.8379 135.755 74.0623C131.799 64.2852 125.652 54.3746 116.094 46.9052C106.502 39.4092 93.6367 34.5 76.5 34.5C59.363 34.5 46.3539 39.4088 36.5396 46.8864C26.7581 54.339 20.2955 64.2301 16.0221 73.998C11.7492 83.7646 9.62502 93.4971 8.56523 100.764C8.0344 104.404 7.76827 107.442 7.63475 109.578C7.56797 110.647 7.53429 111.491 7.5173 112.074C7.5088 112.365 7.50448 112.591 7.50228 112.747C7.50118 112.825 7.50061 112.885 7.50031 112.928L7.50005 112.978L7.50001 112.992L7.5 112.997C7.5 112.999 7.5 113 10 113Z" stroke="#31ACDD" stroke-width="5"/>
<path d="M18 93.5C18 93.5 26 41 76 41C126 41 134 93.5 134 93.5H128C128 93.5 120.828 46 76 46C31.1724 46 24 93.5 24 93.5H18Z" fill="url(#paint0_linear)"/>
<circle cx="75.5" cy="92.5" r="5" stroke="#31ACDD" stroke-width="3"/>
<line x1="70.9274" y1="88.9071" x2="46.5027" y2="74.0609" stroke="#31ACDD" stroke-width="3" stroke-linecap="round"/>
<defs>
<linearGradient id="paint0_linear" x1="129.5" y1="91" x2="22.5" y2="91" gradientUnits="userSpaceOnUse">
<stop stop-color="#FF0000"/>
<stop offset="0.5" stop-color="#F6FB00"/>
<stop offset="0.65625" stop-color="#FAFF00"/>
<stop offset="0.838542" stop-color="#CCFF00"/>
<stop offset="1" stop-color="#61FF00"/>
</linearGradient>
</defs>
</svg>
