<svg width="150" height="150" viewBox="0 0 150 150" fill="none" xmlns="http://www.w3.org/2000/svg">
<rect width="150" height="150" />
<circle cx="75" cy="75" r="62" fill="#31ACDD"/>
<path d="M75.481 105.611C62.635 105.611 49.7891 105.613 36.9449 105.607C36.3784 105.607 35.8048 105.595 35.2455 105.514C32.0869 105.06 30.5022 103.417 30.1383 100.228C30.063 99.5771 30.0074 98.9186 30.0056 98.2637C29.9984 80.2948 29.9967 62.3241 30.0092 44.3552C30.0092 43.5227 30.0684 42.6758 30.2136 41.8577C30.7496 38.8398 32.7089 37.1569 36.0055 37.069C39.797 36.9685 43.5919 37.008 47.3851 37.0062C69.4022 37.0008 91.4193 37.0008 113.436 37.0044C114.241 37.0044 115.06 36.9882 115.849 37.1174C119.108 37.6521 120.741 39.5898 120.98 43.1316C121.003 43.4886 120.999 43.8492 120.999 44.2081C120.999 62.238 121.003 80.2679 120.992 98.296C120.992 99.159 120.94 100.036 120.784 100.883C120.252 103.784 118.293 105.475 115.182 105.55C111.391 105.643 107.596 105.6 103.801 105.602C94.361 105.607 84.921 105.604 75.481 105.604C75.481 105.607 75.481 105.609 75.481 105.611ZM75.5545 41.2979C62.5884 41.2979 49.6223 41.2961 36.6581 41.2997C33.9655 41.3015 33.806 41.4486 33.8042 44.1273C33.7934 59.0784 33.7916 74.0277 33.7952 88.9788C33.7952 91.6754 33.9225 91.7813 36.6437 91.7831C62.4253 91.7938 88.2087 91.8028 113.99 91.8136C116.806 91.8154 117.244 91.374 117.24 88.5302C117.221 73.7298 117.199 58.9277 117.178 44.1273C117.174 41.4091 117.07 41.2979 114.363 41.2979C101.426 41.2943 88.4901 41.2961 75.5545 41.2979ZM78.0373 98.5203C78.0445 97.1047 76.9133 95.9438 75.5115 95.9313C74.1132 95.9187 72.9588 97.0706 72.9516 98.4844C72.9444 99.8965 74.081 101.063 75.4756 101.075C76.8649 101.088 78.0283 99.927 78.0373 98.5203Z" fill="white"/>
<path d="M68.0571 109.556C73.0513 109.556 77.9345 109.556 82.9413 109.556C82.9413 110.654 82.9969 111.727 82.9287 112.791C82.8248 114.39 83.4683 115.658 84.7608 116.441C86.2003 117.313 87.785 117.946 89.3105 118.676C89.4682 118.752 89.6565 118.764 89.8286 118.813C90.7034 119.057 91.1479 119.604 91.0135 120.325C90.8611 121.14 90.3269 121.42 89.5238 121.416C85.6141 121.398 81.7026 121.409 77.7929 121.409C72.51 121.409 67.2271 121.409 61.9424 121.407C60.5531 121.407 60.0584 121.116 59.9723 120.257C59.8917 119.45 60.3846 119.128 61.5696 118.671C63.1417 118.064 64.6995 117.361 66.1479 116.505C67.5139 115.7 68.1844 114.39 68.0696 112.721C67.9997 111.686 68.0571 110.644 68.0571 109.556Z" fill="white"/>
<path d="M87.6663 47L94.918 54.2517L79.4647 69.705L66.798 57.0383L43.333 80.535L47.798 85L66.798 66L79.4647 78.6667L99.4147 58.7483L106.666 66V47H87.6663Z" fill="white"/>
</svg>
