<svg width="344" height="61" viewBox="0 0 344 61" fill="none" xmlns="http://www.w3.org/2000/svg">
<g clip-path="url(#clip0)">
<path d="M31.0489 3.92705C31.3483 3.00574 32.6517 3.00574 32.9511 3.92705L38.9599 22.4205C39.0938 22.8325 39.4778 23.1115 39.911 23.1115H59.3561C60.3249 23.1115 60.7276 24.3511 59.9439 24.9205L44.2125 36.35C43.862 36.6047 43.7153 37.056 43.8492 37.4681L49.8581 55.9615C50.1574 56.8828 49.1029 57.6489 48.3192 57.0795L32.5878 45.65C32.2373 45.3953 31.7627 45.3953 31.4122 45.65L15.6808 57.0795C14.8971 57.6489 13.8426 56.8828 14.1419 55.9615L20.1508 37.4681C20.2847 37.056 20.138 36.6047 19.7875 36.35L4.05609 24.9205C3.27237 24.3511 3.67515 23.1115 4.64387 23.1115H24.089C24.5222 23.1115 24.9062 22.8325 25.0401 22.4205L31.0489 3.92705Z" fill="#DD9831"/>
<path d="M101.049 3.92705C101.348 3.00574 102.652 3.00574 102.951 3.92705L108.96 22.4205C109.094 22.8325 109.478 23.1115 109.911 23.1115H129.356C130.325 23.1115 130.728 24.3511 129.944 24.9205L114.212 36.35C113.862 36.6047 113.715 37.056 113.849 37.4681L119.858 55.9615C120.157 56.8828 119.103 57.6489 118.319 57.0795L102.588 45.65C102.237 45.3953 101.763 45.3953 101.412 45.65L85.6808 57.0795C84.8971 57.6489 83.8426 56.8828 84.1419 55.9615L90.1508 37.4681C90.2847 37.056 90.138 36.6047 89.7875 36.35L74.0561 24.9205C73.2724 24.3511 73.6752 23.1115 74.6439 23.1115H94.089C94.5222 23.1115 94.9062 22.8325 95.0401 22.4205L101.049 3.92705Z" fill="#DD9831"/>
<path d="M171.049 3.92705C171.348 3.00574 172.652 3.00574 172.951 3.92705L178.96 22.4205C179.094 22.8325 179.478 23.1115 179.911 23.1115H199.356C200.325 23.1115 200.728 24.3511 199.944 24.9205L184.212 36.35C183.862 36.6047 183.715 37.056 183.849 37.4681L189.858 55.9615C190.157 56.8828 189.103 57.6489 188.319 57.0795L172.588 45.65C172.237 45.3953 171.763 45.3953 171.412 45.65L155.681 57.0795C154.897 57.6489 153.843 56.8828 154.142 55.9615L160.151 37.4681C160.285 37.056 160.138 36.6047 159.788 36.35L144.056 24.9205C143.272 24.3511 143.675 23.1115 144.644 23.1115H164.089C164.522 23.1115 164.906 22.8325 165.04 22.4205L171.049 3.92705Z" fill="#DD9831"/>
<path d="M241.049 3.92705C241.348 3.00574 242.652 3.00574 242.951 3.92705L248.96 22.4205C249.094 22.8325 249.478 23.1115 249.911 23.1115H269.356C270.325 23.1115 270.728 24.3511 269.944 24.9205L254.212 36.35C253.862 36.6047 253.715 37.056 253.849 37.4681L259.858 55.9615C260.157 56.8828 259.103 57.6489 258.319 57.0795L242.588 45.65C242.237 45.3953 241.763 45.3953 241.412 45.65L225.681 57.0795C224.897 57.6489 223.843 56.8828 224.142 55.9615L230.151 37.4681C230.285 37.056 230.138 36.6047 229.788 36.35L214.056 24.9205C213.272 24.3511 213.675 23.1115 214.644 23.1115H234.089C234.522 23.1115 234.906 22.8325 235.04 22.4205L241.049 3.92705Z" fill="#DD9831"/>
<path d="M311.049 3.92705C311.348 3.00574 312.652 3.00574 312.951 3.92705L318.96 22.4205C319.094 22.8325 319.478 23.1115 319.911 23.1115H339.356C340.325 23.1115 340.728 24.3511 339.944 24.9205L324.212 36.35C323.862 36.6047 323.715 37.056 323.849 37.4681L329.858 55.9615C330.157 56.8828 329.103 57.6489 328.319 57.0795L312.588 45.65C312.237 45.3953 311.763 45.3953 311.412 45.65L295.681 57.0795C294.897 57.6489 293.843 56.8828 294.142 55.9615L300.151 37.4681C300.285 37.056 300.138 36.6047 299.788 36.35L284.056 24.9205C283.272 24.3511 283.675 23.1115 284.644 23.1115H304.089C304.522 23.1115 304.906 22.8325 305.04 22.4205L311.049 3.92705Z" fill="#DD9831"/>
</g>
<defs>
<clipPath id="clip0">
<rect width="344" height="61" fill="white"/>
</clipPath>
</defs>
</svg>
