<svg width="503" height="118" viewBox="0 0 503 118" fill="none" xmlns="http://www.w3.org/2000/svg">
<rect x="3" y="3" width="497" height="112" rx="5" fill="url(#paint0_linear)"/>
<path d="M140.6 76C139.867 76 139.25 75.75 138.75 75.25C138.25 74.75 138 74.1333 138 73.4V39.55C138 38.7833 138.25 38.1667 138.75 37.7C139.25 37.2 139.867 36.95 140.6 36.95H152.55C154.817 36.95 156.8 37.4 158.5 38.3C160.233 39.1667 161.583 40.3833 162.55 41.95C163.55 43.5167 164.05 45.3167 164.05 47.35C164.05 48.9833 163.6 50.4667 162.7 51.8C161.833 53.1 160.633 54.1333 159.1 54.9C161.3 55.4333 163.067 56.4833 164.4 58.05C165.733 59.6167 166.4 61.6667 166.4 64.2C166.4 66.5 165.85 68.5333 164.75 70.3C163.683 72.0667 162.183 73.4667 160.25 74.5C158.317 75.5 156.1 76 153.6 76H140.6ZM143.2 53H152.55C154.45 53 156 52.5333 157.2 51.6C158.433 50.6667 159.05 49.25 159.05 47.35C159.05 45.45 158.433 44.05 157.2 43.15C156 42.2167 154.45 41.75 152.55 41.75H143.2V53ZM143.2 71.2H153.6C155.867 71.2 157.733 70.6167 159.2 69.45C160.667 68.25 161.4 66.5 161.4 64.2C161.4 62.0667 160.667 60.4667 159.2 59.4C157.733 58.3333 155.867 57.8 153.6 57.8H143.2V71.2ZM176.683 76C175.949 76 175.333 75.7667 174.833 75.3C174.366 74.8 174.133 74.1833 174.133 73.45V51.2C174.133 50.4333 174.366 49.8167 174.833 49.35C175.333 48.8833 175.949 48.65 176.683 48.65C177.449 48.65 178.066 48.8833 178.533 49.35C178.999 49.8167 179.233 50.4333 179.233 51.2V73.45C179.233 74.1833 178.999 74.8 178.533 75.3C178.066 75.7667 177.449 76 176.683 76ZM176.683 44.2C175.783 44.2 174.999 43.8833 174.333 43.25C173.699 42.5833 173.383 41.8 173.383 40.9C173.383 40 173.699 39.2333 174.333 38.6C174.999 37.9333 175.783 37.6 176.683 37.6C177.583 37.6 178.349 37.9333 178.983 38.6C179.649 39.2333 179.983 40 179.983 40.9C179.983 41.8 179.649 42.5833 178.983 43.25C178.349 43.8833 177.583 44.2 176.683 44.2ZM189.821 76C188.254 76 187.471 75.2167 187.471 73.65C187.471 72.9833 187.621 72.45 187.921 72.05L202.071 53.35H189.321C187.754 53.35 186.971 52.5667 186.971 51C186.971 49.4333 187.754 48.65 189.321 48.65H206.371C207.937 48.65 208.721 49.4333 208.721 51C208.721 51.6667 208.571 52.2 208.271 52.6L194.171 71.3H206.871C208.437 71.3 209.221 72.0833 209.221 73.65C209.221 75.2167 208.437 76 206.871 76H189.821ZM216.823 76C215.256 76 214.473 75.2167 214.473 73.65C214.473 72.9833 214.623 72.45 214.923 72.05L229.073 53.35H216.323C214.756 53.35 213.973 52.5667 213.973 51C213.973 49.4333 214.756 48.65 216.323 48.65H233.373C234.939 48.65 235.723 49.4333 235.723 51C235.723 51.6667 235.573 52.2 235.273 52.6L221.173 71.3H233.873C235.439 71.3 236.223 72.0833 236.223 73.65C236.223 75.2167 235.439 76 233.873 76H216.823ZM266.173 76C264.873 76 264.006 75.3167 263.573 73.95L253.523 40.55C253.19 39.45 253.206 38.5833 253.573 37.95C253.973 37.2833 254.606 36.95 255.473 36.95C256.04 36.95 256.556 37.1167 257.023 37.45C257.49 37.75 257.823 38.2333 258.023 38.9L266.223 67.4L273.773 39.2C273.906 38.7 274.206 38.2833 274.673 37.95C275.14 37.6167 275.673 37.45 276.273 37.45C276.806 37.45 277.306 37.6 277.773 37.9C278.273 38.1667 278.59 38.5833 278.723 39.15L286.373 67.6L294.673 38.65C295.006 37.5167 295.856 36.95 297.223 36.95C298.156 36.95 298.756 37.3167 299.023 38.05C299.29 38.75 299.29 39.5833 299.023 40.55L288.973 73.9C288.74 74.5333 288.39 75.05 287.923 75.45C287.49 75.8167 286.973 76 286.373 76C285.74 76 285.19 75.8 284.723 75.4C284.29 75 283.973 74.5167 283.773 73.95L276.323 45.15L268.773 73.9C268.54 74.5333 268.19 75.05 267.723 75.45C267.29 75.8167 266.773 76 266.173 76ZM311.629 76.2C308.863 76.2 306.396 75.6167 304.229 74.45C302.096 73.25 300.413 71.6167 299.179 69.55C297.979 67.45 297.379 65.05 297.379 62.35C297.379 59.6167 297.946 57.2167 299.079 55.15C300.246 53.05 301.846 51.4167 303.879 50.25C305.913 49.05 308.246 48.45 310.879 48.45C313.479 48.45 315.713 49.0333 317.579 50.2C319.446 51.3333 320.863 52.9167 321.829 54.95C322.829 56.95 323.329 59.2667 323.329 61.9C323.329 62.5333 323.113 63.0667 322.679 63.5C322.246 63.9 321.696 64.1 321.029 64.1H302.029C302.396 66.4 303.446 68.2833 305.179 69.75C306.946 71.1833 309.096 71.9 311.629 71.9C312.663 71.9 313.713 71.7167 314.779 71.35C315.879 70.95 316.763 70.5 317.429 70C317.929 69.6333 318.463 69.45 319.029 69.45C319.629 69.4167 320.146 69.5833 320.579 69.95C321.146 70.45 321.446 71 321.479 71.6C321.513 72.2 321.246 72.7167 320.679 73.15C319.546 74.05 318.129 74.7833 316.429 75.35C314.763 75.9167 313.163 76.2 311.629 76.2ZM310.879 52.75C308.413 52.75 306.429 53.4333 304.929 54.8C303.429 56.1667 302.479 57.9333 302.079 60.1H318.729C318.429 57.9667 317.613 56.2167 316.279 54.85C314.946 53.45 313.146 52.75 310.879 52.75ZM343.584 76.2C340.984 76.2 338.651 75.6 336.584 74.4C334.517 73.1667 332.884 71.5 331.684 69.4C330.484 67.3 329.867 64.9333 329.834 62.3V39.5C329.834 38.7333 330.067 38.1167 330.534 37.65C331.034 37.1833 331.651 36.95 332.384 36.95C333.151 36.95 333.767 37.1833 334.234 37.65C334.701 38.1167 334.934 38.7333 334.934 39.5V53C336.101 51.6 337.501 50.5 339.134 49.7C340.801 48.8667 342.617 48.45 344.584 48.45C347.017 48.45 349.201 49.0667 351.134 50.3C353.067 51.5 354.584 53.15 355.684 55.25C356.817 57.3167 357.384 59.6667 357.384 62.3C357.384 64.9333 356.767 67.3 355.534 69.4C354.334 71.5 352.701 73.1667 350.634 74.4C348.567 75.6 346.217 76.2 343.584 76.2ZM343.584 71.7C345.284 71.7 346.801 71.3 348.134 70.5C349.467 69.6667 350.517 68.5333 351.284 67.1C352.084 65.6667 352.484 64.0667 352.484 62.3C352.484 60.5 352.084 58.9 351.284 57.5C350.517 56.1 349.467 55 348.134 54.2C346.801 53.3667 345.284 52.95 343.584 52.95C341.917 52.95 340.401 53.3667 339.034 54.2C337.701 55 336.651 56.1 335.884 57.5C335.117 58.9 334.734 60.5 334.734 62.3C334.734 64.0667 335.117 65.6667 335.884 67.1C336.651 68.5333 337.701 69.6667 339.034 70.5C340.401 71.3 341.917 71.7 343.584 71.7ZM374.94 76.2C372.607 76.2 370.44 75.85 368.44 75.15C366.474 74.4167 364.94 73.5 363.84 72.4C363.34 71.8667 363.124 71.2667 363.19 70.6C363.29 69.9 363.624 69.3333 364.19 68.9C364.857 68.3667 365.507 68.15 366.14 68.25C366.807 68.3167 367.374 68.6 367.84 69.1C368.407 69.7333 369.307 70.3333 370.54 70.9C371.807 71.4333 373.207 71.7 374.74 71.7C376.674 71.7 378.14 71.3833 379.14 70.75C380.174 70.1167 380.707 69.3 380.74 68.3C380.774 67.3 380.29 66.4333 379.29 65.7C378.324 64.9667 376.54 64.3667 373.94 63.9C370.574 63.2333 368.124 62.2333 366.59 60.9C365.09 59.5667 364.34 57.9333 364.34 56C364.34 54.3 364.84 52.9 365.84 51.8C366.84 50.6667 368.124 49.8333 369.69 49.3C371.257 48.7333 372.89 48.45 374.59 48.45C376.79 48.45 378.74 48.8 380.44 49.5C382.14 50.2 383.49 51.1667 384.49 52.4C384.957 52.9333 385.174 53.5 385.14 54.1C385.107 54.6667 384.824 55.15 384.29 55.55C383.757 55.9167 383.124 56.0333 382.39 55.9C381.657 55.7667 381.04 55.4667 380.54 55C379.707 54.2 378.807 53.65 377.84 53.35C376.874 53.05 375.757 52.9 374.49 52.9C373.024 52.9 371.774 53.15 370.74 53.65C369.74 54.15 369.24 54.8833 369.24 55.85C369.24 56.45 369.39 57 369.69 57.5C370.024 57.9667 370.657 58.4 371.59 58.8C372.524 59.1667 373.89 59.5333 375.69 59.9C379.457 60.6333 382.057 61.6833 383.49 63.05C384.957 64.3833 385.69 66.0333 385.69 68C385.69 69.5333 385.274 70.9167 384.44 72.15C383.64 73.3833 382.44 74.3667 380.84 75.1C379.274 75.8333 377.307 76.2 374.94 76.2ZM395.189 76C394.455 76 393.839 75.7667 393.339 75.3C392.872 74.8 392.639 74.1833 392.639 73.45V51.2C392.639 50.4333 392.872 49.8167 393.339 49.35C393.839 48.8833 394.455 48.65 395.189 48.65C395.955 48.65 396.572 48.8833 397.039 49.35C397.505 49.8167 397.739 50.4333 397.739 51.2V73.45C397.739 74.1833 397.505 74.8 397.039 75.3C396.572 75.7667 395.955 76 395.189 76ZM395.189 44.2C394.289 44.2 393.505 43.8833 392.839 43.25C392.205 42.5833 391.889 41.8 391.889 40.9C391.889 40 392.205 39.2333 392.839 38.6C393.505 37.9333 394.289 37.6 395.189 37.6C396.089 37.6 396.855 37.9333 397.489 38.6C398.155 39.2333 398.489 40 398.489 40.9C398.489 41.8 398.155 42.5833 397.489 43.25C396.855 43.8833 396.089 44.2 395.189 44.2ZM417.177 76C415.51 76 414.01 75.5833 412.677 74.75C411.343 73.8833 410.293 72.7167 409.527 71.25C408.76 69.7833 408.377 68.1333 408.377 66.3V53.95H406.077C405.377 53.95 404.81 53.75 404.377 53.35C403.943 52.95 403.727 52.45 403.727 51.85C403.727 51.1833 403.943 50.65 404.377 50.25C404.81 49.85 405.377 49.65 406.077 49.65H408.377V42.45C408.377 41.7167 408.61 41.1167 409.077 40.65C409.543 40.1833 410.143 39.95 410.877 39.95C411.61 39.95 412.21 40.1833 412.677 40.65C413.143 41.1167 413.377 41.7167 413.377 42.45V49.65H417.627C418.327 49.65 418.893 49.85 419.327 50.25C419.76 50.65 419.977 51.1833 419.977 51.85C419.977 52.45 419.76 52.95 419.327 53.35C418.893 53.75 418.327 53.95 417.627 53.95H413.377V66.3C413.377 67.6333 413.743 68.75 414.477 69.65C415.21 70.55 416.11 71 417.177 71H418.877C419.477 71 419.977 71.2333 420.377 71.7C420.81 72.1667 421.027 72.7667 421.027 73.5C421.027 74.2333 420.743 74.8333 420.177 75.3C419.643 75.7667 418.943 76 418.077 76H417.177ZM440.145 76.2C437.378 76.2 434.912 75.6167 432.745 74.45C430.612 73.25 428.928 71.6167 427.695 69.55C426.495 67.45 425.895 65.05 425.895 62.35C425.895 59.6167 426.462 57.2167 427.595 55.15C428.762 53.05 430.362 51.4167 432.395 50.25C434.428 49.05 436.762 48.45 439.395 48.45C441.995 48.45 444.228 49.0333 446.095 50.2C447.962 51.3333 449.378 52.9167 450.345 54.95C451.345 56.95 451.845 59.2667 451.845 61.9C451.845 62.5333 451.628 63.0667 451.195 63.5C450.762 63.9 450.212 64.1 449.545 64.1H430.545C430.912 66.4 431.962 68.2833 433.695 69.75C435.462 71.1833 437.612 71.9 440.145 71.9C441.178 71.9 442.228 71.7167 443.295 71.35C444.395 70.95 445.278 70.5 445.945 70C446.445 69.6333 446.978 69.45 447.545 69.45C448.145 69.4167 448.662 69.5833 449.095 69.95C449.662 70.45 449.962 71 449.995 71.6C450.028 72.2 449.762 72.7167 449.195 73.15C448.062 74.05 446.645 74.7833 444.945 75.35C443.278 75.9167 441.678 76.2 440.145 76.2ZM439.395 52.75C436.928 52.75 434.945 53.4333 433.445 54.8C431.945 56.1667 430.995 57.9333 430.595 60.1H447.245C446.945 57.9667 446.128 56.2167 444.795 54.85C443.462 53.45 441.662 52.75 439.395 52.75ZM468.3 76.2C465.966 76.2 463.8 75.85 461.8 75.15C459.833 74.4167 458.3 73.5 457.2 72.4C456.7 71.8667 456.483 71.2667 456.55 70.6C456.65 69.9 456.983 69.3333 457.55 68.9C458.216 68.3667 458.866 68.15 459.5 68.25C460.166 68.3167 460.733 68.6 461.2 69.1C461.766 69.7333 462.666 70.3333 463.9 70.9C465.166 71.4333 466.566 71.7 468.1 71.7C470.033 71.7 471.5 71.3833 472.5 70.75C473.533 70.1167 474.066 69.3 474.1 68.3C474.133 67.3 473.65 66.4333 472.65 65.7C471.683 64.9667 469.9 64.3667 467.3 63.9C463.933 63.2333 461.483 62.2333 459.95 60.9C458.45 59.5667 457.7 57.9333 457.7 56C457.7 54.3 458.2 52.9 459.2 51.8C460.2 50.6667 461.483 49.8333 463.05 49.3C464.616 48.7333 466.25 48.45 467.95 48.45C470.15 48.45 472.1 48.8 473.8 49.5C475.5 50.2 476.85 51.1667 477.85 52.4C478.316 52.9333 478.533 53.5 478.5 54.1C478.466 54.6667 478.183 55.15 477.65 55.55C477.116 55.9167 476.483 56.0333 475.75 55.9C475.016 55.7667 474.4 55.4667 473.9 55C473.066 54.2 472.166 53.65 471.2 53.35C470.233 53.05 469.116 52.9 467.85 52.9C466.383 52.9 465.133 53.15 464.1 53.65C463.1 54.15 462.6 54.8833 462.6 55.85C462.6 56.45 462.75 57 463.05 57.5C463.383 57.9667 464.016 58.4 464.95 58.8C465.883 59.1667 467.25 59.5333 469.05 59.9C472.816 60.6333 475.416 61.6833 476.85 63.05C478.316 64.3833 479.05 66.0333 479.05 68C479.05 69.5333 478.633 70.9167 477.8 72.15C477 73.3833 475.8 74.3667 474.2 75.1C472.633 75.8333 470.666 76.2 468.3 76.2Z" fill="white" fill-opacity="0.9"/>
<rect x="18" y="9" width="99" height="100.597" rx="6" fill="white"/>
<mask id="mask0" mask-type="alpha" maskUnits="userSpaceOnUse" x="38" y="31" width="58" height="58">
<path d="M66.6731 62.1318L54.2841 54.8772C53.9777 54.6978 53.7894 54.3694 53.7894 54.0143V39.699C53.7894 39.3425 53.9792 39.013 54.2875 38.8341L66.6766 31.6461C66.9869 31.466 67.37 31.466 67.6803 31.6461L80.0694 38.8341C80.3777 39.013 80.5675 39.3425 80.5675 39.699V54.0143C80.5675 54.3694 80.3793 54.6978 80.0728 54.8772L67.6838 62.1318C67.3717 62.3145 66.9852 62.3145 66.6731 62.1318Z" fill="white"/>
<path d="M81.9569 87.8994L69.5678 80.6449C69.2614 80.4654 69.0731 80.137 69.0731 79.7819V65.4667C69.0731 65.1102 69.2629 64.7806 69.5713 64.6017L81.9604 57.4137C82.2707 57.2336 82.6537 57.2336 82.964 57.4137L95.3531 64.6017C95.6615 64.7806 95.8513 65.1102 95.8513 65.4667V79.7819C95.8513 80.137 95.663 80.4654 95.3566 80.6449L82.9675 87.8994C82.6554 88.0822 82.269 88.0822 81.9569 87.8994Z" fill="white"/>
<path d="M51.642 87.8994L39.2529 80.6449C38.9465 80.4654 38.7582 80.137 38.7582 79.7819V65.4667C38.7582 65.1102 38.948 64.7806 39.2563 64.6017L51.6454 57.4137C51.9558 57.2336 52.3388 57.2336 52.6491 57.4137L65.0382 64.6017C65.3466 64.7806 65.5363 65.1102 65.5363 65.4667V79.7819C65.5363 80.137 65.3481 80.4654 65.0417 80.6449L52.6526 87.8994C52.3405 88.0822 51.954 88.0822 51.642 87.8994Z" fill="white"/>
</mask>
<g mask="url(#mask0)">
<rect x="30.7742" y="31.3549" width="72.2505" height="58.1036" rx="1" fill="url(#paint1_linear)"/>
</g>
<defs>
<linearGradient id="paint0_linear" x1="461" y1="22" x2="27.5" y2="100.5" gradientUnits="userSpaceOnUse">
<stop offset="0.1875" stop-color="#0570BE"/>
<stop offset="1" stop-color="#5BDEFB"/>
</linearGradient>
<linearGradient id="paint1_linear" x1="66.8994" y1="31.3549" x2="66.8994" y2="89.4585" gradientUnits="userSpaceOnUse">
<stop stop-color="#0671BF"/>
<stop offset="1" stop-color="#5BDEFB"/>
</linearGradient>
</defs>
</svg>
