<svg width="468" height="105" viewBox="0 0 468 105" fill="none" xmlns="http://www.w3.org/2000/svg">
<g clip-path="url(#clip0)">
<path d="M124.6 69C123.867 69 123.25 68.75 122.75 68.25C122.25 67.75 122 67.1333 122 66.4V32.55C122 31.7833 122.25 31.1667 122.75 30.7C123.25 30.2 123.867 29.95 124.6 29.95H136.55C138.817 29.95 140.8 30.4 142.5 31.3C144.233 32.1667 145.583 33.3833 146.55 34.95C147.55 36.5167 148.05 38.3167 148.05 40.35C148.05 41.9833 147.6 43.4667 146.7 44.8C145.833 46.1 144.633 47.1333 143.1 47.9C145.3 48.4333 147.067 49.4833 148.4 51.05C149.733 52.6167 150.4 54.6667 150.4 57.2C150.4 59.5 149.85 61.5333 148.75 63.3C147.683 65.0667 146.183 66.4667 144.25 67.5C142.317 68.5 140.1 69 137.6 69H124.6ZM127.2 46H136.55C138.45 46 140 45.5333 141.2 44.6C142.433 43.6667 143.05 42.25 143.05 40.35C143.05 38.45 142.433 37.05 141.2 36.15C140 35.2167 138.45 34.75 136.55 34.75H127.2V46ZM127.2 64.2H137.6C139.867 64.2 141.733 63.6167 143.2 62.45C144.667 61.25 145.4 59.5 145.4 57.2C145.4 55.0667 144.667 53.4667 143.2 52.4C141.733 51.3333 139.867 50.8 137.6 50.8H127.2V64.2ZM160.683 69C159.949 69 159.333 68.7667 158.833 68.3C158.366 67.8 158.133 67.1833 158.133 66.45V44.2C158.133 43.4333 158.366 42.8167 158.833 42.35C159.333 41.8833 159.949 41.65 160.683 41.65C161.449 41.65 162.066 41.8833 162.533 42.35C162.999 42.8167 163.233 43.4333 163.233 44.2V66.45C163.233 67.1833 162.999 67.8 162.533 68.3C162.066 68.7667 161.449 69 160.683 69ZM160.683 37.2C159.783 37.2 158.999 36.8833 158.333 36.25C157.699 35.5833 157.383 34.8 157.383 33.9C157.383 33 157.699 32.2333 158.333 31.6C158.999 30.9333 159.783 30.6 160.683 30.6C161.583 30.6 162.349 30.9333 162.983 31.6C163.649 32.2333 163.983 33 163.983 33.9C163.983 34.8 163.649 35.5833 162.983 36.25C162.349 36.8833 161.583 37.2 160.683 37.2ZM173.821 69C172.254 69 171.471 68.2167 171.471 66.65C171.471 65.9833 171.621 65.45 171.921 65.05L186.071 46.35H173.321C171.754 46.35 170.971 45.5667 170.971 44C170.971 42.4333 171.754 41.65 173.321 41.65H190.371C191.937 41.65 192.721 42.4333 192.721 44C192.721 44.6667 192.571 45.2 192.271 45.6L178.171 64.3H190.871C192.437 64.3 193.221 65.0833 193.221 66.65C193.221 68.2167 192.437 69 190.871 69H173.821ZM200.823 69C199.256 69 198.473 68.2167 198.473 66.65C198.473 65.9833 198.623 65.45 198.923 65.05L213.073 46.35H200.323C198.756 46.35 197.973 45.5667 197.973 44C197.973 42.4333 198.756 41.65 200.323 41.65H217.373C218.939 41.65 219.723 42.4333 219.723 44C219.723 44.6667 219.573 45.2 219.273 45.6L205.173 64.3H217.873C219.439 64.3 220.223 65.0833 220.223 66.65C220.223 68.2167 219.439 69 217.873 69H200.823ZM250.173 69C248.873 69 248.006 68.3167 247.573 66.95L237.523 33.55C237.19 32.45 237.206 31.5833 237.573 30.95C237.973 30.2833 238.606 29.95 239.473 29.95C240.04 29.95 240.556 30.1167 241.023 30.45C241.49 30.75 241.823 31.2333 242.023 31.9L250.223 60.4L257.773 32.2C257.906 31.7 258.206 31.2833 258.673 30.95C259.14 30.6167 259.673 30.45 260.273 30.45C260.806 30.45 261.306 30.6 261.773 30.9C262.273 31.1667 262.59 31.5833 262.723 32.15L270.373 60.6L278.673 31.65C279.006 30.5167 279.856 29.95 281.223 29.95C282.156 29.95 282.756 30.3167 283.023 31.05C283.29 31.75 283.29 32.5833 283.023 33.55L272.973 66.9C272.74 67.5333 272.39 68.05 271.923 68.45C271.49 68.8167 270.973 69 270.373 69C269.74 69 269.19 68.8 268.723 68.4C268.29 68 267.973 67.5167 267.773 66.95L260.323 38.15L252.773 66.9C252.54 67.5333 252.19 68.05 251.723 68.45C251.29 68.8167 250.773 69 250.173 69ZM295.629 69.2C292.863 69.2 290.396 68.6167 288.229 67.45C286.096 66.25 284.413 64.6167 283.179 62.55C281.979 60.45 281.379 58.05 281.379 55.35C281.379 52.6167 281.946 50.2167 283.079 48.15C284.246 46.05 285.846 44.4167 287.879 43.25C289.913 42.05 292.246 41.45 294.879 41.45C297.479 41.45 299.713 42.0333 301.579 43.2C303.446 44.3333 304.863 45.9167 305.829 47.95C306.829 49.95 307.329 52.2667 307.329 54.9C307.329 55.5333 307.113 56.0667 306.679 56.5C306.246 56.9 305.696 57.1 305.029 57.1H286.029C286.396 59.4 287.446 61.2833 289.179 62.75C290.946 64.1833 293.096 64.9 295.629 64.9C296.663 64.9 297.713 64.7167 298.779 64.35C299.879 63.95 300.763 63.5 301.429 63C301.929 62.6333 302.463 62.45 303.029 62.45C303.629 62.4167 304.146 62.5833 304.579 62.95C305.146 63.45 305.446 64 305.479 64.6C305.513 65.2 305.246 65.7167 304.679 66.15C303.546 67.05 302.129 67.7833 300.429 68.35C298.763 68.9167 297.163 69.2 295.629 69.2ZM294.879 45.75C292.413 45.75 290.429 46.4333 288.929 47.8C287.429 49.1667 286.479 50.9333 286.079 53.1H302.729C302.429 50.9667 301.613 49.2167 300.279 47.85C298.946 46.45 297.146 45.75 294.879 45.75ZM327.584 69.2C324.984 69.2 322.651 68.6 320.584 67.4C318.517 66.1667 316.884 64.5 315.684 62.4C314.484 60.3 313.867 57.9333 313.834 55.3V32.5C313.834 31.7333 314.067 31.1167 314.534 30.65C315.034 30.1833 315.651 29.95 316.384 29.95C317.151 29.95 317.767 30.1833 318.234 30.65C318.701 31.1167 318.934 31.7333 318.934 32.5V46C320.101 44.6 321.501 43.5 323.134 42.7C324.801 41.8667 326.617 41.45 328.584 41.45C331.017 41.45 333.201 42.0667 335.134 43.3C337.067 44.5 338.584 46.15 339.684 48.25C340.817 50.3167 341.384 52.6667 341.384 55.3C341.384 57.9333 340.767 60.3 339.534 62.4C338.334 64.5 336.701 66.1667 334.634 67.4C332.567 68.6 330.217 69.2 327.584 69.2ZM327.584 64.7C329.284 64.7 330.801 64.3 332.134 63.5C333.467 62.6667 334.517 61.5333 335.284 60.1C336.084 58.6667 336.484 57.0667 336.484 55.3C336.484 53.5 336.084 51.9 335.284 50.5C334.517 49.1 333.467 48 332.134 47.2C330.801 46.3667 329.284 45.95 327.584 45.95C325.917 45.95 324.401 46.3667 323.034 47.2C321.701 48 320.651 49.1 319.884 50.5C319.117 51.9 318.734 53.5 318.734 55.3C318.734 57.0667 319.117 58.6667 319.884 60.1C320.651 61.5333 321.701 62.6667 323.034 63.5C324.401 64.3 325.917 64.7 327.584 64.7ZM358.94 69.2C356.607 69.2 354.44 68.85 352.44 68.15C350.474 67.4167 348.94 66.5 347.84 65.4C347.34 64.8667 347.124 64.2667 347.19 63.6C347.29 62.9 347.624 62.3333 348.19 61.9C348.857 61.3667 349.507 61.15 350.14 61.25C350.807 61.3167 351.374 61.6 351.84 62.1C352.407 62.7333 353.307 63.3333 354.54 63.9C355.807 64.4333 357.207 64.7 358.74 64.7C360.674 64.7 362.14 64.3833 363.14 63.75C364.174 63.1167 364.707 62.3 364.74 61.3C364.774 60.3 364.29 59.4333 363.29 58.7C362.324 57.9667 360.54 57.3667 357.94 56.9C354.574 56.2333 352.124 55.2333 350.59 53.9C349.09 52.5667 348.34 50.9333 348.34 49C348.34 47.3 348.84 45.9 349.84 44.8C350.84 43.6667 352.124 42.8333 353.69 42.3C355.257 41.7333 356.89 41.45 358.59 41.45C360.79 41.45 362.74 41.8 364.44 42.5C366.14 43.2 367.49 44.1667 368.49 45.4C368.957 45.9333 369.174 46.5 369.14 47.1C369.107 47.6667 368.824 48.15 368.29 48.55C367.757 48.9167 367.124 49.0333 366.39 48.9C365.657 48.7667 365.04 48.4667 364.54 48C363.707 47.2 362.807 46.65 361.84 46.35C360.874 46.05 359.757 45.9 358.49 45.9C357.024 45.9 355.774 46.15 354.74 46.65C353.74 47.15 353.24 47.8833 353.24 48.85C353.24 49.45 353.39 50 353.69 50.5C354.024 50.9667 354.657 51.4 355.59 51.8C356.524 52.1667 357.89 52.5333 359.69 52.9C363.457 53.6333 366.057 54.6833 367.49 56.05C368.957 57.3833 369.69 59.0333 369.69 61C369.69 62.5333 369.274 63.9167 368.44 65.15C367.64 66.3833 366.44 67.3667 364.84 68.1C363.274 68.8333 361.307 69.2 358.94 69.2ZM379.189 69C378.455 69 377.839 68.7667 377.339 68.3C376.872 67.8 376.639 67.1833 376.639 66.45V44.2C376.639 43.4333 376.872 42.8167 377.339 42.35C377.839 41.8833 378.455 41.65 379.189 41.65C379.955 41.65 380.572 41.8833 381.039 42.35C381.505 42.8167 381.739 43.4333 381.739 44.2V66.45C381.739 67.1833 381.505 67.8 381.039 68.3C380.572 68.7667 379.955 69 379.189 69ZM379.189 37.2C378.289 37.2 377.505 36.8833 376.839 36.25C376.205 35.5833 375.889 34.8 375.889 33.9C375.889 33 376.205 32.2333 376.839 31.6C377.505 30.9333 378.289 30.6 379.189 30.6C380.089 30.6 380.855 30.9333 381.489 31.6C382.155 32.2333 382.489 33 382.489 33.9C382.489 34.8 382.155 35.5833 381.489 36.25C380.855 36.8833 380.089 37.2 379.189 37.2ZM401.177 69C399.51 69 398.01 68.5833 396.677 67.75C395.343 66.8833 394.293 65.7167 393.527 64.25C392.76 62.7833 392.377 61.1333 392.377 59.3V46.95H390.077C389.377 46.95 388.81 46.75 388.377 46.35C387.943 45.95 387.727 45.45 387.727 44.85C387.727 44.1833 387.943 43.65 388.377 43.25C388.81 42.85 389.377 42.65 390.077 42.65H392.377V35.45C392.377 34.7167 392.61 34.1167 393.077 33.65C393.543 33.1833 394.143 32.95 394.877 32.95C395.61 32.95 396.21 33.1833 396.677 33.65C397.143 34.1167 397.377 34.7167 397.377 35.45V42.65H401.627C402.327 42.65 402.893 42.85 403.327 43.25C403.76 43.65 403.977 44.1833 403.977 44.85C403.977 45.45 403.76 45.95 403.327 46.35C402.893 46.75 402.327 46.95 401.627 46.95H397.377V59.3C397.377 60.6333 397.743 61.75 398.477 62.65C399.21 63.55 400.11 64 401.177 64H402.877C403.477 64 403.977 64.2333 404.377 64.7C404.81 65.1667 405.027 65.7667 405.027 66.5C405.027 67.2333 404.743 67.8333 404.177 68.3C403.643 68.7667 402.943 69 402.077 69H401.177ZM424.145 69.2C421.378 69.2 418.912 68.6167 416.745 67.45C414.612 66.25 412.928 64.6167 411.695 62.55C410.495 60.45 409.895 58.05 409.895 55.35C409.895 52.6167 410.462 50.2167 411.595 48.15C412.762 46.05 414.362 44.4167 416.395 43.25C418.428 42.05 420.762 41.45 423.395 41.45C425.995 41.45 428.228 42.0333 430.095 43.2C431.962 44.3333 433.378 45.9167 434.345 47.95C435.345 49.95 435.845 52.2667 435.845 54.9C435.845 55.5333 435.628 56.0667 435.195 56.5C434.762 56.9 434.212 57.1 433.545 57.1H414.545C414.912 59.4 415.962 61.2833 417.695 62.75C419.462 64.1833 421.612 64.9 424.145 64.9C425.178 64.9 426.228 64.7167 427.295 64.35C428.395 63.95 429.278 63.5 429.945 63C430.445 62.6333 430.978 62.45 431.545 62.45C432.145 62.4167 432.662 62.5833 433.095 62.95C433.662 63.45 433.962 64 433.995 64.6C434.028 65.2 433.762 65.7167 433.195 66.15C432.062 67.05 430.645 67.7833 428.945 68.35C427.278 68.9167 425.678 69.2 424.145 69.2ZM423.395 45.75C420.928 45.75 418.945 46.4333 417.445 47.8C415.945 49.1667 414.995 50.9333 414.595 53.1H431.245C430.945 50.9667 430.128 49.2167 428.795 47.85C427.462 46.45 425.662 45.75 423.395 45.75ZM452.3 69.2C449.966 69.2 447.8 68.85 445.8 68.15C443.833 67.4167 442.3 66.5 441.2 65.4C440.7 64.8667 440.483 64.2667 440.55 63.6C440.65 62.9 440.983 62.3333 441.55 61.9C442.216 61.3667 442.866 61.15 443.5 61.25C444.166 61.3167 444.733 61.6 445.2 62.1C445.766 62.7333 446.666 63.3333 447.9 63.9C449.166 64.4333 450.566 64.7 452.1 64.7C454.033 64.7 455.5 64.3833 456.5 63.75C457.533 63.1167 458.066 62.3 458.1 61.3C458.133 60.3 457.65 59.4333 456.65 58.7C455.683 57.9667 453.9 57.3667 451.3 56.9C447.933 56.2333 445.483 55.2333 443.95 53.9C442.45 52.5667 441.7 50.9333 441.7 49C441.7 47.3 442.2 45.9 443.2 44.8C444.2 43.6667 445.483 42.8333 447.05 42.3C448.616 41.7333 450.25 41.45 451.95 41.45C454.15 41.45 456.1 41.8 457.8 42.5C459.5 43.2 460.85 44.1667 461.85 45.4C462.316 45.9333 462.533 46.5 462.5 47.1C462.466 47.6667 462.183 48.15 461.65 48.55C461.116 48.9167 460.483 49.0333 459.75 48.9C459.016 48.7667 458.4 48.4667 457.9 48C457.066 47.2 456.166 46.65 455.2 46.35C454.233 46.05 453.116 45.9 451.85 45.9C450.383 45.9 449.133 46.15 448.1 46.65C447.1 47.15 446.6 47.8833 446.6 48.85C446.6 49.45 446.75 50 447.05 50.5C447.383 50.9667 448.016 51.4 448.95 51.8C449.883 52.1667 451.25 52.5333 453.05 52.9C456.816 53.6333 459.416 54.6833 460.85 56.05C462.316 57.3833 463.05 59.0333 463.05 61C463.05 62.5333 462.633 63.9167 461.8 65.15C461 66.3833 459.8 67.3667 458.2 68.1C456.633 68.8333 454.666 69.2 452.3 69.2Z" fill="white" fill-opacity="0.9"/>
<rect x="2" y="2" width="99" height="100.597" rx="6" fill="white"/>
<mask id="mask0" mask-type="alpha" maskUnits="userSpaceOnUse" x="22" y="24" width="58" height="58">
<path d="M50.6731 55.1318L38.284 47.8772C37.9776 47.6978 37.7893 47.3694 37.7893 47.0143V32.699C37.7893 32.3425 37.9791 32.013 38.2875 31.8341L50.6766 24.6461C50.9869 24.466 51.3699 24.466 51.6802 24.6461L64.0693 31.8341C64.3777 32.013 64.5675 32.3425 64.5675 32.699V47.0143C64.5675 47.3694 64.3792 47.6978 64.0728 47.8772L51.6837 55.1318C51.3716 55.3145 50.9852 55.3145 50.6731 55.1318Z" fill="white"/>
<path d="M65.9568 80.8994L53.5677 73.6449C53.2613 73.4654 53.073 73.137 53.073 72.7819V58.4667C53.073 58.1102 53.2628 57.7806 53.5712 57.6017L65.9602 50.4137C66.2706 50.2336 66.6536 50.2336 66.9639 50.4137L79.353 57.6017C79.6614 57.7806 79.8512 58.1102 79.8512 58.4667V72.7819C79.8512 73.137 79.6629 73.4654 79.3565 73.6449L66.9674 80.8994C66.6553 81.0822 66.2689 81.0822 65.9568 80.8994Z" fill="white"/>
<path d="M35.6418 80.8994L23.2528 73.6449C22.9463 73.4654 22.7581 73.137 22.7581 72.7819V58.4667C22.7581 58.1102 22.9479 57.7806 23.2562 57.6017L35.6453 50.4137C35.9556 50.2336 36.3386 50.2336 36.649 50.4137L49.0381 57.6017C49.3464 57.7806 49.5362 58.1102 49.5362 58.4667V72.7819C49.5362 73.137 49.3479 73.4654 49.0415 73.6449L36.6524 80.8994C36.3404 81.0822 35.9539 81.0822 35.6418 80.8994Z" fill="white"/>
</mask>
<g mask="url(#mask0)">
<rect x="14.7742" y="24.3549" width="72.2505" height="58.1036" rx="1" fill="url(#paint0_linear)"/>
</g>
</g>
<defs>
<linearGradient id="paint0_linear" x1="50.8994" y1="24.3549" x2="50.8994" y2="82.4585" gradientUnits="userSpaceOnUse">
<stop stop-color="#0671BF"/>
<stop offset="1" stop-color="#5BDEFB"/>
</linearGradient>
<clipPath id="clip0">
<rect width="468" height="105" fill="white"/>
</clipPath>
</defs>
</svg>
