<svg width="382" height="382" viewBox="0 0 382 382" fill="none" xmlns="http://www.w3.org/2000/svg">
<path d="M277.51 327.111L277.962 352.904L255.85 366.191L233.288 353.686L232.836 327.893L254.947 314.606L277.51 327.111Z" fill="#B6E3F8"/>
<path d="M80.6402 38.0042L81.2734 74.1704L50.2692 92.8018L18.6318 75.2671L17.9986 39.1009L49.0028 20.4695L80.6402 38.0042Z" fill="#B6E3F8"/>
<rect x="54" y="67" width="274" height="170" fill="white"/>
<rect x="59" y="69" width="37" height="163" fill="#394768"/>
<rect x="286" y="69" width="37" height="163" fill="#394768"/>
<path d="M291 83.5H317" stroke="white" stroke-width="2" stroke-linecap="round"/>
<path d="M311.5 81L311.5 87" stroke="#31ACDD" stroke-width="3" stroke-linecap="round"/>
<path d="M291 97.5H317" stroke="white" stroke-width="2" stroke-linecap="round"/>
<path d="M307 95L307 101" stroke="#31ACDD" stroke-width="3" stroke-linecap="round"/>
<path d="M291 112.5H317" stroke="white" stroke-width="2" stroke-linecap="round"/>
<path d="M296 110L296 116" stroke="#31ACDD" stroke-width="3" stroke-linecap="round"/>
<path d="M291 127.5H317" stroke="white" stroke-width="2" stroke-linecap="round"/>
<path d="M303 125L303 131" stroke="#31ACDD" stroke-width="3" stroke-linecap="round"/>
<path d="M161.5 130L200.038 194.5H122.962L161.5 130Z" fill="#394768"/>
<path d="M200.5 101L255.493 194.75H145.507L200.5 101Z" fill="url(#paint0_linear)"/>
<ellipse cx="174" cy="109.5" rx="9" ry="8.5" fill="#31ACDD"/>
<line x1="62.5" y1="82.5" x2="92.5" y2="82.5" stroke="white" stroke-width="3" stroke-linecap="round"/>
<line x1="64.5" y1="87.5" x2="83.5" y2="87.5" stroke="white" stroke-linecap="round"/>
<line x1="64.5" y1="91.5" x2="83.5" y2="91.5" stroke="white" stroke-linecap="round"/>
<line x1="64.5" y1="95.5" x2="83.5" y2="95.5" stroke="white" stroke-linecap="round"/>
<line x1="62.5" y1="104.5" x2="92.5" y2="104.5" stroke="white" stroke-width="3" stroke-linecap="round"/>
<line x1="64.5" y1="109.5" x2="83.5" y2="109.5" stroke="white" stroke-linecap="round"/>
<line x1="64.5" y1="113.5" x2="83.5" y2="113.5" stroke="white" stroke-linecap="round"/>
<line x1="64.5" y1="117.5" x2="83.5" y2="117.5" stroke="white" stroke-linecap="round"/>
<line x1="64.5" y1="121.5" x2="83.5" y2="121.5" stroke="white" stroke-linecap="round"/>
<line x1="62.5" y1="130.5" x2="92.5" y2="130.5" stroke="white" stroke-width="3" stroke-linecap="round"/>
<line x1="64.5" y1="135.5" x2="83.5" y2="135.5" stroke="white" stroke-linecap="round"/>
<line x1="64.5" y1="139.5" x2="83.5" y2="139.5" stroke="white" stroke-linecap="round"/>
<line x1="64.5" y1="143.5" x2="83.5" y2="143.5" stroke="white" stroke-linecap="round"/>
<line x1="62.5" y1="152.5" x2="92.5" y2="152.5" stroke="white" stroke-width="3" stroke-linecap="round"/>
<line x1="64.5" y1="157.5" x2="83.5" y2="157.5" stroke="white" stroke-linecap="round"/>
<line x1="64.5" y1="161.5" x2="83.5" y2="161.5" stroke="white" stroke-linecap="round"/>
<line x1="64.5" y1="165.5" x2="83.5" y2="165.5" stroke="white" stroke-linecap="round"/>
<line x1="64.5" y1="169.5" x2="83.5" y2="169.5" stroke="white" stroke-linecap="round"/>
<path d="M190.94 274.142C150.285 274.142 109.629 274.148 68.9794 274.131C67.1866 274.131 65.3711 274.091 63.601 273.836C53.6046 272.399 48.5893 267.198 47.4376 257.107C47.1993 255.046 47.0235 252.962 47.0178 250.89C46.9951 194.021 46.9894 137.147 47.0291 80.278C47.0291 77.6433 47.2163 74.9631 47.6759 72.3738C49.3722 62.8228 55.5732 57.4965 66.0066 57.2183C78.0057 56.9003 90.0163 57.0252 102.021 57.0195C171.701 57.0025 241.382 57.0025 311.062 57.0138C313.61 57.0138 316.202 56.9627 318.699 57.3716C329.013 59.0637 334.181 65.1963 334.936 76.4054C335.01 77.5354 334.998 78.6767 334.998 79.8124C334.998 136.874 335.01 193.936 334.975 250.992C334.975 253.723 334.811 256.5 334.317 259.18C332.632 268.362 326.431 273.711 316.588 273.949C304.589 274.245 292.578 274.108 280.568 274.114C250.692 274.131 220.816 274.12 190.94 274.12C190.94 274.131 190.94 274.137 190.94 274.142ZM191.173 70.6021C150.137 70.6021 109.101 70.5964 68.0717 70.6078C59.5503 70.6135 59.0453 71.0791 59.0397 79.5569C59.0056 126.875 58.9999 174.187 59.0113 221.504C59.0113 230.039 59.4141 230.374 68.0263 230.379C149.621 230.413 231.221 230.442 312.815 230.476C321.728 230.482 323.112 229.085 323.101 220.085C323.039 173.244 322.971 126.398 322.903 79.5569C322.891 70.9542 322.562 70.6021 313.995 70.6021C273.051 70.5908 232.112 70.5964 191.173 70.6021ZM199.03 251.702C199.053 247.221 195.473 243.548 191.036 243.508C186.611 243.468 182.957 247.113 182.935 251.588C182.912 256.057 186.509 259.748 190.923 259.788C195.32 259.827 199.002 256.153 199.03 251.702Z" fill="#31ACDD"/>
<path d="M167.445 286.629C183.251 286.629 198.705 286.629 214.551 286.629C214.551 290.104 214.727 293.5 214.511 296.867C214.182 301.927 216.219 305.941 220.309 308.417C224.865 311.177 229.88 313.181 234.708 315.492C235.208 315.731 235.803 315.77 236.348 315.924C239.116 316.696 240.523 318.428 240.098 320.711C239.616 323.289 237.925 324.174 235.383 324.163C223.01 324.106 210.63 324.14 198.257 324.14C181.537 324.14 164.818 324.14 148.093 324.135C143.696 324.135 142.13 323.215 141.858 320.495C141.603 317.94 143.163 316.923 146.913 315.475C151.888 313.556 156.819 311.33 161.403 308.621C165.726 306.072 167.848 301.927 167.484 296.646C167.263 293.369 167.445 290.07 167.445 286.629Z" fill="#31ACDD"/>
<path d="M296.871 201.294C295.849 201.294 294.967 201.154 294.225 200.874C293.483 200.58 292.867 200.181 292.377 199.677C291.901 199.159 291.544 198.55 291.306 197.85C291.082 197.136 290.97 196.352 290.97 195.498V186.447H294.246V195.225C294.246 195.813 294.309 196.317 294.435 196.737C294.575 197.143 294.757 197.479 294.981 197.745C295.219 197.997 295.499 198.179 295.821 198.291C296.157 198.403 296.521 198.459 296.913 198.459C297.711 198.459 298.355 198.214 298.845 197.724C299.349 197.234 299.601 196.401 299.601 195.225V186.447H302.877V195.498C302.877 196.352 302.758 197.136 302.52 197.85C302.282 198.564 301.918 199.18 301.428 199.698C300.938 200.202 300.315 200.594 299.559 200.874C298.803 201.154 297.907 201.294 296.871 201.294ZM311.073 186.447H314.349V201H311.073V186.447Z" fill="white"/>
<path d="M296.871 224.294C295.849 224.294 294.967 224.154 294.225 223.874C293.483 223.58 292.867 223.181 292.377 222.677C291.901 222.159 291.544 221.55 291.306 220.85C291.082 220.136 290.97 219.352 290.97 218.498V209.447H294.246V218.225C294.246 218.813 294.309 219.317 294.435 219.737C294.575 220.143 294.757 220.479 294.981 220.745C295.219 220.997 295.499 221.179 295.821 221.291C296.157 221.403 296.521 221.459 296.913 221.459C297.711 221.459 298.355 221.214 298.845 220.724C299.349 220.234 299.601 219.401 299.601 218.225V209.447H302.877V218.498C302.877 219.352 302.758 220.136 302.52 220.85C302.282 221.564 301.918 222.18 301.428 222.698C300.938 223.202 300.315 223.594 299.559 223.874C298.803 224.154 297.907 224.294 296.871 224.294ZM314.386 224C313.98 223.188 313.532 222.369 313.042 221.543C312.566 220.703 312.013 219.849 311.383 218.981C311.187 219.233 310.935 219.583 310.627 220.031C310.333 220.479 310.032 220.955 309.724 221.459C309.43 221.963 309.15 222.446 308.884 222.908C308.618 223.37 308.422 223.734 308.296 224H304.558C305.174 222.866 305.888 221.676 306.7 220.43C307.526 219.184 308.443 217.861 309.451 216.461L304.768 209.447H308.737L311.572 213.983L314.344 209.447H318.082L313.462 216.503C314.638 218.029 315.625 219.443 316.423 220.745C317.221 222.033 317.851 223.118 318.313 224H314.386Z" fill="white"/>
<line x1="290.5" y1="205.5" x2="318.5" y2="205.5" stroke="white"/>
<path d="M253.037 145.261L256.776 149.847L255.587 150.816L254.398 151.785L250.66 147.2L248.031 151.605L244.925 137.738L257.542 143.851L253.037 145.261Z" fill="#41596A"/>
<defs>
<linearGradient id="paint0_linear" x1="214.47" y1="118.677" x2="157.729" y2="190.968" gradientUnits="userSpaceOnUse">
<stop offset="0.171875" stop-color="#0570BE"/>
<stop offset="1" stop-color="#5BDEFB"/>
</linearGradient>
</defs>
</svg>
