<svg width="382" height="382" viewBox="0 0 382 382" fill="none" xmlns="http://www.w3.org/2000/svg">
<g clip-path="url(#clip0)">
<path d="M344.51 294.799L344.962 320.592L322.85 333.879L300.288 321.374L299.836 295.582L321.947 282.294L344.51 294.799Z" fill="#B6E3F8"/>
<path d="M85.6402 249.004L86.2734 285.17L55.2692 303.802L23.6318 286.267L22.9986 250.101L54.0028 231.469L85.6402 249.004Z" fill="#B6E3F8"/>
<path d="M194.234 35.9836L194.857 89.4403L148.873 116.708L102.267 90.5187L101.645 37.062L147.628 9.79441L194.234 35.9836Z" fill="#B6E3F8"/>
<rect x="55" y="67" width="274" height="170" fill="white"/>
<path d="M190.94 274.142C150.284 274.142 109.629 274.148 68.9794 274.131C67.1866 274.131 65.3711 274.091 63.601 273.836C53.6046 272.399 48.5893 267.198 47.4376 257.107C47.1993 255.046 47.0235 252.962 47.0178 250.89C46.9951 194.021 46.9894 137.147 47.0291 80.278C47.0291 77.6433 47.2163 74.9631 47.6759 72.3738C49.3722 62.8228 55.5732 57.4965 66.0066 57.2183C78.0057 56.9003 90.0163 57.0252 102.021 57.0195C171.701 57.0025 241.382 57.0025 311.062 57.0138C313.61 57.0138 316.202 56.9627 318.699 57.3716C329.013 59.0637 334.181 65.1963 334.936 76.4054C335.01 77.5354 334.998 78.6767 334.998 79.8124C334.998 136.874 335.01 193.936 334.975 250.992C334.975 253.723 334.811 256.5 334.317 259.18C332.632 268.362 326.431 273.711 316.588 273.949C304.589 274.245 292.578 274.108 280.568 274.114C250.692 274.131 220.816 274.12 190.94 274.12C190.94 274.131 190.94 274.137 190.94 274.142ZM191.172 70.6021C150.137 70.6021 109.101 70.5964 68.0717 70.6078C59.5503 70.6135 59.0453 71.0791 59.0397 79.5569C59.0056 126.875 58.9999 174.187 59.0113 221.504C59.0113 230.039 59.4141 230.374 68.0263 230.379C149.621 230.414 231.221 230.442 312.815 230.476C321.728 230.482 323.112 229.085 323.101 220.085C323.039 173.244 322.971 126.398 322.903 79.5569C322.891 70.9542 322.562 70.6021 313.995 70.6021C273.051 70.5908 232.112 70.5964 191.172 70.6021ZM199.03 251.702C199.053 247.221 195.473 243.548 191.036 243.508C186.611 243.468 182.957 247.114 182.935 251.588C182.912 256.057 186.509 259.748 190.923 259.788C195.32 259.827 199.002 256.153 199.03 251.702Z" fill="#31ACDD"/>
<path d="M167.445 286.629C183.251 286.629 198.705 286.629 214.551 286.629C214.551 290.104 214.727 293.5 214.511 296.867C214.182 301.927 216.219 305.941 220.309 308.417C224.865 311.177 229.88 313.181 234.708 315.492C235.208 315.731 235.803 315.77 236.348 315.924C239.116 316.696 240.523 318.428 240.098 320.711C239.616 323.289 237.925 324.174 235.383 324.163C223.01 324.106 210.63 324.14 198.257 324.14C181.537 324.14 164.818 324.14 148.093 324.135C143.696 324.135 142.13 323.215 141.858 320.495C141.603 317.94 143.163 316.923 146.913 315.475C151.888 313.556 156.819 311.33 161.403 308.621C165.726 306.072 167.848 301.927 167.484 296.646C167.263 293.369 167.445 290.07 167.445 286.629Z" fill="#31ACDD"/>
<path d="M182 112.5L198 129.143L219.397 151L238.849 122.071L269 115L287 124.5" stroke="#31ACDD" stroke-width="3"/>
<line x1="203.584" y1="174.109" x2="161.251" y2="222.141" stroke="#394768" stroke-width="14"/>
<ellipse cx="199" cy="129.5" rx="7" ry="7.5" fill="#31ACDD"/>
<circle cx="220" cy="151" r="7" fill="#31ACDD"/>
<ellipse cx="239.5" cy="122" rx="7.5" ry="7" fill="#31ACDD"/>
<ellipse cx="268.5" cy="115" rx="7.5" ry="7" fill="#31ACDD"/>
<circle cx="233.5" cy="133.5" r="54" stroke="#394768" stroke-width="9"/>
<circle cx="68" cy="161" r="3" fill="#31ACDD"/>
<circle cx="84" cy="172" r="3" fill="#31ACDD"/>
<circle cx="104" cy="169" r="3" fill="#31ACDD"/>
<circle cx="121" cy="155" r="3" fill="#31ACDD"/>
<circle cx="133" cy="132" r="3" fill="#31ACDD"/>
<circle cx="153" cy="126" r="3" fill="#31ACDD"/>
<circle cx="298" cy="129" r="3" fill="#31ACDD"/>
<circle cx="318" cy="123" r="3" fill="#31ACDD"/>
<circle cx="171" cy="101" r="3" fill="#31ACDD"/>
<path d="M68 161.5L84 172.5L104 169.5L121 155.5L133 132.5L153 126.5L171 101L184.5 115M287.5 125L298 129.5L318 123.5" stroke="#31ACDD"/>
</g>
<defs>
<clipPath id="clip0">
<rect width="382" height="382" rx="25" fill="white"/>
</clipPath>
</defs>
</svg>
